<?xml version="1.0" encoding="UTF-8"?>
<svg width="40px" height="40px" viewBox="0 0 40 40" version="1.1" xmlns="http://www.w3.org/2000/svg" xmlns:xlink="http://www.w3.org/1999/xlink">
    <title>暂无数据</title>
    <g id="样式" stroke="none" stroke-width="1" fill="none" fill-rule="evenodd">
        <g id="11-Table表格" transform="translate(-820.000000, -4737.000000)">
            <g id="编组-5" transform="translate(0.000000, 4386.000000)">
                <g id="3" transform="translate(0.000000, 48.000000)">
                    <g id="暂无数据" transform="translate(820.000000, 303.000000)">
                        <g id="无数据" fill-rule="nonzero">
                            <rect id="矩形" fill="#000000" opacity="0" x="0" y="0" width="40" height="40"></rect>
                            <path d="M32,35.2 L32,13.1859257 L22.941337,13.1471002 C22.4229195,13.1432177 22.0019489,12.723902 22.0019489,12.2075224 L22.0019489,3.2 L12,3.2 L12,35.1961174 L32,35.1961174 L32,35.2 Z" id="路径" fill="#F6F6F6"></path>
                            <path d="M7.35414222,13.8517073 C6.82581554,13.8517073 6.4,13.4070067 6.4,12.8643902 L6.4,2.58731707 C6.4,2.04062084 6.82581554,1.6 7.35414222,1.6 L22.2458578,1.6 C22.7741845,1.6 23.2,2.04470067 23.2,2.58731707 C23.2,3.12993348 22.7741845,3.57463415 22.2458578,3.57463415 L8.30828444,3.57463415 L8.30828444,12.8603104 C8.30828444,13.4070067 7.8824689,13.8517073 7.35414222,13.8517073 Z M7.35414222,20 C6.82581554,20 6.4,19.5552993 6.4,19.0126829 L6.4,16.6137472 C6.4,16.067051 6.82581554,15.6264302 7.35414222,15.6264302 C7.8824689,15.6264302 8.30828444,16.0711308 8.30828444,16.6137472 L8.30828444,19.0126829 C8.30828444,19.5593792 7.8824689,20 7.35414222,20 Z" id="形状" fill="#ECECEC"></path>
                            <path d="M33.6,13.1737749 L33.6,13.1541497 L33.6,13.1305994 C33.6,13.1227494 33.6,13.1109742 33.5961324,13.1031242 C33.5961324,13.0952741 33.5961324,13.091349 33.5922649,13.083499 C33.5922649,13.0717239 33.5883973,13.0638738 33.5883973,13.0520987 C33.5883973,13.0481736 33.5883973,13.0403235 33.5845297,13.0363985 C33.5806622,13.0246234 33.5806622,13.0128483 33.5767946,13.0049982 C33.5767946,13.0010732 33.572927,12.9932231 33.572927,12.989298 C33.5690595,12.9775229 33.5690595,12.9657478 33.5651919,12.9578977 C33.5651919,12.9539727 33.5613243,12.9461226 33.5613243,12.9421976 C33.5574568,12.9304225 33.5535892,12.9225724 33.5497217,12.9107973 C33.5497217,12.9068722 33.5458541,12.8990221 33.5458541,12.8950971 C33.5419865,12.887247 33.538119,12.8754719 33.5342514,12.8676218 C33.5303838,12.8597718 33.5303838,12.8558467 33.5265163,12.8479966 L33.5149136,12.8244464 L33.5033109,12.8008962 C33.5033109,12.7969711 33.4994433,12.7930461 33.4994433,12.7891211 C33.4878406,12.7655708 33.4762379,12.7459456 33.4646352,12.7223954 C33.4646352,12.7184704 33.4607677,12.7184704 33.4607677,12.7145453 C33.4530325,12.7027702 33.449165,12.6949201 33.4414298,12.68707 C33.4375623,12.683145 33.4375623,12.67922 33.4336947,12.6752949 C33.4259596,12.6674448 33.422092,12.6595948 33.4143569,12.6478196 C33.4104893,12.6438946 33.4066217,12.6399696 33.4027542,12.6321195 C33.395019,12.6242694 33.3911515,12.6164193 33.3834163,12.6085693 C33.3795488,12.6046442 33.3756812,12.5967941 33.3679461,12.5928691 C33.3640785,12.585019 33.3563434,12.581094 33.3524758,12.5732439 L33.3292704,12.5496937 L33.3176677,12.5379186 C33.306065,12.5261434 33.2944623,12.5143683 33.2789921,12.5025932 L23.3702901,3.44360338 C23.0956929,3.19240089 22.7012013,3.12960027 22.3608556,3.28267679 C22.0243774,3.43575331 21.8039262,3.77723169 21.8039262,4.15011039 L21.8039262,13.2522756 C21.8039262,13.7743058 22.2216232,14.2021351 22.7360094,14.2021351 L31.7242309,14.2413855 L31.7242309,36.4963561 L9.07190155,36.4963561 L9.07190155,23.371026 C9.07190155,22.8450708 8.65420451,22.4211666 8.13595078,22.4211666 C7.61769704,22.4211666 7.2,22.8489958 7.2,23.371026 L7.2,37.4501406 C7.2,37.9760958 7.61769704,38.4 8.13595078,38.4 L32.6640492,38.4 C33.182303,38.4 33.6,37.9721708 33.6,37.4501406 L33.6,13.2051752 L33.6,13.1737749 L33.6,13.1737749 Z M23.6796953,12.3063413 L23.6796953,6.28533156 L30.308702,12.3338165 L23.6796953,12.3063413 Z" id="形状" fill="#ECECEC"></path>
                        </g>
                        <rect id="矩形" fill="#ECECEC" transform="translate(20.500000, 20.500000) scale(-1, 1) translate(-20.500000, -20.500000) " x="19" y="15" width="3" height="11" rx="1.5"></rect>
                        <circle id="椭圆形" fill="#ECECEC" transform="translate(20.500000, 28.500000) scale(-1, 1) translate(-20.500000, -28.500000) " cx="20.5" cy="28.5" r="1.5"></circle>
                    </g>
                </g>
            </g>
        </g>
    </g>
</svg>