<?xml version="1.0" encoding="UTF-8"?>
<svg width="16px" height="16px" viewBox="0 0 16 16" version="1.1" xmlns="http://www.w3.org/2000/svg" xmlns:xlink="http://www.w3.org/1999/xlink">
    <g id="招商页面" stroke="none" stroke-width="1" fill="none" fill-rule="evenodd">
        <g id="16-系统配置项管理--" transform="translate(-368.000000, -184.000000)" fill-rule="nonzero">
            <g id="编辑" transform="translate(368.000000, 184.000000)">
                <rect id="矩形" fill="#000000" opacity="0" x="0" y="0" width="16" height="16"></rect>
                <path d="M13.2324,7.00752 C13.0826057,7.00732892 12.9388707,7.06665129 12.8328151,7.17243684 C12.7267595,7.27822239 12.6670708,7.42180569 12.66688,7.5716 L12.66688,12.4772 C12.6651154,13.2260464 12.0574885,13.8321344 11.30864,13.832 L3.44928,13.832 C2.70049391,13.8320904 2.09292855,13.2260639 2.09112,12.47728 L2.09112,4.63848 C2.09292855,3.88969609 2.70049391,3.28366959 3.44928,3.28376 L8.368,3.28376 C8.57176192,3.28719209 8.76153174,3.18045124 8.86441635,3.00453803 C8.96730096,2.82862482 8.96730096,2.61089518 8.86441635,2.43498197 C8.76153174,2.25906876 8.57176192,2.15232791 8.368,2.15567966 L3.44928,2.15567966 C2.07695545,2.15553524 0.963396497,3.26615963 0.96,4.63848 L0.96,12.47728 C0.963396497,13.8496004 2.07695545,14.9602248 3.44928,14.96 L11.30864,14.96 C12.6810269,14.9602688 13.7946475,13.8495829 13.798,12.4772 L13.798,7.5716 C13.7975585,7.25965654 13.5443435,7.00712208 13.2324,7.00752 L13.2324,7.00752 Z M14.60656,2.68064 L13.31392,1.39144 C12.8417674,0.922286423 12.0794326,0.922286423 11.60728,1.39144 L5.52296,7.45992 L5.52224,7.46072 L5.5216,7.4612 C5.52064,7.46216 5.52008,7.46328 5.51912,7.46424 C5.35979538,7.62444084 5.24888316,7.82632882 5.19912,8.04672 L4.72928,10.128 C4.67068956,10.3901051 4.73430944,10.6646351 4.90221711,10.8742514 C5.07012477,11.0838676 5.3241461,11.2059213 5.59272,11.2059213 C5.64982009,11.2059213 5.70679892,11.2006597 5.76288,11.18992 L7.90624,10.77448 C8.142328,10.7290465 8.35940771,10.6139728 8.52952,10.44408 L8.53088,10.4428 L14.60656,4.38288 C14.8324837,4.15725124 14.9594312,3.85105588 14.9594312,3.53176 C14.9594312,3.21246412 14.8324837,2.90626876 14.60656,2.68064 L14.60656,2.68064 Z M6.1668,8.896 L7.06736,9.78824 L5.91536,10.01152 L6.1668,8.896 Z M13.8068,3.5856 L8.128,9.2488 L6.724,7.85744 L12.40712,2.1892 C12.4367308,2.1597688 12.4845492,2.1597688 12.51416,2.1892 L13.80672,3.47832 C13.8209265,3.49247547 13.8289119,3.51170504 13.8289119,3.53176 C13.8289119,3.55181496 13.8209265,3.57104453 13.80672,3.5852 L13.8068,3.5856 Z" id="形状" fill="#595959"></path>
            </g>
        </g>
    </g>
</svg>