<?xml version="1.0" encoding="UTF-8"?>
<svg width="14px" height="14px" viewBox="0 0 14 14" version="1.1" xmlns="http://www.w3.org/2000/svg" xmlns:xlink="http://www.w3.org/1999/xlink">
    <g id="招商页面" stroke="none" stroke-width="1" fill="none" fill-rule="evenodd">
        <g id="1-首页" transform="translate(-870.000000, -460.000000)">
            <g id="资源面积（㎡）" transform="translate(870.000000, 460.000000)">
                <rect id="矩形" stroke="#979797" fill="#D8D8D8" opacity="0" x="0.5" y="0.5" width="13" height="13"></rect>
                <path d="M10.1818182,11.0909091 L11.0909091,11.0909091 L11.0909091,10.1818182 L10.1818182,10.1818182 L10.1818182,11.0909091 Z M8.25705599,5.3942956 L8.24423122,5.40707208 L5.406313,8.2481627 C5.32945823,8.32510339 5.22693827,8.36363636 5.12443395,8.36363636 C5.02197655,8.36363636 4.91945659,8.32510339 4.84260181,8.2481627 C4.6888297,8.09428131 4.6888297,7.83770274 4.84260181,7.68382136 L7.68045747,4.84273074 C7.83422959,4.68878672 8.09045911,4.68878672 8.24423122,4.84273074 C8.39794078,4.9902552 8.40435316,5.24035159 8.25705599,5.3942956 L8.25705599,5.3942956 Z M2.90909091,11.0909091 L3.81818182,11.0909091 L3.81818182,10.1818182 L2.90909091,10.1818182 L2.90909091,11.0909091 Z M2.90909091,3.81818182 L3.81818182,3.81818182 L3.81818182,2.90909091 L2.90909091,2.90909091 L2.90909091,3.81818182 Z M10.1818182,3.81818182 L11.0909091,3.81818182 L11.0909091,2.90909091 L10.1818182,2.90909091 L10.1818182,3.81818182 Z M11.6652257,4.25122488 C11.8512299,4.25122488 12,4.10200763 12,3.92165032 L12,2.33579954 C12,2.14927798 11.8512299,2 11.6652257,2 L10.0843035,2 C9.89835988,2 9.74954441,2.14927798 9.74954441,2.33579954 L9.74954441,2.69651416 L4.25045559,2.69651416 L4.25045559,2.33579954 C4.25045559,2.14927798 4.10168553,2 3.91568132,2 L2.33475913,2 C2.14881547,2 2,2.14927798 2,2.33579954 L2,3.91541016 C2,4.10200763 2.14881547,4.25122488 2.33475913,4.25122488 L2.7191335,4.25122488 L2.7191335,9.74255015 L2.33475913,9.74255015 C2.14881547,9.74255015 2,9.89176739 2,10.0783649 L2,11.6642005 C2,11.850722 2.14881547,12 2.33475913,12 L3.91568132,12 C4.09547984,12 4.24423476,11.850722 4.25045559,11.6642005 L4.25045559,11.2661815 L9.74954441,11.2661815 L9.74954441,11.6642005 C9.74954441,11.850722 9.89835988,12 10.0843035,12 L11.6652257,12 C11.8512299,12 12,11.850722 12,11.6642005 L12,10.0783649 C12,9.89176739 11.8512299,9.74255015 11.6652257,9.74255015 L11.2622343,9.74255015 L11.2622343,4.25122488 L11.6652257,4.25122488 Z" id="Fill-1" fill="#D4D4D4"></path>
            </g>
        </g>
    </g>
</svg>