<?xml version="1.0" standalone="no"?><!DOCTYPE svg PUBLIC "-//W3C//DTD SVG 1.1//EN" "http://www.w3.org/Graphics/SVG/1.1/DTD/svg11.dtd"><svg t="1605702230279" class="icon" viewBox="0 0 1024 1024" version="1.1" xmlns="http://www.w3.org/2000/svg" p-id="6701" xmlns:xlink="http://www.w3.org/1999/xlink" width="200" height="200"><defs><style type="text/css"></style></defs><path d="M512 0c282.7776 0 512 229.2224 512 512s-229.2224 512-512 512S0 794.7776 0 512 229.2224 0 512 0z m0 192h-0.0768l-0.0256 0.1024-0.3584 0.384c-11.5968 12.0832-242.3296 254.72-233.984 408.2688 0.4864 134.9632 105.0624 244.224 234.0096 244.224h0.8704l6.7584-0.1024c125.824-3.7376 226.7648-111.5136 227.2512-244.1216 8.448-155.776-229.12-403.2256-234.3424-408.704l-0.0512-0.0512v0.0512L512 192 512 194.0992V192z m0.2304 48.4096s207.3088 224.3072 198.5536 359.808l-0.1024 6.4512c-3.456 111.616-90.88 200.96-198.2464 200.96H511.5648l-6.1696-0.1024c-106.5728-3.4048-192-94.8736-192.3072-207.3088l-0.2048-6.272c-1.2032-135.168 198.912-353.536 198.912-353.536l0.1024 0.384L512 240.64l0.1024 0.128v-0.256zM344.064 535.9872a198.272 198.272 0 0 0-9.5232 60.928c0 104.8064 80.896 189.7728 180.6592 189.7728 83.8912 0 153.8816-66.6368 174.208-148.0704-41.6512-33.5104-146.2784-24.6272-146.2784-24.6272-84.48 0-154.2656-40.1664-199.0656-78.0032z" fill="#73D13D" p-id="6702"></path></svg>