<?xml version="1.0" standalone="no"?><!DOCTYPE svg PUBLIC "-//W3C//DTD SVG 1.1//EN" "http://www.w3.org/Graphics/SVG/1.1/DTD/svg11.dtd"><svg t="1605702200200" class="icon" viewBox="0 0 1024 1024" version="1.1" xmlns="http://www.w3.org/2000/svg" p-id="6451" xmlns:xlink="http://www.w3.org/1999/xlink" width="200" height="200"><defs><style type="text/css"></style></defs><path d="M512 0c282.7776 0 512 229.2224 512 512s-229.2224 512-512 512S0 794.7776 0 512 229.2224 0 512 0z m-128.8192 239.8208h-58.368V803.84h58.368V239.8208z m363.1104 270.336H437.248v291.2256h55.9104v-28.8768h197.2224v28.8768h55.9104V510.1568zM566.272 564.224v153.6h-73.1136v-153.6h73.1136z m124.1088 0v153.6h-70.0416v-153.6h70.0416z m-410.4192-247.6032H224.0512v386.4576h55.9104V316.6208z m316.416 62.0544l-45.4656 27.648c33.1776 33.792 58.9824 64.512 78.0288 92.7744l45.4656-31.9488c-18.432-25.1904-44.2368-54.6816-78.0288-88.4736z m-93.3888-143.7696c-29.4912 82.944-64.512 148.0704-105.0624 195.3792l41.1648 48.5376a633.6512 633.6512 0 0 0 73.1136-111.2064h248.2176v-58.368h-221.184c7.3728-19.6608 15.36-39.936 22.7328-61.44l-58.9824-12.9024z" fill="#73D13D" p-id="6452"></path></svg>