<?xml version="1.0" encoding="UTF-8"?>
<svg width="186px" height="104px" viewBox="0 0 186 104" version="1.1" xmlns="http://www.w3.org/2000/svg" xmlns:xlink="http://www.w3.org/1999/xlink">
    <title>封面图片</title>
    <defs>
        <rect id="path-1" x="0" y="0" width="186" height="104" rx="2"></rect>
    </defs>
    <g id="招商页面" stroke="none" stroke-width="1" fill="none" fill-rule="evenodd">
        <g id="26.1-项目详情-无图片" transform="translate(-310.000000, -1361.000000)">
            <g id="封面图片" transform="translate(310.000000, 1361.000000)">
                <g id="截屏2020-12-01-上午10.18.10">
                    <mask id="mask-2" fill="white">
                        <use xlink:href="#path-1"></use>
                    </mask>
                    <rect stroke="#EFEFEF" x="0.5" y="0.5" width="185" height="103" rx="2"></rect>
                </g>
                <g id="图片" opacity="0.264857701" transform="translate(76.000000, 35.000000)" fill-rule="nonzero">
                    <rect id="矩形" fill="#000000" opacity="0" x="0" y="0" width="34" height="34"></rect>
                    <path d="M29.8571429,4 C31.0405893,4 32,4.97007083 32,6.16666667 L32,27.8333333 C32,29.0299292 31.0405893,30 29.8571429,30 L4.14285714,30 C2.95941071,30 2,29.0299292 2,27.8333333 L2,6.16666667 C2,4.97007083 2.95941071,4 4.14285714,4 L29.8571429,4 Z M7.48153571,22.4500875 L3.60714286,26.367475 L3.60714286,27.8333333 C3.60714286,28.1324958 3.84698214,28.375 4.14285714,28.375 L15.2354107,28.375 L9.37560714,22.4500875 C8.85258929,21.9212583 8.00455357,21.9212583 7.48153571,22.4500875 Z M22.4815357,18.0625875 L14.8952857,25.7330208 L17.5082857,28.375 L29.8571429,28.375 C30.1530179,28.375 30.3928571,28.1324958 30.3928571,27.8333333 L30.3928571,24.1466958 L24.3756071,18.0625875 C23.8525893,17.5337583 23.0045536,17.5337583 22.4815357,18.0625875 Z M29.8571429,5.625 L4.14285714,5.625 C3.84698214,5.625 3.60714286,5.86750417 3.60714286,6.16666667 L3.60714286,24.0694 L6.34517857,21.30105 C7.49578571,20.13755 9.36135714,20.13755 10.5119643,21.30105 L13.7589286,24.5839833 L21.3451786,16.91355 C22.4957857,15.75005 24.3613571,15.75005 25.5119643,16.91355 L30.3928571,21.8485667 L30.3928571,6.16666667 C30.3928571,5.86750417 30.1530179,5.625 29.8571429,5.625 Z M11.6428571,10.5541667 C13.4180536,10.5541667 14.8571429,12.0092458 14.8571429,13.8041667 C14.8571429,15.5990875 13.4180536,17.0541667 11.6428571,17.0541667 C9.86766071,17.0541667 8.42857143,15.5990875 8.42857143,13.8041667 C8.42857143,12.0092458 9.86766071,10.5541667 11.6428571,10.5541667 Z M11.6428571,12.1791667 C10.7552321,12.1791667 10.0357143,12.9066792 10.0357143,13.8041667 C10.0357143,14.7016542 10.7552321,15.4291667 11.6428571,15.4291667 C12.5304821,15.4291667 13.25,14.7016542 13.25,13.8041667 C13.25,12.9066792 12.5304821,12.1791667 11.6428571,12.1791667 Z" id="形状" fill="#979797"></path>
                </g>
            </g>
        </g>
    </g>
</svg>