<?xml version="1.0" encoding="UTF-8"?>
<svg width="14px" height="15px" viewBox="0 0 14 15" version="1.1" xmlns="http://www.w3.org/2000/svg" xmlns:xlink="http://www.w3.org/1999/xlink">
    <title>x</title>
    <g id="招商页面" stroke="none" stroke-width="1" fill="none" fill-rule="evenodd">
        <g id="24-营销信息" transform="translate(-881.000000, -921.000000)" fill-rule="nonzero">
            <g id="x" transform="translate(881.000000, 921.000000)">
                <g id="编组-2" transform="translate(0.000000, 0.015625)">
                    <path d="M7,0 C3.134375,0 0,3.134375 0,7 C0,10.865625 3.134375,14 7,14 C10.865625,14 14,10.865625 14,7 C14,3.134375 10.865625,0 7,0 Z" id="形状" fill="#C0C4CC"></path>
                    <path d="M9.709375,4.528125 C9.709375,4.459375 9.653125,4.403125 9.584375,4.403125 L8.553125,4.4078125 L7,6.259375 L5.4484375,4.409375 L4.415625,4.4046875 C4.346875,4.4046875 4.290625,4.459375 4.290625,4.5296875 C4.290625,4.559375 4.3015625,4.5875 4.3203125,4.6109375 L6.353125,7.0328125 L4.3203125,9.453125 C4.3015625,9.4765625 4.290625,9.5046875 4.290625,9.534375 C4.290625,9.603125 4.346875,9.659375 4.415625,9.659375 L5.4484375,9.6546875 L7,7.803125 L8.5515625,9.653125 L9.5828125,9.6578125 C9.6515625,9.6578125 9.7078125,9.603125 9.7078125,9.5328125 C9.7078125,9.503125 9.696875,9.475 9.678125,9.4515625 L7.6484375,7.03125 L9.68125,4.609375 C9.7,4.5875 9.709375,4.5578125 9.709375,4.528125 Z" id="路径" fill="#FFFFFF"></path>
                </g>
            </g>
        </g>
    </g>
</svg>