<?xml version="1.0" encoding="UTF-8"?>
<svg width="323px" height="118px" viewBox="0 0 323 118" version="1.1" xmlns="http://www.w3.org/2000/svg" xmlns:xlink="http://www.w3.org/1999/xlink">
    <title>无权限</title>
    <defs>
        <polygon id="path-1" points="0 0.107080029 120.950534 0.107080029 120.950534 15.2440872 0 15.2440872"></polygon>
        <polygon id="path-3" points="3.32175765e-05 6.53654012e-06 39.8610918 6.53654012e-06 39.8610918 26.1461605 3.32175765e-05 26.1461605"></polygon>
    </defs>
    <g id="招商页面" stroke="none" stroke-width="1" fill="none" fill-rule="evenodd">
        <g id="30-无权限" transform="translate(-679.000000, -388.000000)">
            <g id="无权限" transform="translate(679.000000, 388.000000)">
                <ellipse id="椭圆形备份" fill="#E6EDF6" cx="161.5" cy="98" rx="161.5" ry="20"></ellipse>
                <g id="编组" transform="translate(99.000000, 0.000000)">
                    <g id="1">
                        <g id="分组-copy-2" transform="translate(0.139760, 0.007770)">
                            <g id="分组" transform="translate(0.000000, 0.070794)">
                                <mask id="mask-2" fill="white">
                                    <use xlink:href="#path-1"></use>
                                </mask>
                                <g id="Clip-2"></g>
                                <path d="M120.950534,15.2440872 L-0.000106425041,15.2440872 L-0.000106425041,4.37599791 C-0.000106425041,2.01845854 1.90596607,0.107026667 4.25689523,0.107026667 L116.693533,0.107026667 C119.044639,0.107026667 120.950534,2.01845854 120.950534,4.37599791 L120.950534,15.2440872 Z" id="Fill-1" fill="#D7DFED" mask="url(#mask-2)"></path>
                            </g>
                            <g id="分组" transform="translate(0.000000, 13.944950)" fill="#E0E6EF">
                                <path d="M116.693533,82.3172802 L4.25689523,82.3172802 C1.90596607,82.3172802 -0.000106425042,80.8336122 -0.000106425042,79.0033637 L-0.000106425042,0.096941222 L120.950534,0.096941222 L120.950534,79.0033637 C120.950534,80.8336122 119.044639,82.3172802 116.693533,82.3172802" id="Fill-3"></path>
                            </g>
                            <path d="M9.82920398,7.22222776 C9.82920398,8.70178205 8.63298651,9.90136297 7.15740331,9.90136297 C5.68199749,9.90136297 4.4859574,8.70178205 4.4859574,7.22222776 C4.4859574,5.74267348 5.68199749,4.54309256 7.15740331,4.54309256 C8.63298651,4.54309256 9.82920398,5.74267348 9.82920398,7.22222776" id="Fill-5" fill="#E9EDF7"></path>
                            <path d="M19.8063742,7.22222776 C19.8063742,8.70178205 18.6103342,9.90136297 17.134751,9.90136297 C15.6593451,9.90136297 14.463305,8.70178205 14.463305,7.22222776 C14.463305,5.74267348 15.6593451,4.54309256 17.134751,4.54309256 C18.6103342,4.54309256 19.8063742,5.74267348 19.8063742,7.22222776" id="Fill-7" fill="#E9EDF7"></path>
                            <path d="M29.7837219,7.22222776 C29.7837219,8.70178205 28.5876818,9.90136297 27.1120986,9.90136297 C25.6366928,9.90136297 24.4406527,8.70178205 24.4406527,7.22222776 C24.4406527,5.74267348 25.6366928,4.54309256 27.1120986,4.54309256 C28.5876818,4.54309256 29.7837219,5.74267348 29.7837219,7.22222776" id="Fill-9" fill="#E9EDF7"></path>
                            <path d="M13.0725261,85.4656204 C12.3387715,85.4656204 11.744163,85.0005742 11.744163,84.4269914 L11.744163,24.2161137 C11.744163,23.6425309 12.3387715,23.1774848 13.0725261,23.1774848 L109.199523,23.1774848 C109.933112,23.1774848 110.527886,23.6425309 110.527886,24.2161137 L110.527886,84.4269914 C110.527886,85.0005742 109.933112,85.4656204 109.199523,85.4656204 L13.0725261,85.4656204 Z" id="Fill-11" fill="#F2F5FB"></path>
                            <path d="M40.8225133,35.8277859 L21.3178429,35.8277859 C20.5192473,35.8277859 19.8660964,35.0104557 19.8660964,34.0115165 C19.8660964,33.0123993 20.5192473,32.1952471 21.3178429,32.1952471 L40.8225133,32.1952471 C41.6209667,32.1952471 42.2742597,33.0123993 42.2742597,34.0115165 C42.2742597,35.0104557 41.6209667,35.8277859 40.8225133,35.8277859" id="Fill-1" fill="#E9EDF7"></path>
                            <path d="M102.02035,79.2010401 L92.9641115,79.2010401 C91.9638935,79.2010401 91.1527573,78.3878011 91.1527573,77.3847708 C91.1527573,76.3815625 91.9638935,75.5685014 92.9641115,75.5685014 L102.02035,75.5685014 C103.020746,75.5685014 103.831527,76.3815625 103.831527,77.3847708 C103.831527,78.3878011 103.020746,79.2010401 102.02035,79.2010401" id="Fill-3" fill="#E9EDF7"></path>
                        </g>
                    </g>
                    <g id="分组复制" transform="translate(41.000000, 32.000000)">
                        <g id="分组" transform="translate(6.666667, 0.000000)" fill="#E7ECF1">
                            <path d="M4.26930826,12.9413101 C4.26930826,8.17684874 8.0981956,4.31443502 12.8213006,4.31443502 C17.5444057,4.31443502 21.373293,8.17684874 21.373293,12.9413101 L21.373293,17.2641159 L25.6492892,17.2641159 L25.6492892,12.9439386 C25.6492892,5.80088603 19.9089647,0.0103657296 12.8280487,0.0103657296 L12.8279819,0.0103657296 C5.74699901,0.0103657296 0.00674137524,5.80088603 0.00674137524,12.9439386 L0.00674137524,17.2641159 L4.26930826,17.2641159 L4.26930826,12.9413101 Z" id="Fill-1"></path>
                        </g>
                        <g id="分组" transform="translate(0.000000, 16.538462)">
                            <mask id="mask-4" fill="white">
                                <use xlink:href="#path-3"></use>
                            </mask>
                            <g id="Clip-4"></g>
                            <path d="M38.2666813,26.146167 L1.59447689,26.146167 C0.717466434,26.146167 3.32175765e-05,25.4402207 3.32175765e-05,24.5773974 L3.32175765e-05,1.56877617 C3.32175765e-05,0.70595287 0.717466434,6.53654012e-06 1.59447689,6.53654012e-06 L38.2666813,6.53654012e-06 C39.1435589,6.53654012e-06 39.861125,0.70595287 39.861125,1.56877617 L39.861125,24.5773974 C39.861125,25.4402207 39.1435589,26.146167 38.2666813,26.146167" id="Fill-3" fill="#E7ECF1" mask="url(#mask-4)"></path>
                        </g>
                        <path d="M19.5833333,23.1538462 C20.4104593,23.1538462 21.0810811,23.8010335 21.0810811,24.5994642 L21.0814806,29.3527886 C21.931268,29.8585903 22.5,30.7816452 22.5,31.8365385 C22.5,33.4350121 21.1941253,34.7307692 19.5832863,34.7307692 C17.9725414,34.7307692 16.6666667,33.4350121 16.6666667,31.8365385 C16.6666667,30.7820588 17.2349527,29.8593143 18.0841594,29.3533839 L18.0855856,24.5994642 C18.0855856,23.848 18.6796312,23.2305092 19.4390992,23.1604634 L19.5833333,23.1538462 Z" id="形状结合" fill="#F2F5FB"></path>
                    </g>
                </g>
            </g>
        </g>
    </g>
</svg>