<?xml version="1.0" encoding="UTF-8"?>
<svg width="16px" height="16px" viewBox="0 0 16 16" version="1.1" xmlns="http://www.w3.org/2000/svg" xmlns:xlink="http://www.w3.org/1999/xlink">
    <g id="招商页面" stroke="none" stroke-width="1" fill="none" fill-rule="evenodd">
        <g id="5-资源管理-新增资源备份" transform="translate(-29.000000, -169.000000)">
            <g id="客户管理" transform="translate(29.000000, 169.000000)">
                <path d="M13.1281873,11.1863041 C12.7313123,10.7894291 12.2734998,10.4722416 11.7781873,10.2425541 C12.4859998,9.66911662 12.9375623,8.79411662 12.9375623,7.81286662 C12.9375623,6.08161662 11.4938123,4.66130412 9.7625623,4.68786662 C8.0578748,4.71442912 6.6844373,6.10349162 6.6844373,7.81286662 C6.6844373,8.79411662 7.1375623,9.66911662 7.8438123,10.2425541 C7.3484998,10.4722416 6.8922498,10.7878666 6.4938123,11.1863041 C5.6406873,12.0409916 5.1563123,13.1691166 5.12503052,14.3722416 C5.1234998,14.4425541 5.1797498,14.5003666 5.2500623,14.5003666 L6.1250623,14.5003666 C6.1922498,14.5003666 6.2484998,14.4472416 6.2500623,14.3800541 C6.2797498,13.4738041 6.6469373,12.6253666 7.2922498,11.9816166 C7.9656873,11.3081791 8.8609998,10.9378666 9.8125623,10.9378666 C10.7641248,10.9378666 11.6594373,11.3081791 12.3328748,11.9816166 C12.9766248,12.6253666 13.3438123,13.4738041 13.3750623,14.3800541 C13.3766248,14.4472416 13.4328748,14.5003666 13.5000623,14.5003666 L14.3750623,14.5003666 C14.4453748,14.5003666 14.5016248,14.4425541 14.5000941,14.3722416 C14.4688123,13.1691166 13.9844373,12.0409916 13.1281873,11.1863041 Z M9.8125623,9.81286662 C9.2781873,9.81286662 8.7750623,9.60505412 8.3984998,9.22692912 C8.0156873,8.84411662 7.8063123,8.33474162 7.8125623,7.79255412 C7.8172498,7.28005412 8.0219373,6.78474162 8.3797498,6.41755412 C8.7547498,6.03317912 9.2563123,5.81911662 9.7922498,5.81286662 C10.3219373,5.80817912 10.8359998,6.01442912 11.2141248,6.38474162 C11.6016248,6.76442912 11.8141248,7.27224162 11.8141248,7.81286662 C11.8141248,8.34724162 11.6063123,8.84880412 11.2281873,9.22692912 C10.8500623,9.60505412 10.3469373,9.81286662 9.8125623,9.81286662 L9.8125623,9.81286662 Z M5.8984998,8.22536662 C5.8844373,8.08942912 5.8766248,7.95192912 5.8766248,7.81286662 C5.8766248,7.56442912 5.9000623,7.32224162 5.9438123,7.08630412 C5.9547498,7.03005412 5.9250623,6.97224162 5.8734998,6.94880412 C5.6609998,6.85349162 5.4656873,6.72224162 5.2969373,6.55661662 C4.8938123,6.16286662 4.6766248,5.63005412 4.6922498,5.06599162 C4.7063123,4.56442912 4.9078748,4.08786662 5.2594373,3.72849162 C5.6453748,3.33317912 6.1641248,3.11755412 6.7156873,3.12380412 C7.2141248,3.12849162 7.6953748,3.32067912 8.0594373,3.66130412 C8.1828748,3.77692912 8.2891248,3.90505412 8.3781873,4.04255412 C8.4094373,4.09099162 8.4703748,4.11130412 8.5234998,4.09255412 C8.7984998,3.99724162 9.0891248,3.93005412 9.3875623,3.89880412 C9.4750623,3.88942912 9.5250623,3.79567912 9.4859998,3.71755412 C8.9781873,2.71286662 7.9406873,2.01911662 6.7406873,2.00036662 C5.0078748,1.97380412 3.5641248,3.39411662 3.5641248,5.12380412 C3.5641248,6.10505412 4.0156873,6.98005412 4.7234998,7.55349162 C4.2266248,7.78317912 3.7688123,8.10036662 3.3719373,8.49724162 C2.5156873,9.35192912 2.0313123,10.4800541 2.00003052,11.6847416 C1.9984998,11.7550541 2.0547498,11.8128666 2.1250623,11.8128666 L3.0016248,11.8128666 C3.0688123,11.8128666 3.1250623,11.7597416 3.1266248,11.6925541 C3.1563123,10.7863041 3.5234998,9.93786662 4.1688123,9.29411662 C4.6281873,8.83474162 5.1906873,8.51599162 5.8047498,8.36130412 C5.8656873,8.34567912 5.9063123,8.28786662 5.8984998,8.22536662 L5.8984998,8.22536662 Z" id="形状" fill="#DDE1E6" fill-rule="nonzero"></path>
                <rect id="矩形" stroke="#979797" fill="#D8D8D8" opacity="0" x="0.5" y="0.5" width="15" height="15"></rect>
            </g>
        </g>
    </g>
</svg>