<?xml version="1.0" encoding="UTF-8"?>
<svg width="14px" height="14px" viewBox="0 0 14 14" version="1.1" xmlns="http://www.w3.org/2000/svg" xmlns:xlink="http://www.w3.org/1999/xlink">
    <g id="招商页面" stroke="none" stroke-width="1" fill="none" fill-rule="evenodd">
        <g id="1-首页" transform="translate(-1155.000000, -600.000000)" fill-rule="nonzero">
            <g id="佣金总额（元）" transform="translate(1155.000000, 600.000000)">
                <rect id="矩形" fill="#000000" opacity="0" x="0" y="0" width="14" height="14"></rect>
                <path d="M11.375,0.875 L2.625,0.875 C2.38300781,0.875 2.1875,1.07050781 2.1875,1.3125 L2.1875,12.6875 C2.1875,12.9294922 2.38300781,13.125 2.625,13.125 L11.375,13.125 C11.6169922,13.125 11.8125,12.9294922 11.8125,12.6875 L11.8125,1.3125 C11.8125,1.07050781 11.6169922,0.875 11.375,0.875 Z M8.84570312,6.43125 L7.65351562,8.63242188 L8.28105469,8.63242188 C8.34394531,8.63242188 8.39589844,8.684375 8.39589844,8.74726563 L8.39589844,9.09042969 C8.39589844,9.15332031 8.34394531,9.20527344 8.28105469,9.20527344 L7.415625,9.20527344 L7.415625,9.59628906 L8.28105469,9.59628906 C8.34394531,9.59628906 8.39589844,9.64824219 8.39589844,9.71113281 L8.39589844,10.0529297 C8.39863281,10.1158203 8.34667969,10.1691406 8.28378906,10.1691406 L7.41835937,10.1691406 L7.41835937,10.8513672 C7.41835937,10.9142578 7.36640625,10.9662109 7.30351562,10.9662109 L6.70605469,10.9662109 C6.64316406,10.9662109 6.59121094,10.9142578 6.59121094,10.8513672 L6.59121094,10.1691406 L5.72988281,10.1691406 C5.66699219,10.1691406 5.61503906,10.1171875 5.61503906,10.0542969 L5.61503906,9.71113281 C5.61503906,9.64824219 5.66699219,9.59628906 5.72988281,9.59628906 L6.59121094,9.59628906 L6.59121094,9.20527344 L5.72988281,9.20527344 C5.66699219,9.20527344 5.61503906,9.15332031 5.61503906,9.09042969 L5.61503906,8.74726563 C5.61503906,8.684375 5.66699219,8.63242188 5.72988281,8.63242188 L6.35058594,8.63242188 L5.15429687,6.43125 C5.12421875,6.37519531 5.14472656,6.30683594 5.20078125,6.27539063 C5.21855469,6.2671875 5.23632812,6.26171875 5.25410156,6.26171875 L5.92128906,6.26171875 C5.96503906,6.26171875 6.0046875,6.28632813 6.02382812,6.32460938 L7.00683594,8.26328125 L7.98984375,6.32324219 C8.01035156,6.28496094 8.04863281,6.26035156 8.09238281,6.26035156 L8.74589844,6.26035156 C8.80878906,6.26035156 8.86074219,6.31230469 8.86074219,6.37519531 C8.859375,6.39570313 8.85390625,6.41484375 8.84570312,6.43125 L8.84570312,6.43125 Z M7.00820312,4.41601562 L3.95117188,2.0234375 L10.0488281,2.0234375 L7.00820312,4.41601562 Z" id="形状" fill="#D4D4D4"></path>
            </g>
        </g>
    </g>
</svg>