<?xml version="1.0" encoding="UTF-8"?>
<svg width="14px" height="14px" viewBox="0 0 14 14" version="1.1" xmlns="http://www.w3.org/2000/svg" xmlns:xlink="http://www.w3.org/1999/xlink">
    <g id="招商页面" stroke="none" stroke-width="1" fill="none" fill-rule="evenodd">
        <g id="1-首页" transform="translate(-1155.000000, -460.000000)" fill-rule="nonzero">
            <g id="注册经纪人数" transform="translate(1155.000000, 460.000000)">
                <rect id="矩形" fill="#A8A8A8" opacity="0" x="0" y="0" width="14" height="14"></rect>
                <path d="M3.9375,3.9375 C3.9375,5.62887205 5.30862795,7 7,7 C8.69137205,7 10.0625,5.62887205 10.0625,3.9375 C10.0625,2.24612795 8.69137205,0.875 7,0.875 C5.30862795,0.875 3.9375,2.24612795 3.9375,3.9375 Z" id="路径" fill="#D4D4D4"></path>
                <path d="M7.97207031,7.0765625 L7,8.04863281 L6.02792969,7.0765625 C3.10761719,7.54277344 0.875,10.0734375 0.875,13.125 L13.125,13.125 C13.125,10.0734375 10.8923828,7.54277344 7.97207031,7.0765625 Z M7,12.25 L5.95136719,11.2013672 L7,8.05273437 L8.04863281,11.2027344 L7,12.25 Z" id="形状" fill="#D4D4D4"></path>
            </g>
        </g>
    </g>
</svg>