<?xml version="1.0" encoding="UTF-8"?>
<svg width="14px" height="14px" viewBox="0 0 14 14" version="1.1" xmlns="http://www.w3.org/2000/svg" xmlns:xlink="http://www.w3.org/1999/xlink">
    <g id="招商页面" stroke="none" stroke-width="1" fill="none" fill-rule="evenodd">
        <g id="1-首页" transform="translate(-300.000000, -600.000000)" fill-rule="nonzero">
            <g id="推荐线索" transform="translate(300.000000, 600.000000)">
                <rect id="矩形" fill="#000000" opacity="0" x="0" y="0" width="14" height="14"></rect>
                <path d="M12.03125,1.53125 L1.96875,1.53125 C1.72675781,1.53125 1.53125,1.72675781 1.53125,1.96875 L1.53125,12.03125 C1.53125,12.2732422 1.72675781,12.46875 1.96875,12.46875 L12.03125,12.46875 C12.2732422,12.46875 12.46875,12.2732422 12.46875,12.03125 L12.46875,1.96875 C12.46875,1.72675781 12.2732422,1.53125 12.03125,1.53125 Z M5.5234375,9.33789062 L5.5234375,10.390625 C5.5234375,10.4507812 5.47421875,10.5 5.4140625,10.5 L4.7578125,10.5 C4.69765625,10.5 4.6484375,10.4507812 4.6484375,10.390625 L4.6484375,9.33789062 C4.07832031,9.15195312 3.6640625,8.61601563 3.6640625,7.984375 C3.6640625,7.35273437 4.07832031,6.81542969 4.6484375,6.63085938 L4.6484375,3.609375 C4.6484375,3.54921875 4.69765625,3.5 4.7578125,3.5 L5.4140625,3.5 C5.47421875,3.5 5.5234375,3.54921875 5.5234375,3.609375 L5.5234375,6.63085938 C6.09355469,6.81679688 6.5078125,7.35273437 6.5078125,7.984375 C6.5078125,8.61601563 6.09355469,9.15332031 5.5234375,9.33789062 Z M9.34609375,7.37050781 C9.34882813,7.37050781 9.35019531,7.36914062 9.3515625,7.36914062 L9.3515625,10.390625 C9.3515625,10.4507812 9.30234375,10.5 9.2421875,10.5 L8.5859375,10.5 C8.52578125,10.5 8.4765625,10.4507812 8.4765625,10.390625 L8.4765625,7.36914062 C8.47929688,7.36914062 8.48066406,7.37050781 8.48203125,7.37050781 C7.9078125,7.18730469 7.4921875,6.65 7.4921875,6.015625 C7.4921875,5.38125 7.9078125,4.84394531 8.48203125,4.66074219 C8.47929687,4.66074219 8.47792969,4.66210938 8.4765625,4.66210938 L8.4765625,3.609375 C8.4765625,3.54921875 8.52578125,3.5 8.5859375,3.5 L9.2421875,3.5 C9.30234375,3.5 9.3515625,3.54921875 9.3515625,3.609375 L9.3515625,4.66210938 C9.34882812,4.66210938 9.34746094,4.66074219 9.34609375,4.66074219 C9.9203125,4.84394531 10.3359375,5.38125 10.3359375,6.015625 C10.3359375,6.65 9.9203125,7.18730469 9.34609375,7.37050781 Z M8.421875,6.015625 C8.421875,6.28745265 8.64223485,6.5078125 8.9140625,6.5078125 C9.18589015,6.5078125 9.40625,6.28745265 9.40625,6.015625 C9.40625,5.74379735 9.18589015,5.5234375 8.9140625,5.5234375 C8.64223485,5.5234375 8.421875,5.74379735 8.421875,6.015625 Z M5.51523438,7.74511719 L5.49472656,7.71230469 C5.49472656,7.7109375 5.49335937,7.7109375 5.49335937,7.70957031 L5.48105469,7.69316406 C5.4796875,7.69179687 5.47832031,7.69042969 5.47832031,7.6890625 C5.46464844,7.67128906 5.45097656,7.65488281 5.43457031,7.63984375 L5.43183594,7.63710937 C5.42636719,7.63164062 5.42089844,7.62617187 5.41542969,7.62207031 C5.40449219,7.61113281 5.3921875,7.6015625 5.37988281,7.59335937 L5.37851563,7.59335937 L5.36210938,7.58105469 C5.36074219,7.5796875 5.35800781,7.57832031 5.35664063,7.57695312 C5.34023438,7.56601562 5.32246094,7.55507812 5.30332031,7.546875 C5.30058594,7.54550781 5.29648438,7.54414062 5.29375,7.54140625 C5.28828125,7.53867187 5.28417969,7.53730469 5.27871094,7.53457031 C5.27460938,7.53320312 5.26914063,7.53046875 5.26503906,7.52910156 C5.25820313,7.52636719 5.25136719,7.52363281 5.24453125,7.52226562 C5.2390625,7.52089844 5.23222656,7.51816406 5.22675781,7.51679687 L5.21445313,7.51269531 C5.20761719,7.51132812 5.20214844,7.50996094 5.1953125,7.50859375 C5.19257813,7.50722656 5.18847656,7.50722656 5.18574219,7.50585938 C5.17617188,7.50449219 5.16660156,7.50175781 5.15703125,7.50039063 C5.15429688,7.50039063 5.1515625,7.50039063 5.14882813,7.49902344 C5.140625,7.49765625 5.13378906,7.49765625 5.12558594,7.49628906 C5.12285156,7.49628906 5.12011719,7.49628906 5.11601563,7.49492187 C5.10507813,7.49492187 5.09550781,7.49355469 5.08457031,7.49355469 C5.07363281,7.49355469 5.0640625,7.49355469 5.053125,7.49492187 C5.05039063,7.49492187 5.04765625,7.49492187 5.04355469,7.49628906 C5.03535156,7.49628906 5.02714844,7.49765625 5.0203125,7.49902344 C5.01757813,7.49902344 5.01484375,7.49902344 5.01210938,7.50039063 C5.00253906,7.50175781 4.99296875,7.503125 4.98339844,7.50585938 C4.98066406,7.50722656 4.9765625,7.50722656 4.97382813,7.50859375 C4.96699219,7.50996094 4.96152344,7.51132813 4.9546875,7.51269531 L4.94238281,7.51679687 C4.93691406,7.51816406 4.93007813,7.52089844 4.92460938,7.52226562 C4.91777344,7.525 4.9109375,7.52773437 4.90410156,7.52910156 C4.9,7.53046875 4.89453125,7.53320312 4.89042969,7.53457031 C4.88496094,7.53730469 4.88085938,7.53867187 4.87539063,7.54140625 C4.87265625,7.54277344 4.86855469,7.54414062 4.86582031,7.546875 C4.84804688,7.55644531 4.83027344,7.56601562 4.8125,7.57695312 C4.81113281,7.57832031 4.80839844,7.5796875 4.80703125,7.58105469 L4.790625,7.59335937 L4.78925781,7.59335937 C4.77695313,7.60292969 4.76464844,7.6125 4.75371094,7.62207031 C4.74824219,7.62753906 4.74277344,7.63164062 4.73730469,7.63710937 L4.73457031,7.63984375 C4.71953125,7.65488281 4.70449219,7.67265625 4.69082031,7.6890625 C4.68945313,7.69042969 4.68808594,7.69179688 4.68808594,7.69316406 L4.67578125,7.70957031 C4.67578125,7.7109375 4.67441406,7.7109375 4.67441406,7.71230469 L4.65390625,7.74511719 C4.65253906,7.74785156 4.65117188,7.74921875 4.64980469,7.75195312 C4.61289063,7.82167969 4.59101563,7.90097656 4.59101563,7.984375 C4.59101563,8.06777344 4.61289063,8.1484375 4.64980469,8.21679688 C4.65117188,8.21953125 4.65253906,8.22089844 4.65390625,8.22363281 L4.67441406,8.25644531 C4.67441406,8.2578125 4.67578125,8.2578125 4.67578125,8.25917969 L4.68808594,8.27558594 C4.68945313,8.27695313 4.69082031,8.27832031 4.69082031,8.2796875 C4.70449219,8.29746094 4.71816406,8.31386719 4.73457031,8.32890625 L4.73730469,8.33164063 C4.74277344,8.33710938 4.74824219,8.34257813 4.75371094,8.34667969 C4.76464844,8.35761719 4.77695313,8.3671875 4.78925781,8.37539063 L4.790625,8.37539063 L4.80703125,8.38769531 C4.80839844,8.3890625 4.81113281,8.39042969 4.8125,8.39179688 C4.82890625,8.40273438 4.84667969,8.41367188 4.86582031,8.421875 C4.86855469,8.42324219 4.87265625,8.42460938 4.87539063,8.42734375 C4.88085938,8.43007813 4.88496094,8.43144531 4.89042969,8.43417969 C4.89453125,8.43554688 4.9,8.43828125 4.90410156,8.43964844 C4.9109375,8.44238281 4.91777344,8.44511719 4.92460938,8.44648438 C4.93007813,8.44785156 4.93691406,8.45058594 4.94238281,8.45195313 L4.9546875,8.45605469 C4.96152344,8.45742188 4.96699219,8.45878906 4.97382813,8.46015625 C4.9765625,8.46152344 4.98066406,8.46152344 4.98339844,8.46289062 C4.99296875,8.46425781 5.00253906,8.46699219 5.01210938,8.46835937 C5.01484375,8.46835937 5.01757812,8.46835937 5.0203125,8.46972656 C5.02851563,8.47109375 5.03535156,8.47109375 5.04355469,8.47246094 C5.04628906,8.47246094 5.04902344,8.47246094 5.053125,8.47382813 C5.0640625,8.47382813 5.07363281,8.47519531 5.08457031,8.47519531 C5.09550781,8.47519531 5.10507813,8.47519531 5.11601563,8.47382813 C5.11875,8.47382813 5.12148438,8.47382813 5.12558594,8.47246094 C5.13378906,8.47246094 5.14199219,8.47109375 5.14882813,8.46972656 C5.1515625,8.46972656 5.15429688,8.46972656 5.15703125,8.46835937 C5.16660156,8.46699219 5.17617188,8.465625 5.18574219,8.46289062 C5.18847656,8.46152344 5.19257813,8.46152344 5.1953125,8.46015625 C5.20214844,8.45878906 5.20761719,8.45742187 5.21445313,8.45605469 L5.22675781,8.45195313 C5.23222656,8.45058594 5.2390625,8.44785156 5.24453125,8.44648438 C5.25136719,8.44375 5.25820313,8.44101563 5.26503906,8.43964844 C5.26914063,8.43828125 5.27460938,8.43554688 5.27871094,8.43417969 C5.28417969,8.43144531 5.28828125,8.43007813 5.29375,8.42734375 C5.29648438,8.42597656 5.30058594,8.42460938 5.30332031,8.421875 C5.32109375,8.41230469 5.33886719,8.40273438 5.35664063,8.39179688 C5.35800781,8.39042969 5.36074219,8.3890625 5.36210938,8.38769531 L5.37851563,8.37539063 L5.37988281,8.37539063 C5.3921875,8.36582031 5.40449219,8.35625 5.41542969,8.34667969 C5.42089844,8.34121094 5.42636719,8.33710938 5.43183594,8.33164063 L5.43457031,8.32890625 C5.44960938,8.31386719 5.46464844,8.29609375 5.47832031,8.2796875 C5.4796875,8.27832031 5.48105469,8.27695312 5.48105469,8.27558594 L5.49335937,8.25917969 C5.49335937,8.2578125 5.49472656,8.2578125 5.49472656,8.25644531 L5.51523438,8.22363281 C5.51660156,8.22089844 5.51796875,8.21953125 5.51933594,8.21679688 C5.55625,8.14707031 5.578125,8.06777344 5.578125,7.984375 C5.578125,7.90097656 5.55625,7.8203125 5.51933594,7.75195312 C5.51796875,7.74921875 5.51660156,7.74648438 5.51523438,7.74511719 Z" id="形状" fill="#D4D4D4"></path>
            </g>
        </g>
    </g>
</svg>