<?xml version="1.0" encoding="UTF-8"?>
<svg width="14px" height="14px" viewBox="0 0 14 14" version="1.1" xmlns="http://www.w3.org/2000/svg" xmlns:xlink="http://www.w3.org/1999/xlink">
    <g id="招商页面" stroke="none" stroke-width="1" fill="none" fill-rule="evenodd">
        <g id="1-首页" transform="translate(-300.000000, -460.000000)" fill-rule="nonzero">
            <g id="项目总数" transform="translate(300.000000, 460.000000)">
                <rect id="矩形" fill="#000000" opacity="0" x="0" y="0" width="14" height="14"></rect>
                <path d="M11.8125,1.96875 L7.65625,1.96875 C7.5359375,1.96875 7.4375,2.0671875 7.4375,2.1875 L7.4375,6.34375 C7.4375,6.4640625 7.5359375,6.5625 7.65625,6.5625 L11.8125,6.5625 C11.9328125,6.5625 12.03125,6.4640625 12.03125,6.34375 L12.03125,2.1875 C12.03125,2.0671875 11.9328125,1.96875 11.8125,1.96875 Z M11.8125,7.4375 L7.65625,7.4375 C7.5359375,7.4375 7.4375,7.5359375 7.4375,7.65625 L7.4375,11.8125 C7.4375,11.9328125 7.5359375,12.03125 7.65625,12.03125 L11.8125,12.03125 C11.9328125,12.03125 12.03125,11.9328125 12.03125,11.8125 L12.03125,7.65625 C12.03125,7.5359375 11.9328125,7.4375 11.8125,7.4375 Z M6.34375,1.96875 L2.1875,1.96875 C2.0671875,1.96875 1.96875,2.0671875 1.96875,2.1875 L1.96875,6.34375 C1.96875,6.4640625 2.0671875,6.5625 2.1875,6.5625 L6.34375,6.5625 C6.4640625,6.5625 6.5625,6.4640625 6.5625,6.34375 L6.5625,2.1875 C6.5625,2.0671875 6.4640625,1.96875 6.34375,1.96875 Z M6.34375,7.4375 L2.1875,7.4375 C2.0671875,7.4375 1.96875,7.5359375 1.96875,7.65625 L1.96875,11.8125 C1.96875,11.9328125 2.0671875,12.03125 2.1875,12.03125 L6.34375,12.03125 C6.4640625,12.03125 6.5625,11.9328125 6.5625,11.8125 L6.5625,7.65625 C6.5625,7.5359375 6.4640625,7.4375 6.34375,7.4375 Z" id="形状" fill="#D4D4D4"></path>
            </g>
        </g>
    </g>
</svg>