<?xml version="1.0" encoding="UTF-8"?>
<svg width="20px" height="20px" viewBox="0 0 20 20" version="1.1" xmlns="http://www.w3.org/2000/svg" xmlns:xlink="http://www.w3.org/1999/xlink">
    <g id="招商页面" stroke="none" stroke-width="1" fill="none" fill-rule="evenodd">
        <g id="1-首页" transform="translate(-680.000000, -196.000000)" fill-rule="nonzero">
            <g id="线索跟进（条）" transform="translate(680.000000, 196.000000)">
                <rect id="矩形" fill="#000000" opacity="0" x="0" y="0" width="20" height="20"></rect>
                <path d="M13.1584821,12.1679688 C12.7912946,12.1679688 12.4944196,12.4648438 12.4944196,12.8320312 C12.4944196,13.1992188 12.7912946,13.4960938 13.1584821,13.4960938 C13.5256696,13.4960938 13.8225446,13.1992188 13.8225446,12.8320312 C13.8225446,12.4648438 13.5256696,12.1679688 13.1584821,12.1679688 Z M17.1428571,3.28125 L13.0022321,3.28125 C13.0022321,2.67773438 12.5119978,2.1875 11.9084821,2.1875 L10.3459821,2.1875 C9.74246652,2.1875 9.25223214,2.67773438 9.25223214,3.28125 L5.11160714,3.28125 C4.76590402,3.28125 4.48660714,3.56054688 4.48660714,3.90625 L4.48660714,7.8125 L2.76785714,7.8125 C2.42215402,7.8125 2.14285714,8.09179688 2.14285714,8.4375 L2.14285714,17.1875 C2.14285714,17.5332031 2.42215402,17.8125 2.76785714,17.8125 L9.33035714,17.8125 C9.67606027,17.8125 9.95535714,17.5332031 9.95535714,17.1875 L9.95535714,16.875 L17.1428571,16.875 C17.4885603,16.875 17.7678571,16.5957031 17.7678571,16.25 L17.7678571,3.90625 C17.7678571,3.56054688 17.4885603,3.28125 17.1428571,3.28125 Z M8.70535714,16.5625 L3.39285714,16.5625 L3.39285714,12.03125 L8.70535714,12.03125 L8.70535714,16.5625 Z M8.70535714,10.78125 L3.39285714,10.78125 L3.39285714,9.0625 L8.70535714,9.0625 L8.70535714,10.78125 Z M9.09598214,5.46875 L9.09598214,4.53125 L10.5022321,4.53125 L10.5022321,3.4375 L11.7522321,3.4375 L11.7522321,4.53125 L13.1584821,4.53125 L13.1584821,5.46875 L9.09598214,5.46875 Z M12.6116071,8.75 L12.6116071,9.84375 C12.6116071,9.9296875 12.5412946,10 12.4553571,10 L11.5178571,10 C11.4319196,10 11.3616071,9.9296875 11.3616071,9.84375 L11.3616071,8.75 C11.3616071,8.6640625 11.4319196,8.59375 11.5178571,8.59375 L12.4553571,8.59375 C12.5412946,8.59375 12.6116071,8.6640625 12.6116071,8.75 Z M13.1584821,14.6289062 C12.1662946,14.6289062 11.3616071,13.8242188 11.3616071,12.8320312 C11.3616071,11.8398438 12.1662946,11.0351562 13.1584821,11.0351562 C14.1506696,11.0351562 14.9553571,11.8398438 14.9553571,12.8320312 C14.9553571,13.8242188 14.1506696,14.6289062 13.1584821,14.6289062 Z M14.9553571,9.84375 C14.9553571,9.9296875 14.8850446,10 14.7991071,10 L13.8616071,10 C13.7756696,10 13.7053571,9.9296875 13.7053571,9.84375 L13.7053571,7.96875 C13.7053571,7.8828125 13.7756696,7.8125 13.8616071,7.8125 L14.7991071,7.8125 C14.8850446,7.8125 14.9553571,7.8828125 14.9553571,7.96875 L14.9553571,9.84375 Z M13.1584821,11.0351562 C12.1662946,11.0351562 11.3616071,11.8398438 11.3616071,12.8320312 C11.3616071,13.8242188 12.1662946,14.6289062 13.1584821,14.6289062 C14.1506696,14.6289062 14.9553571,13.8242188 14.9553571,12.8320312 C14.9553571,11.8398438 14.1506696,11.0351562 13.1584821,11.0351562 Z M13.1584821,13.4960938 C12.7912946,13.4960938 12.4944196,13.1992188 12.4944196,12.8320312 C12.4944196,12.4648438 12.7912946,12.1679688 13.1584821,12.1679688 C13.5256696,12.1679688 13.8225446,12.4648438 13.8225446,12.8320312 C13.8225446,13.1992188 13.5256696,13.4960938 13.1584821,13.4960938 Z" id="形状" fill="#F7B500"></path>
            </g>
        </g>
    </g>
</svg>