<?xml version="1.0" encoding="UTF-8"?>
<svg width="20px" height="20px" viewBox="0 0 20 20" version="1.1" xmlns="http://www.w3.org/2000/svg" xmlns:xlink="http://www.w3.org/1999/xlink">
    <g id="招商页面" stroke="none" stroke-width="1" fill="none" fill-rule="evenodd">
        <g id="1-首页" transform="translate(-1060.000000, -196.000000)" fill-rule="nonzero">
            <g id="佣金待发放（笔）" transform="translate(1060.000000, 196.000000)">
                <rect id="矩形" fill="#000000" opacity="0" x="0" y="0" width="20" height="20"></rect>
                <path d="M9.23076922,14.8717949 C5.83783783,14.8717949 3.07692308,12.1108801 3.07692308,8.71794873 C3.07692308,5.32501734 5.83783783,2.56410256 9.23076922,2.56410256 C12.6237006,2.56410256 15.3846154,5.32501734 15.3846154,8.71794873 C15.3846154,12.1108801 12.6237006,14.8717949 9.23076922,14.8717949 Z" id="路径" fill="#6DD400"></path>
                <path d="M6.74798131,9.67434635 L8.4479388,9.67434635 L8.4479388,8.86652714 L6.74798131,8.86652714 C6.27199321,8.86652714 6.03399916,8.59725407 6.03399916,8.26066273 C6.03399916,7.95773052 6.27199321,7.78943486 6.74798131,7.78943486 L7.97195071,7.78943486 L7.05397366,6.34209209 C6.74798131,5.73622768 7.73395665,5.23134067 8.07394816,5.73622768 C8.41393966,6.30843295 9.09392266,7.41918437 9.09392266,7.41918439 C9.09392266,7.41918441 9.8759031,6.20745557 10.2498938,5.60159116 C10.5558861,5.02938589 11.6098598,5.70256856 11.2698683,6.30843297 L10.2498938,7.823094 L11.4738632,7.823094 C11.9498513,7.823094 12.1538462,7.99138966 12.1538462,8.29432187 C12.1538462,8.59725407 11.9158521,8.90018628 11.4738632,8.90018628 L9.84190396,8.90018628 L9.84190396,9.7080055 L11.4738632,9.7080055 C11.9498513,9.7080055 12.1538462,9.87630116 12.1538462,10.1792334 C12.1538462,10.4821656 11.9158521,10.7177795 11.4738632,10.7177795 L9.84190396,10.7177795 L9.84190396,10.7850978 C9.84190396,11.4582804 9.60390991,11.7948718 9.09392266,11.7948718 C8.61793456,11.7948718 8.41393966,11.4582804 8.41393966,10.7850978 L8.41393966,10.6841204 L6.71398215,10.6841204 C6.23799406,10.6841204 6,10.4485064 6,10.1455742 C6.03399916,9.84264204 6.27199319,9.67434637 6.74798131,9.67434635 L6.74798131,9.67434635 Z" id="路径" fill="#FFFFFF"></path>
                <path d="M19.4871795,14.2580643 C19.4871795,14.2580643 17.7793724,13.8279896 16.2389973,12.9678404 C15.0334864,12.2731045 13.8614619,11.6114512 12.9573287,11.5122032 C12.2541141,11.4129552 11.4839265,11.7768645 11.4169537,12.4716004 C11.283008,13.7287416 11.9862227,14.4234776 11.9862227,14.4234776 C11.9862227,14.4234776 9.20685036,14.4896429 6.39399158,12.5377658 C3.5811328,10.5858887 3.14580941,9.06408616 2.07424417,9.59340876 C1.90681211,9.65957408 1.53846154,10.1888967 1.53846154,10.453558 C1.6724072,12.1407738 5.4898584,17.037008 8.70455415,17.7317439 C11.7853042,18.3933971 16.7412935,18.2279838 18.4491006,18.0294878 C18.8174512,17.9964052 19.4536931,17.7317439 19.4536931,17.7317439 L19.4536931,14.2580643 L19.4871795,14.2580643 Z" id="路径" fill="#FFFFFF"></path>
                <path d="M18.4615385,14.6962894 C18.4615385,14.6962894 16.7313923,14.1925147 15.2341504,13.2857203 C13.7369085,12.378926 12.0733065,11.6400565 12.2396667,12.8827006 C12.4060269,14.1589297 13.9698128,15.4015739 13.9698128,15.4015739 C13.9698128,15.4015739 8.84591837,15.4015739 6.01779483,13.0842105 C3.18967129,10.7668471 2.79040677,9.59137286 1.72570143,10.1287325 C0.660996102,10.6660921 4.3209207,17.2487476 8.04738939,18.088372 C11.7738581,18.9279965 18.4282664,18.088372 18.4282664,18.088372 L18.4282664,14.6962894 L18.4615385,14.6962894 Z" id="路径" fill="#6DD400"></path>
            </g>
        </g>
    </g>
</svg>