<?xml version="1.0" encoding="UTF-8"?>
<svg width="14px" height="14px" viewBox="0 0 14 14" version="1.1" xmlns="http://www.w3.org/2000/svg" xmlns:xlink="http://www.w3.org/1999/xlink">
    <g id="招商页面" stroke="none" stroke-width="1" fill="none" fill-rule="evenodd">
        <g id="1-首页" transform="translate(-585.000000, -600.000000)" fill-rule="nonzero">
            <g id="推荐客户" transform="translate(585.000000, 600.000000)">
                <rect id="矩形" fill="#000000" opacity="0" x="0" y="0" width="14" height="14"></rect>
                <path d="M6.98632812,1.15117187 C8.42050781,1.15117187 9.58671875,2.31738281 9.58671875,3.7515625 C9.58671875,5.18574219 8.42050781,6.35195312 6.98632812,6.35195312 C5.55214844,6.35195312 4.3859375,5.18574219 4.3859375,3.7515625 C4.3859375,2.31738281 5.55214844,1.15117187 6.98632812,1.15117187 Z M9.12460937,6.19746094 C9.51835937,6.31640625 9.87109375,6.47363281 10.1800781,6.66777344 C10.8978516,7.11894531 11.7537109,8.00625 11.7537109,9.67421875 L11.7537109,10.6859375 L2.21894531,10.6859375 L2.21894531,9.67421875 C2.21894531,8.00625 3.07480469,7.11757812 3.79257812,6.66777344 C4.1015625,6.47363281 4.45429687,6.31640625 4.84804687,6.19746094 C5.41953125,6.69785156 6.16875,7.00136719 6.98632812,7.00136719 C7.80390625,7.00136719 8.553125,6.69785156 9.12460937,6.19746094 Z" id="形状" fill="#D4D4D4"></path>
            </g>
        </g>
    </g>
</svg>