<?xml version="1.0" encoding="UTF-8"?>
<svg width="20px" height="20px" viewBox="0 0 20 20" version="1.1" xmlns="http://www.w3.org/2000/svg" xmlns:xlink="http://www.w3.org/1999/xlink">
    <g id="招商页面" stroke="none" stroke-width="1" fill="none" fill-rule="evenodd">
        <g id="1-首页" transform="translate(-300.000000, -200.000000)" fill-rule="nonzero">
            <g id="线索待分配（条）" transform="translate(300.000000, 200.000000)">
                <rect id="矩形" fill="#000000" opacity="0" x="0" y="0" width="20" height="20"></rect>
                <path d="M16.9306122,2.04081633 L2.66122449,2.04081633 C2.31806122,2.04081633 2.04081633,2.31806122 2.04081633,2.66122449 L2.04081633,16.9306122 C2.04081633,17.2737755 2.31806122,17.5510204 2.66122449,17.5510204 L16.9306122,17.5510204 C17.2737755,17.5510204 17.5510204,17.2737755 17.5510204,16.9306122 L17.5510204,2.66122449 C17.5510204,2.31806122 17.2737755,2.04081633 16.9306122,2.04081633 Z M13.944898,11.2247959 C13.944898,12.2969388 13.0782653,13.1655102 12.0119388,13.1655102 L8.02387755,13.1655102 L8.02387755,14.2008163 C8.02387755,14.3113265 7.89785714,14.3714286 7.81255102,14.3035714 L5.69734694,12.6420408 C5.6294898,12.5896939 5.6294898,12.4869388 5.69734694,12.4345918 L7.81255102,10.7730612 C7.89785714,10.7052041 8.02387755,10.7672449 8.02387755,10.8758163 L8.02387755,11.9111224 L12.0119388,11.9111224 C12.3919388,11.9111224 12.7002041,11.6009184 12.7002041,11.2209184 L12.7002041,9.69122449 C12.7002041,9.6194898 12.7583673,9.55938776 12.8320408,9.55938776 L13.815,9.55938776 C13.8867347,9.55938776 13.9468367,9.61755102 13.9468367,9.69122449 L13.9468367,11.2247959 L13.944898,11.2247959 Z M13.8944898,7.15530612 L11.7792857,8.81683673 C11.6939796,8.88469388 11.5679592,8.82265306 11.5679592,8.71408163 L11.5679592,7.67877551 L7.57989796,7.67877551 C7.19989796,7.67877551 6.89163265,7.98897959 6.89163265,8.36897959 L6.89163265,9.89867347 C6.89163265,9.97040816 6.83346939,10.0305102 6.75979592,10.0305102 L5.77683673,10.0305102 C5.70510204,10.0305102 5.645,9.97234694 5.645,9.89867347 L5.645,8.36897959 C5.645,7.29683673 6.51163265,6.42826531 7.57795918,6.42826531 L11.5660204,6.42826531 L11.5660204,5.39295918 C11.5660204,5.28244898 11.6920408,5.22234694 11.7773469,5.29020408 L13.892551,6.95173469 C13.9623469,7.00020408 13.9623469,7.10295918 13.8944898,7.15530612 Z" id="形状" fill="#5292FF"></path>
            </g>
        </g>
    </g>
</svg>