<?xml version="1.0" encoding="UTF-8"?>
<svg width="14px" height="14px" viewBox="0 0 14 14" version="1.1" xmlns="http://www.w3.org/2000/svg" xmlns:xlink="http://www.w3.org/1999/xlink">
    <g id="招商页面" stroke="none" stroke-width="1" fill="none" fill-rule="evenodd">
        <g id="1-首页" transform="translate(-585.000000, -460.000000)" fill-rule="nonzero">
            <g id="资源数量" transform="translate(585.000000, 460.000000)">
                <rect id="矩形" fill="#000000" opacity="0" x="0" y="0" width="14" height="14"></rect>
                <path d="M12.3853516,11.0291016 L11.8357422,7.63847656 C11.8275391,7.58515625 11.7810547,7.546875 11.7277344,7.546875 L8.15117188,7.546875 C8.09785156,7.546875 8.05136719,7.58515625 8.04316406,7.63847656 L7.49355469,11.0291016 C7.4921875,11.0345703 7.4921875,11.0414062 7.4921875,11.046875 C7.4921875,11.1070313 7.54140625,11.15625 7.6015625,11.15625 L12.2773438,11.15625 C12.2828125,11.15625 12.2896484,11.15625 12.2951172,11.1548828 C12.3539063,11.1453125 12.3949219,11.0892578 12.3853516,11.0291016 L12.3853516,11.0291016 Z M5.95683594,7.63847656 C5.94863281,7.58515625 5.90214844,7.546875 5.84882812,7.546875 L2.27226563,7.546875 C2.21894531,7.546875 2.17246094,7.58515625 2.16425781,7.63847656 L1.61464844,11.0291016 C1.61328125,11.0345703 1.61328125,11.0414062 1.61328125,11.046875 C1.61328125,11.1070313 1.6625,11.15625 1.72265625,11.15625 L6.3984375,11.15625 C6.40390625,11.15625 6.41074219,11.15625 6.41621094,11.1548828 C6.47636719,11.1453125 6.51601563,11.0892578 6.50644531,11.0291016 L5.95683594,7.63847656 L5.95683594,7.63847656 Z M4.67578125,6.453125 L9.3515625,6.453125 C9.35703125,6.453125 9.36386719,6.453125 9.36933594,6.45175781 C9.42949219,6.4421875 9.46914062,6.38613281 9.45957031,6.32597656 L8.90996094,2.93535156 C8.90175781,2.88203125 8.85527344,2.84375 8.80195313,2.84375 L5.22539062,2.84375 C5.17207031,2.84375 5.12558594,2.88203125 5.11738281,2.93535156 L4.56777344,6.32597656 C4.56640625,6.33144531 4.56640625,6.33828125 4.56640625,6.34375 C4.56640625,6.40390625 4.615625,6.453125 4.67578125,6.453125 Z" id="形状" fill="#D4D4D4"></path>
            </g>
        </g>
    </g>
</svg>