<?xml version="1.0" encoding="UTF-8"?>
<svg width="103px" height="38px" viewBox="0 0 103 38" version="1.1" xmlns="http://www.w3.org/2000/svg" xmlns:xlink="http://www.w3.org/1999/xlink">
    <title>logo</title>
    <defs>
        <polygon id="path-1" points="0 0.0991730769 34.5958962 0.0991730769 34.5958962 35.3076923 0 35.3076923"></polygon>
    </defs>
    <g id="招商页面" stroke="none" stroke-width="1" fill="none" fill-rule="evenodd">
        <g id="8-岗位详情-编辑岗位" transform="translate(-20.000000, -7.000000)">
            <g id="logo" transform="translate(20.000000, 7.170654)">
                <g id="编组" transform="translate(0.000000, 0.076500)">
                    <mask id="mask-2" fill="white">
                        <use xlink:href="#path-1"></use>
                    </mask>
                    <g id="Clip-2"></g>
                    <path d="M26.6523577,19.9832885 C26.2342038,17.6931346 24.1524346,15.5487115 21.29805,15.4490192 C21.2381654,15.4472885 21.1786269,15.44625 21.1187423,15.44625 C19.73655,15.44625 18.4710115,15.9433269 17.4900115,16.7678654 C17.5228962,16.6304423 17.8468962,15.3444808 18.8071269,13.9840962 C19.5662423,12.9245192 20.78055,11.7448269 22.4784346,11.0265577 C23.7529731,10.4875962 24.88905,10.3349423 25.8755885,10.3311346 C26.6731269,10.3283654 27.3692423,10.4380962 27.9476654,10.5751731 C31.7629731,11.4980192 34.5958962,14.9349808 34.5958962,19.0330962 C34.5958962,23.2167115 31.64355,26.7111346 27.7088192,27.5453654 C26.6938962,31.9906731 22.7158962,35.3078654 17.9628577,35.3078654 C13.2087808,35.3078654 9.22974231,31.9889423 8.21655,27.5415577 C3.54485769,26.7021346 -0.000103846154,22.6168269 -0.000103846154,17.7035192 C-0.000103846154,12.7898654 3.54485769,8.70455769 8.21655,7.86513462 C9.22974231,3.41775 13.2087808,0.0991730769 17.9628577,0.0991730769 C22.8647423,0.0991730769 27.0601269,3.67321154 27.8417423,8.51625 C27.8417423,8.51625 24.8135885,6.41198077 20.2471269,6.41405769 C19.7593962,6.41440385 18.1985885,6.38290385 16.3657038,7.02190385 C14.9513192,7.51448077 13.4067808,8.34767308 11.89305,9.93825 C10.1757808,11.74275 8.89501154,14.4448269 8.91751154,17.5058654 C8.96493462,24.0159808 13.8585115,27.5706346 18.6413192,27.5398269 C20.7268962,27.5259808 23.3711654,26.8741731 25.0520885,25.1326731 C26.1057808,24.1080577 26.7603577,22.6746346 26.7603577,21.0882115 C26.7603577,20.7102115 26.7233192,20.3405192 26.6523577,19.9832885" id="Fill-1" fill="#FFFFFF" mask="url(#mask-2)"></path>
                </g>
                <path d="M25.8753462,10.4078077 C24.8891538,10.4116154 23.7530769,10.5639231 22.4785385,11.1032308 L22.4785385,11.1032308 C20.7806538,11.8211538 19.5663462,13.0011923 18.8068846,14.0607692 L18.8068846,14.0607692 C17.8466538,15.4208077 17.5226538,16.7067692 17.4901154,16.8441923 L17.4901154,16.8441923 C18.4711154,16.0196538 19.7366538,15.5225769 21.1185,15.5225769 L21.1185,15.5225769 C21.1787308,15.5225769 21.2382692,15.5239615 21.2981538,15.5256923 L21.2981538,15.5256923 C24.1525385,15.6253846 26.2343077,17.7698077 26.6524615,20.0599615 L26.6524615,20.0599615 C26.7234231,20.4168462 26.7604615,20.7865385 26.7604615,21.1648846 L26.7604615,21.1648846 C26.7604615,22.0337308 27.8051538,24.4723846 31.1593846,23.9334231 L31.1593846,23.9334231 C33.7275,23.5208077 34.596,21.0008077 34.596,19.1094231 L34.596,19.1094231 C34.596,15.0113077 31.7630769,11.5746923 27.9477692,10.6515 L27.9477692,10.6515 C27.3773077,10.5161538 26.6922692,10.4078077 25.9085769,10.4078077 L25.9085769,10.4078077 C25.8975,10.4078077 25.8864231,10.4078077 25.8753462,10.4078077" id="Fill-3" fill="#FFFFFF"></path>
                <path d="M9.94880769,11.1215769 C7.78776923,13.5782308 6.98573077,17.2076538 7.72996154,20.2884231 L7.72996154,20.2884231 C9.405,27.2243077 16.4423077,27.7691538 18.9861923,27.6081923 L18.9861923,27.6081923 C18.8695385,27.6126923 18.7546154,27.6154615 18.6414231,27.6161538 L18.6414231,27.6161538 C13.8586154,27.6469615 8.96503846,24.0926538 8.91761538,17.5821923 L8.91761538,17.5821923 C8.89511538,14.5211538 10.1758846,11.8194231 11.8931538,10.0145769 L11.8931538,10.0145769 C13.4072308,8.42434615 14.9514231,7.59115385 16.3658077,7.09823077 L16.3658077,7.09823077 C16.6697308,6.99230769 16.9663846,6.90507692 17.2516154,6.83273077 L17.2516154,6.83273077 C17.2543846,6.83203846 17.2561154,6.83134615 17.2581923,6.83030769 L17.2581923,6.83030769 C13.6017692,7.641 11.4525,9.41157692 9.94880769,11.1215769" id="Fill-5" fill="#FFFFFF"></path>
                <path d="M21.4958077,14.8645385 C19.1720769,15.1850769 17.6316923,16.6977692 17.4911538,16.8396923 L17.4911538,16.8396923 C17.4908077,16.8410769 17.4908077,16.8421154 17.4904615,16.8431538 L17.4904615,16.8431538 L17.4991154,16.8365769 L17.4994615,16.8365769 C18.4790769,16.0165385 19.7415,15.5225769 21.1185,15.5225769 L21.1185,15.5225769 C21.1787308,15.5225769 21.2382692,15.5239615 21.2981538,15.5256923 L21.2981538,15.5256923 C24.1525385,15.6253846 26.2343077,17.7698077 26.6524615,20.0599615 L26.6524615,20.0599615 C26.7234231,20.4168462 26.7604615,20.7865385 26.7604615,21.1648846 L26.7604615,21.1648846 C26.7604615,22.7509615 26.1055385,24.1843846 25.0521923,25.2093462 L25.0521923,25.2093462 C23.3712692,26.9505 20.727,27.6026538 18.6414231,27.6161538 L18.6414231,27.6161538 L18.5895,27.6161538 C22.7201538,27.7715769 25.0823077,25.9044231 25.4547692,25.5863077 L25.4547692,25.5863077 C27.0145385,24.2556923 27.8058462,22.5619615 27.9872308,21.1624615 L27.9872308,21.1624615 C28.332,18.4981154 26.9543077,16.74 26.1200769,16.0684615 L26.1200769,16.0684615 C24.9064615,15.0923077 23.6481923,14.7856154 22.5152308,14.7856154 L22.5152308,14.7856154 C22.1614615,14.7856154 21.8198077,14.8157308 21.4958077,14.8645385" id="Fill-7" fill="#FFFFFF"></path>
                <g id="编组" transform="translate(41.538462, 5.268808)" fill="#FFFFFF">
                    <path d="M4.57618846,16.2945692 C6.44091923,16.2945692 7.56176538,17.1492231 8.33057308,18.1136077 L7.20938077,18.9416077 C6.87984231,18.4964538 6.08230385,17.5047231 4.59557308,17.5580308 C2.66091923,17.6279538 1.57053462,19.1053385 1.55426538,20.6415692 C1.53418846,22.5561462 3.06799615,23.7126462 4.58553462,23.7126462 C5.59595769,23.7126462 6.54303462,23.3242615 6.97849615,22.5288 L6.97849615,21.1687615 L4.41834231,21.1687615 L4.41834231,19.9942615 L7.98615,19.9942615 C8.23261154,19.9942615 8.43026538,20.1953769 8.43026538,20.4418385 L8.43026538,22.8039923 C8.43026538,22.8039923 8.44688077,22.9206462 8.34407308,23.1051462 C7.68915,24.1834154 6.22111154,24.9522231 4.59591923,24.9522231 C2.16591923,24.9522231 0.00591923077,23.2723385 0.00591923077,20.6529923 C0.00591923077,18.1053 2.05999615,16.2945692 4.57618846,16.2945692 Z M45.5956615,16.3133654 C47.9730462,16.3133654 49.9004308,18.24075 49.9004308,20.6184808 C49.9004308,22.9962115 47.9730462,24.9235962 45.5956615,24.9235962 C43.2175846,24.9235962 41.2905462,22.9962115 41.2905462,20.6184808 C41.2905462,18.24075 43.2175846,16.3133654 45.5956615,16.3133654 Z M59.9252538,16.5281538 L59.9252538,24.2411538 C59.9224846,24.4976538 59.7182538,24.7001538 59.4662538,24.7001538 L58.7054077,24.7001538 C58.6171385,24.7001538 58.5399462,24.6548077 58.4959846,24.5866154 L53.8720615,19.1153077 L53.8523308,24.7001538 L52.5307154,24.7001538 L52.5307154,16.9899231 C52.5307154,16.7348077 52.7349462,16.5298846 52.9866,16.5281538 L53.7207923,16.5291923 C53.8225615,16.5291923 53.8983692,16.5662308 53.9482154,16.6261154 L58.5839077,22.1119615 L58.6032923,16.5281538 L59.9252538,16.5281538 Z M17.9779846,16.5281538 L17.9779846,17.7351923 L13.0446,17.7351923 L13.0446,19.9481538 L17.9779846,19.9481538 L17.9779846,21.1551923 L13.0446,21.1551923 L13.0446,23.4931154 L17.9779846,23.4931154 L17.9779846,24.7001538 L11.8351385,24.7001538 C11.5786385,24.6977308 11.3761385,24.4941923 11.3761385,24.2425385 L11.3761385,16.9871538 C11.3761385,16.7348077 11.5800231,16.5298846 11.8320231,16.5281538 L17.9779846,16.5281538 Z M38.2660615,16.5281538 C38.5204846,16.5295385 38.7226385,16.7323846 38.7250615,16.983 L38.7250615,17.5624615 C38.7236769,17.6185385 38.7330231,17.7393462 38.6205231,17.8622308 L33.3981,23.4931154 L38.9680615,23.4931154 L38.9680615,24.7001538 L31.8286385,24.7001538 C31.5780231,24.7001538 31.3737923,24.4983462 31.3699846,24.2484231 L31.3699846,23.6848846 C31.3699846,23.5588846 31.4215615,23.4405 31.4835231,23.3570769 L36.7083692,17.7351923 L31.4277923,17.7351923 L31.4277923,16.5281538 L38.2660615,16.5281538 Z M28.4550231,16.5281538 L28.4550231,24.2411538 C28.4522538,24.4976538 28.2480231,24.7001538 27.9960231,24.7001538 L27.2351769,24.7001538 C27.1469077,24.7001538 27.0697154,24.6548077 27.0254077,24.5866154 L22.4014846,19.1153077 L22.3821,24.7001538 L21.0601385,24.7001538 L21.0601385,16.9899231 C21.0601385,16.7348077 21.2643692,16.5298846 21.5160231,16.5281538 L22.2505615,16.5291923 C22.3523308,16.5291923 22.4277923,16.5662308 22.4776385,16.6261154 L27.1136769,22.1119615 L27.1330615,16.5281538 L28.4550231,16.5281538 Z M45.5956615,17.6616346 C44.0660077,17.6616346 42.8260846,18.9853269 42.8260846,20.6184808 C42.8260846,22.2516346 44.0660077,23.5753269 45.5956615,23.5753269 C47.1249692,23.5753269 48.3648923,22.2516346 48.3648923,20.6184808 C48.3648923,18.9853269 47.1249692,17.6616346 45.5956615,17.6616346 Z M23.0735077,0.193015385 L23.0735077,1.28686154 L27.5922,1.28686154 C28.1266615,1.2924 28.5489692,1.72682308 28.5489692,2.26163077 L28.5489692,9.87909231 C28.5316615,10.4017846 28.1093538,10.8195923 27.5922,10.8195923 L23.0735077,10.8195923 L23.0735077,12.3018231 L21.3230077,12.3018231 L21.3230077,10.8195923 L16.7804308,10.8195923 C16.2816231,10.7988231 15.8807769,10.3879385 15.8631231,9.87909231 L15.8631231,2.28620769 C15.8631231,1.72301538 16.2916615,1.28686154 16.8205846,1.28686154 L21.3230077,1.28686154 L21.3230077,0.193015385 L23.0735077,0.193015385 Z M59.0560269,0.664338462 C59.6624885,0.664338462 60.0127962,1.16556923 60.0127962,1.60345385 L60.0131423,11.2331077 C60.0131423,11.6021077 59.7265269,12.1884923 59.0515269,12.1884923 L48.7607192,12.1884923 C48.2127577,12.1884923 47.6917962,11.8066846 47.6917962,11.1413769 L47.69145,1.64153077 C47.69145,0.999761538 48.2203731,0.664338462 48.64545,0.664338462 L59.0560269,0.664338462 Z M38.8324038,8.31762692 L38.8324038,8.70185769 L44.5640192,8.70185769 L44.5640192,9.78393462 L41.1087115,9.78393462 C42.0364038,10.3917808 43.1108654,10.7690885 44.1420577,11.0103577 L44.1420577,12.1848577 C42.18525,11.8553192 40.1481346,10.9310885 38.8459038,9.78393462 L38.8324038,12.1848577 L37.2445962,12.1848577 L37.2445962,9.78393462 C35.9195192,10.9310885 33.8820577,11.8553192 31.9255962,12.1848577 L31.9255962,11.0103577 C32.9560962,10.7690885 34.0309038,10.3917808 34.95825,9.78393462 L31.4769808,9.78393462 L31.4769808,8.70185769 L37.2445962,8.70185769 L37.2445962,8.31762692 L38.8324038,8.31762692 Z M12.74895,0.562084615 L12.74895,1.89166154 L7.41229615,1.89200769 L7.41229615,5.28846923 L12.74895,5.28846923 L12.74895,6.61804615 L7.41229615,6.61804615 L7.41229615,10.7009308 L12.74895,10.7009308 L12.74895,12.0308538 L1.25595,12.0308538 C0.72045,12.0308538 0.284296154,11.5998923 0.278065385,11.0661231 L0.278065385,5.28846923 L2.07564231,5.28846923 L2.07564231,10.3032 C2.08914231,10.5361615 2.26533462,10.7009308 2.47648846,10.7009308 L5.61471923,10.7009308 L5.61471923,1.89200769 L0.278065385,1.89166154 L0.278065385,0.562084615 L12.74895,0.562084615 Z M58.27545,1.8378 L49.4890269,1.8378 C49.3723731,1.8378 49.2796038,1.92987692 49.2796038,2.04653077 L49.3086808,10.7990308 C49.3086808,10.9208769 49.40145,11.0150308 49.5177577,11.0150308 L58.2141808,11.0150308 C58.3356808,11.0150308 58.42845,10.9233 58.4319115,10.8094154 L58.4876423,2.0493 C58.4876423,1.93264615 58.3921038,1.8378 58.27545,1.8378 Z M56.5567962,2.5083 L56.5567962,3.53568462 L57.5983731,3.53568462 L57.5983731,4.70914615 L56.5567962,4.70914615 L56.55645,9.33618462 C56.55645,9.86683846 56.2906038,10.3698 55.5356423,10.3698 L54.0935654,10.3701462 L53.7955269,9.26453077 L54.8755269,9.26453077 C55.0056808,9.26453077 55.1157577,9.19737692 55.1157577,9.01287692 L55.1157577,4.76695385 C54.4137577,6.86049231 52.6116808,9.04783846 50.2595654,10.2773769 L50.2595654,9.13264615 C51.7601423,7.87299231 52.9093731,6.29141538 53.49645,4.70914615 L50.2595654,4.70914615 L50.2595654,3.53568462 L55.1157577,3.53568462 L55.1157577,2.5083 L56.5567962,2.5083 Z M26.4215077,2.62613077 L23.0735077,2.62613077 L23.0735077,9.48066923 L26.3848154,9.48066923 C26.6108538,9.48066923 26.7856615,9.30101538 26.7856615,9.08155385 L26.7856615,3.02351538 C26.7794308,2.80578462 26.6208923,2.63963077 26.4215077,2.62613077 Z M21.3230077,2.62613077 L18.0182769,2.62613077 C17.8067769,2.62613077 17.6333538,2.79713077 17.6267769,3.01070769 L17.6267769,9.08328462 C17.6406231,9.31659231 17.8116231,9.48066923 18.0182769,9.48066923 L21.3230077,9.48066923 L21.3230077,2.62613077 Z M35.1389423,0.671780769 C35.0254038,0.891588462 34.8921346,1.12385769 34.7408654,1.36408846 L38.2674808,1.36408846 L38.2674808,0.671780769 L39.8674038,0.671780769 L39.8674038,1.36408846 L44.2666731,1.36408846 L44.2666731,2.44651154 L39.8674038,2.44651154 L39.8674038,3.20424231 L44.2666731,3.20424231 L44.2666731,4.28597308 L39.8674038,4.28597308 L39.8674038,5.04405 L44.2666731,5.04405 L44.2666731,6.12612692 L39.8674038,6.12612692 L39.8674038,6.88385769 L44.2666731,6.88385769 L44.2666731,7.96558846 L33.1014808,7.96558846 C32.6590962,7.96558846 32.5386346,7.78212692 32.5386346,7.40066538 L32.5386346,4.01597308 C32.2000962,4.32993462 31.8439038,4.62347308 31.4769808,4.88343462 L31.4769808,3.26239615 C32.3534423,2.43197308 33.1464808,1.34193462 33.4815577,0.671780769 L35.1389423,0.671780769 Z M38.2674808,6.12612692 L34.0880192,6.12612692 L34.0880192,6.74297308 C34.0925192,6.86031923 34.1309423,6.88385769 34.2434423,6.88385769 L38.2674808,6.88385769 L38.2674808,6.12612692 Z M38.2674808,4.28631923 L34.0880192,4.28631923 L34.0880192,5.04405 L38.2674808,5.04405 L38.2674808,4.28631923 Z M38.2674808,2.44651154 L34.0880192,2.44651154 L34.0880192,3.20424231 L38.2674808,3.20424231 L38.2674808,2.44651154 Z" id="形状结合"></path>
                </g>
            </g>
        </g>
    </g>
</svg>