<?xml version="1.0" standalone="no"?><!DOCTYPE svg PUBLIC "-//W3C//DTD SVG 1.1//EN" "http://www.w3.org/Graphics/SVG/1.1/DTD/svg11.dtd"><svg t="1584956408139" class="icon" viewBox="0 0 1024 1024" version="1.1" xmlns="http://www.w3.org/2000/svg" p-id="2690" xmlns:xlink="http://www.w3.org/1999/xlink" width="200" height="200"><defs><style type="text/css"></style></defs><path d="M441.517216 873.692183c4.991064-4.095232 24.571393-19.516341 28.090733-22.523777a10.749984 10.749984 0 0 1 2.175592-1.5997V381.048553l275.148409-304.26295H106.220084l275.148409 304.26295v542.042367l60.084735-49.398737zM304.582891 961.099794V410.61101L20.412173 96.301943a81.648691 81.648691 0 0 1-17.404737-28.410673 49.718678 49.718678 0 0 1 1.087796-36.473161 49.65469 49.65469 0 0 1 26.235081-25.275261C39.544585 2.047616 50.550522 0 63.028182 0h727.159658c12.413672 0 23.483597 2.047616 32.697869 6.142848 12.221708 5.311004 21.308005 14.07736 26.235081 25.275261a49.782666 49.782666 0 0 1 1.151784 36.473161c-3.1994 9.5982-9.086296 19.196401-17.468725 28.410673L548.569143 410.61101v439.597576c0 42.999938-25.019309 55.41361-58.229082 82.736487l-85.551959 70.386802c-14.717241 12.15772-29.946385 20.476161-44.791601 20.476161-26.107105 0-55.349622-18.428545-55.349622-62.708242z m373.689933-142.053365h307.142411a38.392801 38.392801 0 0 1 0 76.785602h-307.142411a38.392801 38.392801 0 0 1 0-76.785602z m0-371.130413h307.142411a38.392801 38.392801 0 0 1 0 76.785602h-307.142411a38.392801 38.392801 0 0 1 0-76.785602z m0 185.565206h307.142411a38.392801 38.392801 0 0 1 0 76.785603h-307.142411a38.392801 38.392801 0 0 1 0-76.785603z" p-id="2691"></path></svg>