<?xml version="1.0" standalone="no"?><!DOCTYPE svg PUBLIC "-//W3C//DTD SVG 1.1//EN" "http://www.w3.org/Graphics/SVG/1.1/DTD/svg11.dtd"><svg t="1606471124348" class="icon" viewBox="0 0 1024 1024" version="1.1" xmlns="http://www.w3.org/2000/svg" p-id="1904" xmlns:xlink="http://www.w3.org/1999/xlink" width="36" height="36"><defs><style type="text/css"></style></defs><path d="M744 272h-80a8 8 0 0 0-8 8v464c0 4.416 3.584 8 8 8h80a8 8 0 0 0 8-8v-464a8 8 0 0 0-8-8z m-192 280h-80a8 8 0 0 0-8 8v184c0 4.416 3.584 8 8 8h80a8 8 0 0 0 8-8V560a8 8 0 0 0-8-8z m-192-72h-80a8 8 0 0 0-8 8v256c0 4.416 3.584 8 8 8h80a8 8 0 0 0 8-8v-256a8 8 0 0 0-8-8zM144 912h736a32 32 0 0 0 32-32V144a32 32 0 0 0-32-32H144a32 32 0 0 0-32 32v736a32 32 0 0 0 32 32z m40-728h656v656H184V184z" p-id="1905" fill="#eaf0f8"></path></svg>