<?xml version="1.0" standalone="no"?><!DOCTYPE svg PUBLIC "-//W3C//DTD SVG 1.1//EN" "http://www.w3.org/Graphics/SVG/1.1/DTD/svg11.dtd"><svg t="1605702175793" class="icon" viewBox="0 0 1024 1024" version="1.1" xmlns="http://www.w3.org/2000/svg" p-id="6201" xmlns:xlink="http://www.w3.org/1999/xlink" width="200" height="200"><defs><style type="text/css"></style></defs><path d="M512 0c282.7776 0 512 229.2224 512 512s-229.2224 512-512 512S0 794.7776 0 512 229.2224 0 512 0z m199.68 234.496H345.4976v301.6704c-1.2288 83.5584-20.8896 152.3712-59.5968 206.4384l44.8512 41.1648c38.7072-52.224 62.0544-117.3504 70.0416-195.9936h251.904v107.52c0 15.9744-6.7584 24.576-19.6608 24.576-23.3472 0-48.5376-1.2288-75.5712-2.4576l15.9744 57.1392h78.6432c39.3216 0 59.5968-19.6608 59.5968-58.9824V234.496z m-58.9824 202.752v96.4608h-248.832V437.248h248.832z m0-146.8416v92.16h-248.832v-92.16h248.832z" fill="#9D82FF" p-id="6202"></path></svg>