<?xml version="1.0" standalone="no"?><!DOCTYPE svg PUBLIC "-//W3C//DTD SVG 1.1//EN" "http://www.w3.org/Graphics/SVG/1.1/DTD/svg11.dtd"><svg t="1605784727406" class="icon" viewBox="0 0 1024 1024" version="1.1" xmlns="http://www.w3.org/2000/svg" p-id="1648" xmlns:xlink="http://www.w3.org/1999/xlink" width="200" height="200"><defs><style type="text/css"></style></defs><path d="M469.3504 145.5104L286.5664 328.2944a42.7008 42.7008 0 0 1-60.3136-60.416L480.4096 14.0288a43.008 43.008 0 0 1 26.9312-13.7216h0.6144a42.7008 42.7008 0 0 1 34.0992 12.288l1.9456 1.7408H543.7952L797.7472 267.9808a42.8032 42.8032 0 0 1-60.416 60.416L554.8544 145.6128v536.8832c0 23.552-19.2512 42.7008-42.7008 42.7008a42.8032 42.8032 0 0 1-42.7008-42.7008V145.5104zM896.0512 1024h-768C57.3952 1024 0.0512 966.656 0.0512 896v-256a42.7008 42.7008 0 1 1 85.2992 0v256c0 23.552 19.1488 42.7008 42.7008 42.7008h768c23.552 0 42.7008-19.0464 42.7008-42.7008v-256a42.7008 42.7008 0 1 1 85.2992 0v256C1024.0512 966.656 966.7072 1024 896.0512 1024z" p-id="1649" fill="#ffffff"></path></svg>