<?xml version="1.0" standalone="no"?><!DOCTYPE svg PUBLIC "-//W3C//DTD SVG 1.1//EN" "http://www.w3.org/Graphics/SVG/1.1/DTD/svg11.dtd"><svg t="1605702212402" class="icon" viewBox="0 0 1024 1024" version="1.1" xmlns="http://www.w3.org/2000/svg" p-id="6576" xmlns:xlink="http://www.w3.org/1999/xlink" width="200" height="200"><defs><style type="text/css"></style></defs><path d="M512 0c282.7776 0 512 229.2224 512 512s-229.2224 512-512 512S0 794.7776 0 512 229.2224 0 512 0z m171.3152 277.376c-53.1456 0-91.2128 14.1824-114.176 42.5472-23.0144 28.3648-34.5088 80.4608-34.5088 156.2112v91.7504c0 70.9632 11.5968 120.2432 34.7904 147.84 23.1936 27.5968 61.5424 41.3696 115.072 41.3696 55.296 0 93.696-14.3872 115.072-43.1616 21.632-28.9792 32.4352-77.4656 32.4352-145.408V476.16c0-68.7616-9.9072-119.04-29.7216-150.8096-19.84-32-59.4944-47.9744-118.9632-47.9744z m-349.1328-0.0512c-49.3824 0-85.4528 14.1312-108.288 42.24-22.5792 28.032-33.8944 78.2848-33.8944 150.8608v97.4336c0 67.584 10.8032 116.0192 32.4352 145.408 21.76 29.2096 60.6464 43.8016 116.5568 43.8016 47.3856 0 80.768-15.3856 100.224-46.1568 19.456-30.7968 29.1584-72.96 29.1584-126.5408H385.024c0 37.7856-3.584 64.4608-10.752 80.0512-7.0912 15.4368-18.2016 23.0912-33.28 23.0912-19.84 0-34.9952-7.2704-45.4912-21.8624-10.3168-14.592-15.4624-39.0656-15.4624-73.472V442.88c0-63.9744 20.096-95.9488 60.3904-95.9488 16.0256 0 26.9312 6.912 32.6912 20.6848 5.7344 13.7984 8.6272 34.8928 8.6272 63.2576h83.8656c0-52.352-10.2656-91.0336-30.8992-116.0192s-54.144-37.504-100.5312-37.504z m349.1328 69.5808c40.448 0 60.672 34.0736 60.672 102.2464v146.6112c0 61.184-20.736 91.7504-62.1568 91.7504-39.4752 0-59.1872-31.744-59.1872-95.3088v-149.3504c0-63.9744 20.224-95.9488 60.672-95.9488z" fill="#9D82FF" p-id="6577"></path></svg>