<?xml version="1.0" standalone="no"?><!DOCTYPE svg PUBLIC "-//W3C//DTD SVG 1.1//EN" "http://www.w3.org/Graphics/SVG/1.1/DTD/svg11.dtd"><svg t="1605702160324" class="icon" viewBox="0 0 1024 1024" version="1.1" xmlns="http://www.w3.org/2000/svg" p-id="6076" xmlns:xlink="http://www.w3.org/1999/xlink" width="200" height="200"><defs><style type="text/css"></style></defs><path d="M512 0c282.7776 0 512 229.2224 512 512s-229.2224 512-512 512S0 794.7776 0 512 229.2224 0 512 0z m-5.0176 149.3248h-4.0192c-48.8448 0-88.5248 38.5024-88.5248 85.8112V605.952c-41.3696 28.4672-65.792 74.0608-65.792 123.3408 0 83.5072 70.0928 151.5008 156.3392 151.5008 86.1696 0 156.3392-67.9936 156.3392-151.5008 0-49.28-24.4224-94.8736-65.792-123.3152V235.136c0-47.3088-39.7056-85.8112-88.5504-85.8112z m-4.0192 25.088v0.0256h4.1728c34.4832 0 62.6176 27.1872 62.6176 60.6464v384.256l5.9392 3.7376c37.4784 23.5264 59.8272 63.1296 59.8272 106.1888 0 69.7344-58.5216 126.464-130.4832 126.464-71.936 0-130.432-56.7296-130.432-126.464 0-43.0592 22.3488-82.7648 59.8272-106.1888l5.9648-3.7376V235.0848c0-33.3824 28.032-60.672 62.5664-60.672z m0.1536 179.9168c-15.5136 0-28.16 12.1856-28.16 27.2896v286.3872c-28.0064 10.8288-47.7952 37.3248-47.744 68.3008l0.128 4.3008c2.304 38.5792 35.328 69.1968 75.776 69.1968 41.9584 0 75.9296-32.9216 75.9296-73.4976 0-30.976-19.7632-57.472-47.7696-68.3008V381.6192c0-15.0272-12.544-27.2896-28.16-27.2896z m-143.872 109.0048h-73.216a8.576 8.576 0 0 0-8.704 8.448 8.4992 8.4992 0 0 0 8.704 8.3712h73.216a8.576 8.576 0 0 0 8.704-8.3968 8.4992 8.4992 0 0 0-8.704-8.4224z m0-56.6784h-49.3056a8.576 8.576 0 0 0-8.704 8.4224 8.4992 8.4992 0 0 0 8.704 8.4224h49.3056a8.6528 8.6528 0 0 0 8.704-8.448 8.4992 8.4992 0 0 0-8.704-8.3968z m0-56.704h-73.216a8.576 8.576 0 0 0-8.704 8.448 8.4992 8.4992 0 0 0 8.704 8.3968h73.216a8.576 8.576 0 0 0 8.704-8.4224 8.4992 8.4992 0 0 0-8.704-8.4224z m0-56.576h-49.3056a8.576 8.576 0 0 0-8.704 8.3968 8.4992 8.4992 0 0 0 8.704 8.3968h49.3056a8.6528 8.6528 0 0 0 8.704-8.3968 8.4992 8.4992 0 0 0-8.704-8.4224z m0-56.704h-73.216a8.576 8.576 0 0 0-8.704 8.4224 8.4992 8.4992 0 0 0 8.704 8.3968h73.216a8.6528 8.6528 0 0 0 8.704-8.3968 8.4992 8.4992 0 0 0-8.704-8.448z" fill="#FFA940" p-id="6077"></path></svg>