<?xml version="1.0" standalone="no"?><!DOCTYPE svg PUBLIC "-//W3C//DTD SVG 1.1//EN" "http://www.w3.org/Graphics/SVG/1.1/DTD/svg11.dtd"><svg t="1605702190872" class="icon" viewBox="0 0 1024 1024" version="1.1" xmlns="http://www.w3.org/2000/svg" p-id="6326" xmlns:xlink="http://www.w3.org/1999/xlink" width="200" height="200"><defs><style type="text/css"></style></defs><path d="M512 0c282.773333 0 512 229.226667 512 512S794.773333 1024 512 1024 0 794.773333 0 512 229.226667 0 512 0z m90.922667 298.666667h-181.781334c-41.856 0-63.402667 30.933333-68.864 47.829333l-36.266666 103.402667c-0.938667-0.426667-1.92-0.832-2.965334-1.216l-28.885333-10.517334c-12.864-4.672-21.610667-0.597333-26.282667 12.266667l-0.874666 2.688c-3.178667 11.370667 1.194667 19.242667 13.12 23.573333l15.616 5.674667a60.16 60.16 0 0 0-19.776 44.501333v109.44c0.085333 20.693333 16.853333 37.461333 37.589333 37.525334l13.653333-0.021334v14.421334a20.501333 20.501333 0 1 0 41.024 0l-0.021333-14.421334h307.562667v14.421334a20.501333 20.501333 0 1 0 41.002666 0v-14.421334h13.674667c20.693333 0 37.589333-16.896 37.589333-37.504v-109.482666a59.754667 59.754667 0 0 0-19.690666-44.501334l15.530666-5.632 2.624-1.066666c9.92-4.48 13.44-12.010667 10.496-22.506667l-0.853333-2.688-1.066667-2.624c-4.906667-10.773333-13.290667-13.973333-25.237333-9.642667l-28.885333 10.517334-1.472 0.576-1.386667 0.597333-36.330667-103.36C666.026667 329.898667 644.842667 298.666667 602.922667 298.666667z m89.493333 195.776l13.653333 4.053333c12.458667 3.712 21.269333 15.296 21.226667 28.181333v109.610667c0 3.648-3.157333 6.784-6.826667 6.784H303.530667a6.912 6.912 0 0 1-6.826667-6.784v-109.418667c0-12.992 8.874667-24.64 21.397333-28.394666l13.418667-4.032h360.874667z m-313.685333 40.021333a30.762667 30.762667 0 1 0 0 61.504 30.762667 30.762667 0 0 0 0-61.504z m266.538666 0a30.762667 30.762667 0 1 0 0 61.504 30.762667 30.762667 0 0 0 0-61.504z m-42.346666-205.034667c20.181333 0 34.837333 12.864 39.829333 27.264l37.589333 106.986667H343.744l37.546667-106.986667c4.629333-14.293333 19.52-27.264 39.850666-27.264z m-34.538667 30.741334h-112.768c-10.24 0-15.36 5.12-15.36 15.381333l0.085333 2.453333c0.789333 8.618667 5.866667 12.928 15.274667 12.928h112.768c10.24 0 15.36-5.12 15.36-15.36l-0.085333-2.474666c-0.789333-8.618667-5.866667-12.928-15.274667-12.928z" fill="#5292FF" p-id="6327"></path></svg>