<?xml version="1.0" standalone="no"?><!DOCTYPE svg PUBLIC "-//W3C//DTD SVG 1.1//EN" "http://www.w3.org/Graphics/SVG/1.1/DTD/svg11.dtd"><svg t="1606098693306" class="icon" viewBox="0 0 1024 1024" version="1.1" xmlns="http://www.w3.org/2000/svg" p-id="1654" xmlns:xlink="http://www.w3.org/1999/xlink" width="48" height="48"><defs><style type="text/css"></style></defs><path d="M384 0H64A64 64 0 0 0 0 64V384c0 35.328 28.672 64 64 64H384a64 64 0 0 0 64-64V64A64 64 0 0 0 384 0z m576 0H640a64 64 0 0 0-64 64V384c0 35.328 28.672 64 64 64h320A64 64 0 0 0 1024 384V64A64 64 0 0 0 960 0zM384 576H64A64 64 0 0 0 0 640v320c0 35.328 28.672 64 64 64H384a64 64 0 0 0 64-64V640a64 64 0 0 0-64-64z m576 0H640a64 64 0 0 0-64 64v320c0 35.328 28.672 64 64 64h320a64 64 0 0 0 64-64V640a64 64 0 0 0-64-64z" p-id="1655" fill="#ffffff"></path></svg>