<?xml version="1.0" standalone="no"?><!DOCTYPE svg PUBLIC "-//W3C//DTD SVG 1.1//EN" "http://www.w3.org/Graphics/SVG/1.1/DTD/svg11.dtd"><svg t="1605940764591" class="icon" viewBox="0 0 1194 1024" version="1.1" xmlns="http://www.w3.org/2000/svg" p-id="2018" xmlns:xlink="http://www.w3.org/1999/xlink" width="233.203125" height="200"><defs><style type="text/css"></style></defs><path d="M64 896a64 64 0 1 0 0 128h1066.666667a64 64 0 1 0 0-128H64z m1117.354667-572.672a13.312 13.312 0 0 0-8.533334 3.157333l-203.093333 171.093334a26.624 26.624 0 0 0 0 40.789333l203.093333 170.666667a13.312 13.312 0 0 0 21.845334-10.24V336.64a13.312 13.312 0 0 0-13.312-13.312zM64 448a64 64 0 1 0 0 128h668.416a64 64 0 1 0 0-128H64zM64 0a64 64 0 1 0 0 128h1066.666667a64 64 0 1 0 0-128H64z" p-id="2019" fill="#ffffff"></path></svg>