<?xml version="1.0" encoding="UTF-8"?>
<svg width="186px" height="104px" viewBox="0 0 186 104" version="1.1" xmlns="http://www.w3.org/2000/svg" xmlns:xlink="http://www.w3.org/1999/xlink">
    <title>项目视频</title>
    <defs>
        <rect id="path-1" x="0" y="0" width="186" height="104" rx="2"></rect>
    </defs>
    <g id="招商页面" stroke="none" stroke-width="1" fill="none" fill-rule="evenodd">
        <g id="26.1-项目详情-无图片" transform="translate(-310.000000, -1537.000000)">
            <g id="项目视频" transform="translate(310.000000, 1537.000000)">
                <g id="编组-2">
                    <mask id="mask-2" fill="white">
                        <use xlink:href="#path-1"></use>
                    </mask>
                    <rect stroke="#EFEFEF" x="0.5" y="0.5" width="185" height="103" rx="2"></rect>
                </g>
                <g id="视频" transform="translate(77.000000, 36.000000)" fill-rule="nonzero">
                    <rect id="矩形" fill="#000000" opacity="0" x="0" y="0" width="32" height="32"></rect>
                    <path d="M27.422623,29 L5.57737698,29 C3.60788243,29 2,27.4487354 2,25.534675 L2,9.46532499 C2,7.55751972 3.60142507,6 5.57737698,6 L27.422623,6 C29.3921176,6 31,7.55126462 31,9.46532499 L31,25.534675 C30.9935426,27.4424803 29.3921176,29 27.422623,29 L27.422623,29 Z M5.57737698,7.25727495 C4.31819194,7.25727495 3.29147183,8.25183574 3.29147183,9.47158009 L3.29147183,25.5409301 C3.29147183,26.7606745 4.31819194,27.7552352 5.57737698,27.7552352 L27.422623,27.7552352 C28.6818081,27.7552352 29.7085282,26.7606745 29.7085282,25.5409301 L29.7085282,9.46532499 C29.7085282,8.24558064 28.6818081,7.25101985 27.422623,7.25101985 L5.57737698,7.25101985 L5.57737698,7.25727495 Z" id="形状" fill="#DEDEDE"></path>
                    <path d="M7.6031746,29 C7.27142857,29 7,28.718444 7,28.3743199 L7,6.62568009 C7,6.28155604 7.27142857,6 7.6031746,6 C7.93492063,6 8.20634921,6.28155604 8.20634921,6.62568009 L8.20634921,28.3743199 C8.20634921,28.718444 7.94095238,29 7.6031746,29 Z M25.3968254,29 C25.0650794,29 24.7936508,28.718444 24.7936508,28.3743199 L24.7936508,6.62568009 C24.7936508,6.28155604 25.0650794,6 25.3968254,6 C25.7285714,6 26,6.28155604 26,6.62568009 L26,28.3743199 C26,28.718444 25.7285714,29 25.3968254,29 Z" id="形状" fill="#DEDEDE"></path>
                    <path d="M7.42528736,13.2854847 L3.57471264,13.2854847 C3.25862069,13.2854847 3,12.9962507 3,12.6427424 C3,12.2892341 3.25862069,12 3.57471264,12 L7.42528736,12 C7.74137931,12 8,12.2892341 8,12.6427424 C8,12.9962507 7.74712644,13.2854847 7.42528736,13.2854847 Z M7.42528736,18.3245849 L3.57471264,18.3245849 C3.25862069,18.3245849 3,18.0353508 3,17.6818425 C3,17.3283342 3.25862069,17.0391002 3.57471264,17.0391002 L7.42528736,17.0391002 C7.74137931,17.0391002 8,17.3283342 8,17.6818425 C8,18.0353508 7.74712644,18.3245849 7.42528736,18.3245849 Z M7.42528736,24 L3.57471264,24 C3.25862069,24 3,23.7107659 3,23.3572576 C3,23.0037493 3.25862069,22.7145153 3.57471264,22.7145153 L7.42528736,22.7145153 C7.74137931,22.7145153 8,23.0037493 8,23.3572576 C8,23.7107659 7.74712644,24 7.42528736,24 Z" id="形状" fill="#DEDEDE"></path>
                    <path d="M29.4252874,13.2854847 L25.5747126,13.2854847 C25.2586207,13.2854847 25,12.9962507 25,12.6427424 C25,12.2892341 25.2586207,12 25.5747126,12 L29.4252874,12 C29.7413793,12 30,12.2892341 30,12.6427424 C30,12.9962507 29.7413793,13.2854847 29.4252874,13.2854847 Z M29.4252874,18.3245849 L25.5747126,18.3245849 C25.2586207,18.3245849 25,18.0353508 25,17.6818425 C25,17.3283342 25.2586207,17.0391002 25.5747126,17.0391002 L29.4252874,17.0391002 C29.7413793,17.0391002 30,17.3283342 30,17.6818425 C30,18.0353508 29.7413793,18.3245849 29.4252874,18.3245849 Z M29.4252874,24 L25.5747126,24 C25.2586207,24 25,23.7107659 25,23.3572576 C25,23.0037493 25.2586207,22.7145153 25.5747126,22.7145153 L29.4252874,22.7145153 C29.7413793,22.7145153 30,23.0037493 30,23.3572576 C30,23.7107659 29.7413793,24 29.4252874,24 Z" id="形状" fill="#DEDEDE"></path>
                    <path d="M13.6314128,22 C13.5240726,22 13.4104183,21.9748691 13.3157064,21.9183246 C13.1199684,21.8052356 13,21.5979058 13,21.3717277 L13,13.6314136 C13,13.4052356 13.1199684,13.1979058 13.3157064,13.0848168 C13.5114444,12.9717277 13.7513812,12.9717277 13.9471192,13.0848168 L20.6842936,16.9549738 C20.8800316,17.0680628 21,17.2753927 21,17.5015707 C21,17.7277487 20.8800316,17.9350785 20.6842936,18.0481675 L13.9471192,21.9120419 C13.8460931,21.9685864 13.738753,22 13.6314128,22 L13.6314128,22 Z M14.2628256,14.7183246 L14.2628256,20.2848168 L19.1057616,17.5015707 L14.2628256,14.7183246 L14.2628256,14.7183246 Z" id="形状" fill="#DEDEDE"></path>
                </g>
            </g>
        </g>
    </g>
</svg>