<?xml version="1.0" encoding="UTF-8"?>
<svg width="14px" height="14px" viewBox="0 0 14 14" version="1.1" xmlns="http://www.w3.org/2000/svg" xmlns:xlink="http://www.w3.org/1999/xlink">
    <g id="招商页面" stroke="none" stroke-width="1" fill="none" fill-rule="evenodd">
        <g id="16-系统配置项管理--" transform="translate(-734.000000, -227.000000)" fill="#BFBFBF" fill-rule="nonzero">
            <path d="M741,227 C744.859815,227 748,230.140185 748,234 C748,237.859815 744.859815,241 741,241 C737.140185,241 734,237.859815 734,234 C734,230.140185 737.140185,227 741,227 Z M741.296856,236.56236 L740.52623,236.56236 L740.397396,236.691194 L740.397396,237.530787 L740.52623,237.659621 L741.296856,237.659621 L741.42569,237.530787 L741.42569,236.691194 L741.296856,236.56236 Z M741.297709,230.345059 C739.831894,230.267007 738.910566,230.938708 738.591107,232.315687 L738.591107,232.315687 L738.574672,232.38591 L738.661763,232.538262 L739.358925,232.755657 L739.523252,232.659658 L739.541244,232.575699 C739.748949,231.619127 740.276834,231.177027 741.174803,231.202204 C741.962781,231.263293 742.368103,231.620121 742.447729,232.318909 C742.504533,232.749713 742.187953,233.200883 741.47878,233.659424 C740.8081,234.131788 740.464863,234.719849 740.464863,235.403319 L740.464863,235.403319 L740.464863,235.823115 L740.593697,235.95195 L741.227889,235.95195 L741.356724,235.823115 L741.356724,235.433304 C741.336372,234.979952 741.543956,234.632883 742.006958,234.351478 C743.002634,233.793055 743.483328,233.103066 743.405615,232.309754 C743.307594,231.090569 742.586091,230.419175 741.297709,230.345059 Z" id="说明备份-2"></path>
        </g>
    </g>
</svg>