<?xml version="1.0" encoding="UTF-8"?>
<svg width="14px" height="14px" viewBox="0 0 14 14" version="1.1" xmlns="http://www.w3.org/2000/svg" xmlns:xlink="http://www.w3.org/1999/xlink">
    <g id="招商页面" stroke="none" stroke-width="1" fill="none" fill-rule="evenodd">
        <g id="16-系统配置项管理--" transform="translate(-414.000000, -325.000000)" fill="#5292FF" fill-rule="nonzero">
            <path d="M421,325 C424.859815,325 428,328.140185 428,332 C428,335.859815 424.859815,339 421,339 C417.140185,339 414,335.859815 414,332 C414,328.140185 417.140185,325 421,325 Z M421.296856,334.56236 L420.52623,334.56236 L420.397396,334.691194 L420.397396,335.530787 L420.52623,335.659621 L421.296856,335.659621 L421.42569,335.530787 L421.42569,334.691194 L421.296856,334.56236 Z M421.297709,328.345059 C419.831894,328.267007 418.910566,328.938708 418.591107,330.315687 L418.591107,330.315687 L418.574672,330.38591 L418.661763,330.538262 L419.358925,330.755657 L419.523252,330.659658 L419.541244,330.575699 C419.748949,329.619127 420.276834,329.177027 421.174803,329.202204 C421.962781,329.263293 422.368103,329.620121 422.447729,330.318909 C422.504533,330.749713 422.187953,331.200883 421.47878,331.659424 C420.8081,332.131788 420.464863,332.719849 420.464863,333.403319 L420.464863,333.403319 L420.464863,333.823115 L420.593697,333.95195 L421.227889,333.95195 L421.356724,333.823115 L421.356724,333.433304 C421.336372,332.979952 421.543956,332.632883 422.006958,332.351478 C423.002634,331.793055 423.483328,331.103066 423.405615,330.309754 C423.307594,329.090569 422.586091,328.419175 421.297709,328.345059 Z" id="说明选中"></path>
        </g>
    </g>
</svg>