<?xml version="1.0" standalone="no"?><!DOCTYPE svg PUBLIC "-//W3C//DTD SVG 1.1//EN" "http://www.w3.org/Graphics/SVG/1.1/DTD/svg11.dtd"><svg t="1584068536935" class="icon" viewBox="0 0 1152 1024" version="1.1" xmlns="http://www.w3.org/2000/svg" p-id="2556" xmlns:xlink="http://www.w3.org/1999/xlink" width="225" height="200"><defs><style type="text/css"></style></defs><path d="M1088 0H64a64 64 0 0 0 0 128h1024a64 64 0 0 0 0-128z m0 448H448a64 64 0 0 0 0 128h640a64 64 0 0 0 0-128zM42.688 322.496a9.984 9.984 0 0 0-16.576 7.488v375.424a9.984 9.984 0 0 0 16.64 7.552l206.4-179.904a19.968 19.968 0 0 0 0-30.144L42.688 322.432zM1088 896H64a64 64 0 0 0 0 128h1024a64 64 0 0 0 0-128z" fill="#595959" p-id="2557"></path></svg>