<?xml version="1.0" encoding="UTF-8"?>
<svg width="323px" height="167px" viewBox="0 0 323 167" version="1.1" xmlns="http://www.w3.org/2000/svg" xmlns:xlink="http://www.w3.org/1999/xlink">
    <title>数据异常</title>
    <defs>
        <linearGradient x1="25.2976813%" y1="50%" x2="100%" y2="50%" id="linearGradient-1">
            <stop stop-color="#AAABC9" stop-opacity="0" offset="0%"></stop>
            <stop stop-color="#0E154B" offset="100%"></stop>
        </linearGradient>
        <path d="M12,0 L50.8687769,0 L50.8687769,0 L50.8687769,6.79579415 L54.4904144,14.0323497 L50.8687769,22.2188999 L51.5381029,30.6343733 L48.1914728,38.9407087 L54.4904144,50.7289877 L50.8687769,59.760522 L50.8687769,65.5407407 L12,65.5407407 C5.372583,65.5407407 -9.64732338e-16,60.1681577 0,53.5407407 L0,12 C-2.58798134e-15,5.372583 5.372583,2.99379359e-15 12,0 Z" id="path-2"></path>
        <path d="M3.34663006,0 L39.5381029,0 C46.1655199,-1.21743675e-15 51.5381029,5.372583 51.5381029,12 L51.5381029,53.5407407 C51.5381029,60.1681577 46.1655199,65.5407407 39.5381029,65.5407407 L3.34663006,65.5407407 L3.34663006,65.5407407 L3.34663006,59.3049562 L7.06616328,50.8781451 L3.34663006,44.255097 L0.334663006,37.7673312 L3.34663006,30.5996855 L3.34663006,21.0952416 L7.06616328,14.6502574 L3.34663006,6.62466791 L3.34663006,0 Z" id="path-4"></path>
    </defs>
    <g id="招商页面" stroke="none" stroke-width="1" fill="none" fill-rule="evenodd">
        <g id="31-数据异常" transform="translate(-672.000000, -331.000000)">
            <g id="数据异常" transform="translate(672.000000, 340.000000)">
                <g id="Artwork">
                    <g id="circles" transform="translate(0.476895, 0.000000)">
                        <ellipse id="circle" fill="#F5F7FA" cx="156.34619" cy="38.6608059" rx="38.1515827" ry="38.1206349"></ellipse>
                        <text id="!" font-family="PingFangSC-Regular, PingFang SC" font-size="67" font-weight="normal" fill="#DAE1E9">
                            <tspan x="147.226623" y="62.8923077">!</tspan>
                        </text>
                        <ellipse id="椭圆形" fill="#E6EDF6" cx="161.023105" cy="138.148718" rx="160.688442" ry="19.8512821"></ellipse>
                    </g>
                    <ellipse id="shadow" fill-opacity="0.5" fill="url(#linearGradient-1)" style="mix-blend-mode: multiply;" opacity="0.224417297" cx="141.880021" cy="136.971917" rx="61.8561212" ry="3.34391534"></ellipse>
                    <g id="card" transform="translate(119.417982, 73.238508) rotate(-25.000000) translate(-119.417982, -73.238508) translate(91.825018, 40.423123)">
                        <mask id="mask-3" fill="white">
                            <use xlink:href="#path-2"></use>
                        </mask>
                        <use id="Mask" fill="#DAE1E9" xlink:href="#path-2"></use>
                    </g>
                    <g id="card" transform="translate(194.881323, 100.100282) rotate(25.000000) translate(-194.881323, -100.100282) translate(168.911473, 67.284897)">
                        <mask id="mask-5" fill="white">
                            <use xlink:href="#path-4"></use>
                        </mask>
                        <use id="Mask" fill="#DAE1E9" xlink:href="#path-4"></use>
                        <rect id="Rectangle-29" fill="#F1F4F7" mask="url(#mask-5)" x="16.0638243" y="46.8148148" width="26.7730405" height="3.34391534"></rect>
                        <rect id="Rectangle-29-Copy" fill="#F1F4F7" mask="url(#mask-5)" x="28.1116925" y="52.8338624" width="14.7251723" height="3.34391534"></rect>
                    </g>
                    <g id="line" opacity="0.5" transform="translate(241.673819, 74.533393) rotate(89.000000) translate(-241.673819, -74.533393) translate(227.065779, 63.594932)" fill="#DAE1E9" fill-rule="nonzero">
                        <path d="M16.4753023,10.8249361 L13.098271,4.30207187 C12.744239,3.61824566 11.909331,3.35426915 11.2334518,3.71246383 C10.5575725,4.07065851 10.2966638,4.91538335 10.6506958,5.59920956 L14.0277271,12.1220738 C14.3817591,12.8059 15.2166671,13.0698765 15.8925463,12.7116818 C16.5684255,12.3534871 16.8293343,11.5087623 16.4753023,10.8249361 Z" id="Line"></path>
                        <path d="M7.98027081,18.3101527 L4.60172502,11.7853946 C4.24753427,11.1013698 3.41265868,10.8371062 2.7369782,11.1951453 C2.06129771,11.5531843 1.80067879,12.397944 2.15486954,13.0819687 L5.53341533,19.6067269 C5.88760608,20.2907516 6.72248167,20.5550153 7.39816216,20.1969762 C8.07384264,19.8389371 8.33446156,18.9941775 7.98027081,18.3101527 Z" id="Line-Copy" transform="translate(5.067570, 15.696061) rotate(-24.000000) translate(-5.067570, -15.696061) "></path>
                        <path d="M26.790308,8.42041662 L23.4162546,1.89741473 C23.0625348,1.21357409 22.2278889,0.949837261 21.5520208,1.30834205 C20.8761527,1.66684683 20.6149999,2.51183476 20.9687197,3.1956754 L24.3427731,9.71867729 C24.6964929,10.4025179 25.5311388,10.6662548 26.2070069,10.30775 C26.882875,9.9492452 27.1440278,9.10425727 26.790308,8.42041662 Z" id="Line-Copy-2" transform="translate(23.879514, 5.808046) rotate(30.000000) translate(-23.879514, -5.808046) "></path>
                    </g>
                    <g id="line" opacity="0.5" transform="translate(70.141475, 47.790513) scale(-1, 1) rotate(87.000000) translate(-70.141475, -47.790513) translate(55.533434, 36.852051)" fill="#DAE1E9" fill-rule="nonzero">
                        <path d="M16.4753023,10.8249361 L13.098271,4.30207187 C12.744239,3.61824566 11.909331,3.35426915 11.2334518,3.71246383 C10.5575725,4.07065851 10.2966638,4.91538335 10.6506958,5.59920956 L14.0277271,12.1220738 C14.3817591,12.8059 15.2166671,13.0698765 15.8925463,12.7116818 C16.5684255,12.3534871 16.8293343,11.5087623 16.4753023,10.8249361 Z" id="Line"></path>
                        <path d="M7.98027081,18.3101527 L4.60172502,11.7853946 C4.24753427,11.1013698 3.41265868,10.8371062 2.7369782,11.1951453 C2.06129771,11.5531843 1.80067879,12.397944 2.15486954,13.0819687 L5.53341533,19.6067269 C5.88760608,20.2907516 6.72248167,20.5550153 7.39816216,20.1969762 C8.07384264,19.8389371 8.33446156,18.9941775 7.98027081,18.3101527 Z" id="Line-Copy" transform="translate(5.067570, 15.696061) rotate(-24.000000) translate(-5.067570, -15.696061) "></path>
                        <path d="M26.790308,8.42041662 L23.4162546,1.89741473 C23.0625348,1.21357409 22.2278889,0.949837261 21.5520208,1.30834205 C20.8761527,1.66684683 20.6149999,2.51183476 20.9687197,3.1956754 L24.3427731,9.71867729 C24.6964929,10.4025179 25.5311388,10.6662548 26.2070069,10.30775 C26.882875,9.9492452 27.1440278,9.10425727 26.790308,8.42041662 Z" id="Line-Copy-2" transform="translate(23.879514, 5.808046) rotate(30.000000) translate(-23.879514, -5.808046) "></path>
                    </g>
                </g>
                <polygon id="矩形" fill="#F1F4F7" transform="translate(108.296949, 62.402605) rotate(-24.000000) translate(-108.296949, -62.402605) " points="101.271122 60.7352347 115.323424 60.7325409 115.322775 64.0699749 101.270473 64.0726687"></polygon>
                <polygon id="矩形备份" fill="#F1F4F7" transform="translate(115.312337, 68.127107) rotate(-24.000000) translate(-115.312337, -68.127107) " points="104.271095 66.4624736 126.35423 66.4582536 126.35358 69.7917406 104.270444 69.7959606"></polygon>
            </g>
        </g>
    </g>
</svg>