<?xml version="1.0" standalone="no"?><!DOCTYPE svg PUBLIC "-//W3C//DTD SVG 1.1//EN" "http://www.w3.org/Graphics/SVG/1.1/DTD/svg11.dtd"><svg t="1578540422628" class="icon" viewBox="0 0 1024 1024" version="1.1" xmlns="http://www.w3.org/2000/svg" p-id="2538" xmlns:xlink="http://www.w3.org/1999/xlink" width="16" height="16"><defs><style type="text/css"></style></defs><path d="M944.536735 146.022108a37.580725 37.580725 0 0 1 28.262343 35.993528V655.358689a163.583673 163.583673 0 0 1-78.489443 139.366122l-360.908078 223.333953a37.529525 37.529525 0 0 1-20.12156 5.939188 35.942328 35.942328 0 0 1-20.070359-5.887988l-363.519273-223.385153C80.487263 763.800072 51.200922 711.678577 51.200922 654.744291V184.012432c0-16.332767 12.134376-33.382333 28.262343-37.990324L503.859216 1.484797a32.767934 32.767934 0 0 1 19.455961 0l421.221558 144.537311z m-46.950306 513.022974v-451.071098l-385.02323-134.092532-385.07443 134.143732v450.354299c0 31.999936 16.179168 61.235078 43.622313 78.335844l341.400917 205.260389 342.424915-204.645991c27.135946-16.895966 42.649515-45.823908 42.649515-78.335843z" p-id="2539"></path><path d="M476.006472 432.024736V258.559483c0-20.838358 16.127968-37.734325 35.993528-37.734325 19.86556 0 35.993528 16.895966 35.993528 37.734325v173.465253h173.465253c20.838358 0 37.683125 16.076768 37.683125 35.993528 0 19.86556-16.895966 35.993528-37.683125 35.993528h-173.465253v173.465253c0 20.787158-16.127968 37.683125-35.993528 37.683125-19.86556 0-35.993528-16.895966-35.993528-37.683125V504.011792H302.541219c-20.838358 0-37.683125-16.127968-37.683125-35.993528 0-19.91676 16.895966-36.044728 37.683125-36.044728h173.465253z" p-id="2540"></path></svg>