<?xml version="1.0" standalone="no"?><!DOCTYPE svg PUBLIC "-//W3C//DTD SVG 1.1//EN" "http://www.w3.org/Graphics/SVG/1.1/DTD/svg11.dtd"><svg t="1566524954824" class="icon" viewBox="0 0 1024 1024" version="1.1" xmlns="http://www.w3.org/2000/svg" p-id="5722" xmlns:xlink="http://www.w3.org/1999/xlink" width="200" height="200"><defs><style type="text/css"></style></defs><path d="M925 146c15.433 3.966 27 19.046 27 36v473.368c0 56.648-28.231 109.234-74.968 139.338l-344.598 223.375c-5.575 3.82-12.551 5.919-19.192 5.919-7.031 0-13.437-1.975-19.168-5.903L146.962 794.703C99.966 763.787 72 711.695 72 654.73V184c0-16.309 11.572-33.375 27-38L504.225 1.49c5.79-1.984 12.21-1.985 18.612-0.013L925 146z m-44.837 513.024V208L512.5 73.895 144.834 208v450.38c0 32.022 15.479 61.217 41.688 78.298L512.5 941.98l326.951-204.655c25.88-16.87 40.712-45.836 40.712-78.3zM476 432V268c0-19.882 16.118-36 36-36s36 16.118 36 36v164h164c19.882 0 36 16.118 36 36s-16.118 36-36 36H548v164c0 19.882-16.118 36-36 36s-36-16.118-36-36V504H312c-19.882 0-36-16.118-36-36s16.118-36 36-36h164z" p-id="5723"></path></svg>