<?xml version="1.0" standalone="no"?><!DOCTYPE svg PUBLIC "-//W3C//DTD SVG 1.1//EN" "http://www.w3.org/Graphics/SVG/1.1/DTD/svg11.dtd"><svg t="1566524891542" class="icon" viewBox="0 0 1024 1024" version="1.1" xmlns="http://www.w3.org/2000/svg" p-id="4472" xmlns:xlink="http://www.w3.org/1999/xlink" width="200" height="200"><defs><style type="text/css"></style></defs><path d="M317.24 309.188c-19.489 0-35.276-15.935-35.276-35.58V46.517c0-19.645 15.787-35.58 35.275-35.58s35.276 15.935 35.276 35.58v227.093c0 19.644-15.788 35.58-35.276 35.58zM514.985 46.396v431.926a89.911 89.911 0 0 1-24.673 62.885l-33.64 34.785a18.72 18.72 0 0 0-5.606 13.066v300.635c0 74.175-60.024 134.307-134.075 134.307a131.773 131.773 0 0 1-94.2-39.958c-24.812-25.114-38.744-59.012-38.779-94.349V590.186a18.76 18.76 0 0 0-5.628-13.13l-33.59-33.65a88.776 88.776 0 0 1-25.784-63.966V46.396c0-19.63 15.885-35.543 35.482-35.543s35.482 15.914 35.482 35.543v431.917a18.76 18.76 0 0 0 5.629 13.129l33.59 33.65a88.776 88.776 0 0 1 25.784 63.966V889.68a63.32 63.32 0 0 0 18.664 44.611 60.871 60.871 0 0 0 43.356 18.624c34.851 0 63.105-28.304 63.105-63.222V590.177a89.911 89.911 0 0 1 24.672-62.886l33.64-34.785a18.72 18.72 0 0 0 5.606-13.066V46.396c0-19.63 15.885-35.543 35.483-35.543 19.597 0 35.482 15.914 35.482 35.543z m390.012 42.327V878.84c0 82.883-57.51 145.16-134.093 145.16-73.612-0.61-132.963-60.564-132.96-134.307V590.186a18.742 18.742 0 0 0-5.608-13.108l-0.086-0.088-33.573-35.804a89.896 89.896 0 0 1-24.652-61.746V237.413c0-45.15 9.063-83.076 26.076-115.22 14.108-26.655 33.096-48.514 57.355-68.34C698.95 19.944 754.807 0 807.764 0c24.641 0 48.016 7.902 65.794 22.37a84.428 84.428 0 0 1 31.44 66.353zM834.034 878.84v-0.004l1.083-789.027c0-6.703-3.332-11.497-9.392-14.735-4.903-2.62-11.365-3.99-16.878-3.99-36.79 0-72.492 10.783-105.382 37.326-38.278 30.891-57.392 73.443-57.392 127.917v243.07a18.742 18.742 0 0 0 5.607 13.109l0.086 0.088 33.573 35.804a89.896 89.896 0 0 1 24.653 61.745v299.502c0.553 34.112 28.022 61.63 62.043 62.185a58.718 58.718 0 0 0 43.252-18.537c11.961-14.192 18.747-33.255 18.747-54.453z" p-id="4473"></path></svg>