<?xml version="1.0" standalone="no"?><!DOCTYPE svg PUBLIC "-//W3C//DTD SVG 1.1//EN" "http://www.w3.org/Graphics/SVG/1.1/DTD/svg11.dtd"><svg t="1612594000129" class="icon" viewBox="0 0 1024 1024" version="1.1" xmlns="http://www.w3.org/2000/svg" p-id="10361" xmlns:xlink="http://www.w3.org/1999/xlink" width="48" height="48"><defs><style type="text/css"></style></defs><path d="M512 12.636315m49.936369 49.936368l399.490948 399.490948q49.936369 49.936369 0 99.872738l-399.490948 399.490948q-49.936369 49.936369-99.872738 0l-399.490948-399.490948q-49.936369-49.936369 0-99.872738l399.490948-399.490948q49.936369-49.936369 99.872738 0Z" fill="#5292FF" p-id="10362"></path><path d="M573.281103 313.608828a17.655172 17.655172 0 0 1 0.512 4.201931V706.206897a17.655172 17.655172 0 0 1-17.655172 17.655172H335.448276a17.655172 17.655172 0 0 1-17.655173-17.655172V371.67669a17.655172 17.655172 0 0 1 13.470897-17.143173l220.689655-53.883586a17.655172 17.655172 0 0 1 21.327448 12.958897z m32.167725 104.942344a17.655172 17.655172 0 0 1 24.964413 0l70.62069 70.62069a17.655172 17.655172 0 0 1 5.172966 12.482207V706.206897a17.655172 17.655172 0 0 1-17.655173 17.655172h-70.62069a17.655172 17.655172 0 0 1-17.655172-17.655172V431.033379a17.655172 17.655172 0 0 1 5.172966-12.482207zM503.172414 631.896276h-123.586207l-1.694897 0.141241a11.564138 11.564138 0 0 0-9.780965 11.475862c0 5.826207 4.237241 10.646069 9.780965 11.475862l1.694897 0.123587h123.586207l1.694896-0.123587a11.564138 11.564138 0 0 0 9.780966-11.475862 11.546483 11.546483 0 0 0-11.475862-11.617103z m0-71.415173h-123.586207l-1.694897 0.123587a11.564138 11.564138 0 0 0-9.780965 11.475862c0 5.826207 4.237241 10.663724 9.780965 11.475862l1.694897 0.141241h123.586207l1.694896-0.123586a11.564138 11.564138 0 0 0 9.780966-11.475862 11.546483 11.546483 0 0 0-11.475862-11.617104z m-17.655173-71.432827h-105.931034l-1.694897 0.141241a11.564138 11.564138 0 0 0-9.780965 11.475862c0 5.826207 4.237241 10.646069 9.780965 11.475862l1.694897 0.123587h105.931034l1.694897-0.123587a11.564138 11.564138 0 0 0 9.780965-11.475862 11.546483 11.546483 0 0 0-11.475862-11.617103z m-17.655172-71.415173h-88.275862l-1.694897 0.123587a11.564138 11.564138 0 0 0-9.780965 11.475862c0 5.826207 4.237241 10.663724 9.780965 11.475862l1.694897 0.141241h88.275862l1.694897-0.123586a11.564138 11.564138 0 0 0 9.780965-11.475862 11.546483 11.546483 0 0 0-11.475862-11.617104z" fill="#FFFFFF" p-id="10363"></path></svg>