<?xml version="1.0" standalone="no"?><!DOCTYPE svg PUBLIC "-//W3C//DTD SVG 1.1//EN" "http://www.w3.org/Graphics/SVG/1.1/DTD/svg11.dtd"><svg t="1566524950444" class="icon" viewBox="0 0 1024 1024" version="1.1" xmlns="http://www.w3.org/2000/svg" p-id="5597" xmlns:xlink="http://www.w3.org/1999/xlink" width="200" height="200"><defs><style type="text/css"></style></defs><path d="M744 164H280v16c0 19.882-16.118 36-36 36s-36-16.118-36-36v-16H84c-6.627 0-12 5.373-12 12v764c0 6.627 5.373 12 12 12h856c6.627 0 12-5.373 12-12V176c0-6.627-5.373-12-12-12H816v16c0 19.882-16.118 36-36 36s-36-16.118-36-36v-16z m72-72h124c46.392 0 84 37.608 84 84v764c0 46.392-37.608 84-84 84H84c-46.392 0-84-37.608-84-84V176c0-46.392 37.608-84 84-84h124V36c0-19.882 16.118-36 36-36s36 16.118 36 36v56h464V36c0-19.882 16.118-36 36-36s36 16.118 36 36v56z m-8 800c0 19.882-16.118 36-36 36s-36-16.118-36-36c0-123.712-100.288-224-224-224S288 768.288 288 892c0 19.882-16.118 36-36 36s-36-16.118-36-36c0-163.476 132.524-296 296-296s296 132.524 296 296zM512 572c-94.993 0-172-77.007-172-172s77.007-172 172-172 172 77.007 172 172-77.007 172-172 172z m0-72c55.228 0 100-44.772 100-100s-44.772-100-100-100-100 44.772-100 100 44.772 100 100 100z" p-id="5598"></path></svg>