<?xml version="1.0" standalone="no"?><!DOCTYPE svg PUBLIC "-//W3C//DTD SVG 1.1//EN" "http://www.w3.org/Graphics/SVG/1.1/DTD/svg11.dtd"><svg t="1566524929648" class="icon" viewBox="0 0 1024 1024" version="1.1" xmlns="http://www.w3.org/2000/svg" p-id="5222" xmlns:xlink="http://www.w3.org/1999/xlink" width="200" height="200"><defs><style type="text/css"></style></defs><path d="M595.997 216c0-46.392-37.608-84-84-84-46.391 0-84 37.608-84 84 0 19.882-16.117 36-35.999 36H191.999v232.5c0 19.882-16.118 36-36 36a36.08 36.08 0 0 1-8.69-1.056c-42.308 4.349-75.31 40.098-75.31 83.556 0 46.392 37.609 84 84 84v1c19.882 0 36 16.118 36 36v168h168.174c16.251-68.8 78.059-120 151.824-120 73.766 0 135.573 51.2 151.825 120h168.174V572c0-19.882 16.117-36 36-36 19.882 0 36 16.118 36 36v356c0 19.882-16.118 36-36 36h-234.5c-19.881 0-35.999-16.118-35.999-36h-1.5c0-46.392-37.608-84-84-84-44.697 0-81.24 34.911-83.85 78.954 0.231 1.649 0.35 3.333 0.35 5.046 0 19.882-16.117 36-35.999 36H155.999c-19.882 0-36-16.118-36-36V754.826C51.2 738.574 0 676.766 0 603c0-73.766 51.199-135.574 120-151.826V216c0-19.882 16.117-36 36-36h204.173c16.251-68.8 78.059-120 151.824-120 73.766 0 135.573 51.2 151.825 120h204.174c19.882 0 36 16.118 36 36v28c0 19.882-16.118 36-36 36-17.133 0-31.47-11.968-35.108-28H631.997c-19.882 0-36-16.118-36-36z m373.273 89.253c16.98-10.341 39.13-4.96 49.471 12.022 10.342 16.98 4.96 39.13-12.02 49.472l-531.998 324c-16.367 9.968-37.674 5.367-48.47-10.467l-119.999-176c-11.2-16.427-6.963-38.824 9.464-50.024 16.427-11.2 38.824-6.963 50.024 9.464l100.736 147.746L969.27 305.253z" p-id="5223"></path></svg>