<?xml version="1.0" standalone="no"?><!DOCTYPE svg PUBLIC "-//W3C//DTD SVG 1.1//EN" "http://www.w3.org/Graphics/SVG/1.1/DTD/svg11.dtd"><svg t="1583286882722" class="icon" viewBox="0 0 1024 1024" version="1.1" xmlns="http://www.w3.org/2000/svg" p-id="3054" xmlns:xlink="http://www.w3.org/1999/xlink" width="16" height="16"><defs><style type="text/css"></style></defs><path d="M648.0903 952.524324c20.01919 0 36.249582 16.025592 36.249582 35.737582a36.044782 36.044782 0 0 1-36.249582 35.737582H375.911236a36.044782 36.044782 0 0 1-36.249582-35.737582c0-19.71199 16.230392-35.737582 36.249582-35.737582h272.179064z m-311.295844-233.830283a108.339146 108.339146 0 0 0-12.799994-11.059195 182.425509 182.425509 0 0 0-24.883188-15.359992l-0.255999-0.1536-3.737599-2.099199-0.153599-0.1024-0.1024-0.1024C190.260129 619.16129 128.00096 502.988549 128.00096 378.009411 128.00096 169.267115 299.930474 0 512.000768 0c212.070294 0 383.999808 169.215915 383.999808 378.009411 0 125.030337-62.310369 241.203079-166.911917 311.910244h-0.153599l-0.1024 0.1024-3.839998 2.303999-0.2048 0.1024-0.2048 0.1024a190.207905 190.207905 0 0 0-24.575988 15.103992 109.772745 109.772745 0 0 0-15.871992 14.335993 21179.07421 21179.07421 0 0 0 0.0512 37.119981v0.0512a334326.770437 334326.770437 0 0 1 0.1024 51.199975v0.716799a64015.532792 64015.532792 0 0 0 0.0512 28.415986c0 52.582374-43.315178 95.231952-96.767952 95.231953H436.378406c-53.401573 0-96.716752-42.649579-96.716752-95.231953v-5.990397h0.1536v-111.513544a55.449572 55.449572 0 0 0-2.969598-3.276798z m99.58395 144.537527h151.193524a23.961588 23.961588 0 0 0 24.217588-25.139187 6545.660727 6545.660727 0 0 0 0-22.527989H412.365618v26.879987a24.063988 24.063988 0 0 0 23.961588 20.787189z m387.071806-485.222157c0-169.318315-139.46873-306.585447-311.449444-306.585447S200.551324 208.691096 200.551324 378.009411a304.639848 304.639848 0 0 0 134.604732 252.364674c11.161594 5.785597 22.015989 12.543994 32.358384 20.12159 30.668785 22.630389 44.902378 44.287978 44.902378 69.631965v24.063988h199.1679v-24.063988c0-25.395187 14.284793-47.052776 44.851178-69.631965 10.291195-7.577596 21.196789-14.335993 32.358384-20.07039a304.742248 304.742248 0 0 0 134.655932-252.415874z" p-id="3055"></path><path d="M1023.078912 390.143805a501.759749 501.759749 0 0 1-70.655964 257.587071 35.737582 35.737582 0 0 1-61.439969-36.505582 430.591785 430.591785 0 0 0 60.620769-221.081489 430.386985 430.386985 0 0 0-75.007962-243.558278 35.737582 35.737582 0 0 1 59.13597-40.19198 501.913349 501.913349 0 0 1 87.347156 283.750258z m-951.551524 2.764799c0 80.74236 22.118389 158.822321 64.255968 227.071886a35.788782 35.788782 0 0 1-60.927969 37.478381A502.066949 502.066949 0 0 1 0.001024 392.908604a502.271749 502.271749 0 0 1 89.395155-286.719857 35.737582 35.737582 0 0 1 58.777571 40.65278 430.745385 430.745385 0 0 0-76.646362 246.067077z" p-id="3056"></path></svg>