<?xml version="1.0" standalone="no"?><!DOCTYPE svg PUBLIC "-//W3C//DTD SVG 1.1//EN" "http://www.w3.org/Graphics/SVG/1.1/DTD/svg11.dtd"><svg t="1566524879964" class="icon" viewBox="0 0 1024 1024" version="1.1" xmlns="http://www.w3.org/2000/svg" p-id="4222" xmlns:xlink="http://www.w3.org/1999/xlink" width="200" height="200"><defs><style type="text/css"></style></defs><path d="M716.1 409.062c19.731 0 35.726 16.028 35.726 35.799 0 19.77-15.995 35.8-35.727 35.8H308.897c-19.732 0-35.727-16.03-35.727-35.8 0-19.77 15.995-35.8 35.727-35.8h407.202z m0 204.033c19.731 0 35.726 16.028 35.726 35.799 0 19.77-15.995 35.799-35.727 35.799H308.897c-19.732 0-35.727-16.029-35.727-35.8 0-19.77 15.995-35.798 35.727-35.798h407.202zM851.39 0C908.516 0 955 46.586 955 103.835v816.33C955 977.414 908.516 1024 851.39 1024H172.61C115.484 1024 69 977.414 69 920.165v-816.33C69 46.586 115.484 0 172.61 0h678.78zM310.16 71.615v98.454H713.84V71.615H310.16z m-71.464 0H172.61c-17.71 0-32.147 14.468-32.147 32.22v816.33c0 17.774 14.425 32.22 32.147 32.22h678.78c17.753 0 32.147-14.425 32.147-32.22v-816.33c0-17.764-14.415-32.22-32.147-32.22h-66.085v100.247c0 38.508-31.245 69.822-69.67 69.822h-407.27c-38.425 0-69.67-31.314-69.67-69.822V71.615z" p-id="4223"></path></svg>