<?xml version="1.0" standalone="no"?><!DOCTYPE svg PUBLIC "-//W3C//DTD SVG 1.1//EN" "http://www.w3.org/Graphics/SVG/1.1/DTD/svg11.dtd"><svg t="1578540437986" class="icon" viewBox="0 0 1024 1024" version="1.1" xmlns="http://www.w3.org/2000/svg" p-id="2888" xmlns:xlink="http://www.w3.org/1999/xlink" width="16" height="16"><defs><style type="text/css"></style></defs><path d="M1024 694.784V130.1504c0-7.68-0.512-15.1552-2.2016-22.784-7.8336-32.9216-40.2944-55.6544-74.5472-56.1152-6.8608-0.1024-13.9264 0-20.992 0H81.2544c-2.4576 0-4.9152-0.1024-7.424 0.1024-19.968 1.3824-39.5264 8.9088-53.0944 23.6544a75.1616 75.1616 0 0 0-20.6336 50.2784c-0.0512 8.7552 0 17.408 0 26.112V680.448c0 13.6704-1.024 28.3648 3.0208 41.5744 9.8304 31.4368 39.7312 53.0944 73.8304 53.3504h401.2032v131.6352h-172.032c-22.016 0-44.1344-0.4096-66.2528 0h-0.9216c-17.8176 0-34.816 15.104-34.048 32.8192a33.9968 33.9968 0 0 0 34.048 32.8192h479.232c22.1184 0 44.1856 0.4096 66.304 0h0.9216c17.8176 0 34.816-15.104 34.048-32.768a33.9968 33.9968 0 0 0-34.048-32.8704h-239.3088v-131.584h401.3056c0.768 0 1.536 0 2.2016-0.1024 41.216-1.6896 73.8816-34.1504 74.3936-73.9328v-6.5536z m-163.9424 14.8992H75.7248l-2.304-0.6144c-0.6656-0.3072-1.28-0.7168-1.9456-1.1264l-1.536-1.4848-1.1264-1.8432c-0.2048-0.8192-0.512-1.5872-0.6656-2.4064-0.1536-5.0688 0-10.24 0-15.104V194.7136 125.8496c0-0.512 0-1.0752 0.1024-1.6384l0.6656-2.2528c0.3072-0.6144 0.768-1.2288 1.1776-1.8432 0.512-0.512 0.9728-1.024 1.536-1.4848l1.8944-1.1264c0.8192-0.2048 1.6896-0.512 2.6624-0.7168 7.5776-0.3584 15.36 0 22.9376 0h849.3056l2.3552 0.6144a19.968 19.968 0 0 1 1.8944 1.1776c0.512 0.512 1.0752 0.9216 1.536 1.4336l1.1264 1.8432c0.256 0.8192 0.512 1.6384 0.6656 2.4576 0.2048 5.0688 0 10.24 0 15.104v492.3904c0 22.9888 0.1024 45.9264 0 68.864 0 0.512 0 1.1264-0.1024 1.6384l-0.6656 2.304-1.1264 1.8432-1.536 1.4336-1.8944 1.1264-2.3552 0.6144h-24.576c-21.1968 0.1024-42.496 0.1024-63.7952 0.1024l0.1024-0.0512z" p-id="2889"></path><path d="M307.5072 314.88a33.8944 33.8944 0 0 1 33.9968 32.768v263.2192c0 18.432-15.5648 32.0512-33.9968 32.8192-18.3808 0.768-34.048-15.5648-34.048-32.768V347.648c0-18.432 15.5648-32 34.048-32.768zM716.8 380.5696c18.3296-0.8704 33.9456 15.616 33.9968 32.768v197.632c0 18.432-15.5648 32-33.9968 32.768-18.3808 0.768-34.048-15.616-34.048-32.768v-197.632c0-18.432 15.5648-31.9488 34.048-32.768z m-204.6464-131.1232c18.3296-0.7168 33.9968 15.616 33.9968 32.768v328.8576c0 18.432-15.5648 32-34.048 32.768-18.3296 0.768-33.9968-15.616-33.9968-32.768V282.3168c0-18.432 15.616-32 34.048-32.8192z" p-id="2890"></path></svg>