<?xml version="1.0" standalone="no"?><!DOCTYPE svg PUBLIC "-//W3C//DTD SVG 1.1//EN" "http://www.w3.org/Graphics/SVG/1.1/DTD/svg11.dtd"><svg t="1578540430916" class="icon" viewBox="0 0 1024 1024" version="1.1" xmlns="http://www.w3.org/2000/svg" p-id="2713" xmlns:xlink="http://www.w3.org/1999/xlink" width="16" height="16"><defs><style type="text/css"></style></defs><path d="M547.7888 620.3392v367.616A35.8912 35.8912 0 0 1 512 1024a35.8912 35.8912 0 0 1-35.7888-35.9936v-365.6704l71.5776-2.048z m-71.5776-486.912V36.0448C476.2112 16.128 492.2368 0 512 0c19.7632 0 35.7888 16.128 35.7888 35.9936v96.4096l-71.5776 1.024z m-78.2336 461.2096c16.2304 11.4176 20.1728 33.792 8.8576 50.0736l-221.3376 317.952a35.6864 35.6864 0 0 1-49.8176 8.8064 36.0448 36.0448 0 0 1-8.8064-50.0736l221.3376-317.952a35.6864 35.6864 0 0 1 49.7664-8.8064z m227.84 0a35.5328 35.5328 0 0 1 49.8176 8.8064l221.3376 317.952a36.0448 36.0448 0 0 1-9.0112 50.176 35.6864 35.6864 0 0 1-49.664-8.9088l-221.2864-317.952a36.0448 36.0448 0 0 1 8.8064-50.0736z" p-id="2714"></path><path d="M193.8432 172.032a19.968 19.968 0 0 0-19.8656 19.968v368.0256c0 11.008 8.9088 19.968 19.8656 19.968h636.3136a19.968 19.968 0 0 0 19.8656-19.968V192a19.968 19.968 0 0 0-19.8656-19.968H193.8432z m0-72.0384h636.3136C880.64 99.9936 921.6 141.2096 921.6 192v368.0256c0 50.7904-40.96 91.9552-91.4432 91.9552H193.8432A91.7504 91.7504 0 0 1 102.4 560.0256V192c0-50.7904 40.96-92.0064 91.4432-92.0064z" p-id="2715"></path></svg>