<?xml version="1.0" encoding="UTF-8"?>
<svg width="58px" height="58px" viewBox="0 0 58 58" version="1.1" xmlns="http://www.w3.org/2000/svg" xmlns:xlink="http://www.w3.org/1999/xlink">
    <title>招商管理</title>
    <g id="样式-12号主字体" stroke="none" stroke-width="1" fill="none" fill-rule="evenodd">
        <g id="04-产品服务展开" transform="translate(-466.000000, -479.000000)">
            <g id="招商管理" transform="translate(466.000000, 479.000000)">
                <rect id="矩形" fill="#5292FF" transform="translate(29.000000, 29.000000) rotate(45.000000) translate(-29.000000, -29.000000) " x="9" y="9" width="40" height="40" rx="4"></rect>
                <path d="M24.8110902,17 C25.2648995,17 25.6982673,17.1946072 26.00738,17.5372032 L26.00738,17.5372032 L38.3320834,30.7750788 L36.1028994,33.3624817 L29.9989033,26.9842326 C29.8953942,26.8724031 29.7520061,26.8091311 29.6020852,26.8091311 C29.4521643,26.8091311 29.3087762,26.8724031 29.2052671,26.9842326 C29.0954838,27.0951462 29.0336182,27.2469566 29.0336182,27.4054377 C29.0336182,27.5639188 29.0954838,27.7157292 29.2052671,27.8266428 L29.2052671,27.8266428 L35.2625787,34.204892 L33.6636352,35.8897125 L25.517193,27.3452655 C25.4136839,27.2334361 25.2702958,27.1701641 25.1203749,27.1701641 C24.970454,27.1701641 24.8270659,27.2334361 24.7235568,27.3452655 C24.6137735,27.4561792 24.5519079,27.6079896 24.5519079,27.7664707 C24.5519079,27.9249518 24.6137735,28.0767622 24.7235568,28.1876758 L24.7235568,28.1876758 L32.7649589,36.7321228 L31.1660153,38.4169433 L25.1203749,32.0386942 C25.0168658,31.9268647 24.8734777,31.8635927 24.7235568,31.8635927 C24.5736359,31.8635927 24.4302478,31.9268647 24.3267387,32.0386942 C24.2169554,32.1496078 24.1550898,32.3014182 24.1550898,32.4598993 C24.1550898,32.6183804 24.2169554,32.7701908 24.3267387,32.8811044 L24.3267387,32.8811044 L30.3723791,39.1991814 L29.2052671,40.4627968 C28.8961544,40.8053928 28.4627865,41 28.0089772,41 C27.5551679,41 27.1218001,40.8053928 26.8126874,40.4627968 L26.8126874,40.4627968 L15.5150426,28.5487088 C14.8283191,27.8315818 14.8283191,26.6784328 15.5150426,25.9613058 L15.5150426,25.9613058 L23.6148003,17.5372032 C23.923913,17.1946072 24.3572809,17 24.8110902,17 Z M36.4355263,18.2076816 C36.8861396,18.2076816 37.3176052,18.3955654 37.6318162,18.728612 L37.6318162,18.728612 L42.4870023,23.6747637 C43.1709992,24.3836657 43.1709992,25.5291958 42.4870023,26.2380978 L42.4870023,26.2380978 L39.744289,29.0300861 L32.4965231,21.5807724 L35.2392364,18.728612 C35.5534474,18.3955654 35.984913,18.2076816 36.4355263,18.2076816 Z" id="形状结合" fill="#FFFFFF" fill-rule="nonzero"></path>
            </g>
        </g>
    </g>
</svg>