<?xml version="1.0" encoding="UTF-8"?>
<svg width="58px" height="58px" viewBox="0 0 58 58" version="1.1" xmlns="http://www.w3.org/2000/svg" xmlns:xlink="http://www.w3.org/1999/xlink">
    <title>建筑管理</title>
    <g id="样式-12号主字体" stroke="none" stroke-width="1" fill="none" fill-rule="evenodd">
        <g id="04-产品服务展开" transform="translate(-466.000000, -317.000000)">
            <g id="建筑管理" transform="translate(466.000000, 317.000000)">
                <rect id="矩形" fill="#5292FF" transform="translate(29.000000, 29.000000) rotate(45.000000) translate(-29.000000, -29.000000) " x="9" y="9" width="40" height="40" rx="4"></rect>
                <g id="jianzhu-2" transform="translate(18.000000, 18.000000)">
                    <g id="编组-2">
                        <g id="编组-3" transform="translate(2.500000, 4.000000)"></g>
                        <path d="M11.8333333,0 C12.3856181,-1.01453063e-16 12.8333333,0.44771525 12.8333333,1 L12.8333333,20.0833333 L12.828,20.166 L14.666,20.166 L14.6666667,4.58333333 L19.1666667,4.58333333 C19.7189514,4.58333333 20.1666667,5.03104858 20.1666667,5.58333333 L20.1666667,20.0833333 L20.161,20.166 L21.5,20.1666667 C21.7761424,20.1666667 22,20.3905243 22,20.6666667 L22,21.5 C22,21.7761424 21.7761424,22 21.5,22 L0.5,22 C0.223857625,22 3.38176876e-17,21.7761424 0,21.5 L0,20.6666667 C-3.38176876e-17,20.3905243 0.223857625,20.1666667 0.5,20.1666667 L0.920129242,20.1671472 C0.917836128,20.1395129 0.916666667,20.1115597 0.916666667,20.0833333 L0.916666667,1 C0.916666667,0.44771525 1.36438192,1.01453063e-16 1.91666667,0 L11.8333333,0 Z M5.45833333,13.75 L3.70833333,13.75 C3.46287344,13.75 3.25872496,13.9268752 3.216389,14.1601244 L3.20833333,14.25 L3.20833333,15.0833333 C3.20833333,15.3287932 3.38520849,15.5329417 3.6184577,15.5752777 L3.70833333,15.5833333 L5.45833333,15.5833333 C5.70379322,15.5833333 5.9079417,15.4064582 5.95027766,15.173209 L5.95833333,15.0833333 L5.95833333,14.25 C5.95833333,13.9738576 5.73447571,13.75 5.45833333,13.75 Z M10.0416667,13.75 L8.29166667,13.75 C8.04620678,13.75 7.8420583,13.9268752 7.79972234,14.1601244 L7.79166667,14.25 L7.79166667,15.0833333 C7.79166667,15.3287932 7.96854183,15.5329417 8.20179103,15.5752777 L8.29166667,15.5833333 L10.0416667,15.5833333 C10.2871266,15.5833333 10.491275,15.4064582 10.533611,15.173209 L10.5416667,15.0833333 L10.5416667,14.25 C10.5416667,13.9738576 10.317809,13.75 10.0416667,13.75 Z M18.2916667,13.75 L16.5416667,13.75 C16.2962068,13.75 16.0920583,13.9268752 16.0497223,14.1601244 L16.0416667,14.25 L16.0416667,15.0833333 C16.0416667,15.3287932 16.2185418,15.5329417 16.451791,15.5752777 L16.5416667,15.5833333 L18.2916667,15.5833333 C18.5371266,15.5833333 18.741275,15.4064582 18.783611,15.173209 L18.7916667,15.0833333 L18.7916667,14.25 C18.7916667,13.9738576 18.567809,13.75 18.2916667,13.75 Z M5.45833333,9.16666667 L3.70833333,9.16666667 C3.46287344,9.16666667 3.25872496,9.34354183 3.216389,9.57679103 L3.20833333,9.66666667 L3.20833333,10.5 C3.20833333,10.7454599 3.38520849,10.9496084 3.6184577,10.9919443 L3.70833333,11 L5.45833333,11 C5.70379322,11 5.9079417,10.8231248 5.95027766,10.5898756 L5.95833333,10.5 L5.95833333,9.66666667 C5.95833333,9.39052429 5.73447571,9.16666667 5.45833333,9.16666667 Z M10.0416667,9.16666667 L8.29166667,9.16666667 C8.04620678,9.16666667 7.8420583,9.34354183 7.79972234,9.57679103 L7.79166667,9.66666667 L7.79166667,10.5 C7.79166667,10.7454599 7.96854183,10.9496084 8.20179103,10.9919443 L8.29166667,11 L10.0416667,11 C10.2871266,11 10.491275,10.8231248 10.533611,10.5898756 L10.5416667,10.5 L10.5416667,9.66666667 C10.5416667,9.39052429 10.317809,9.16666667 10.0416667,9.16666667 Z M18.2916667,9.16666667 L16.5416667,9.16666667 C16.2962068,9.16666667 16.0920583,9.34354183 16.0497223,9.57679103 L16.0416667,9.66666667 L16.0416667,10.5 C16.0416667,10.7454599 16.2185418,10.9496084 16.451791,10.9919443 L16.5416667,11 L18.2916667,11 C18.5371266,11 18.741275,10.8231248 18.783611,10.5898756 L18.7916667,10.5 L18.7916667,9.66666667 C18.7916667,9.39052429 18.567809,9.16666667 18.2916667,9.16666667 Z M5.45833333,4.58333333 L3.70833333,4.58333333 C3.46287344,4.58333333 3.25872496,4.76020849 3.216389,4.9934577 L3.20833333,5.08333333 L3.20833333,5.91666667 C3.20833333,6.16212656 3.38520849,6.36627504 3.6184577,6.408611 L3.70833333,6.41666667 L5.45833333,6.41666667 C5.70379322,6.41666667 5.9079417,6.23979151 5.95027766,6.0065423 L5.95833333,5.91666667 L5.95833333,5.08333333 C5.95833333,4.80719096 5.73447571,4.58333333 5.45833333,4.58333333 Z M10.0416667,4.58333333 L8.29166667,4.58333333 C8.04620678,4.58333333 7.8420583,4.76020849 7.79972234,4.9934577 L7.79166667,5.08333333 L7.79166667,5.91666667 C7.79166667,6.16212656 7.96854183,6.36627504 8.20179103,6.408611 L8.29166667,6.41666667 L10.0416667,6.41666667 C10.2871266,6.41666667 10.491275,6.23979151 10.533611,6.0065423 L10.5416667,5.91666667 L10.5416667,5.08333333 C10.5416667,4.80719096 10.317809,4.58333333 10.0416667,4.58333333 Z" id="形状结合" fill="#FFFFFF"></path>
                    </g>
                </g>
            </g>
        </g>
    </g>
</svg>