<?xml version="1.0" standalone="no"?><!DOCTYPE svg PUBLIC "-//W3C//DTD SVG 1.1//EN" "http://www.w3.org/Graphics/SVG/1.1/DTD/svg11.dtd"><svg t="1578540469027" class="icon" viewBox="0 0 1024 1024" version="1.1" xmlns="http://www.w3.org/2000/svg" p-id="3588" xmlns:xlink="http://www.w3.org/1999/xlink" width="16" height="16"><defs><style type="text/css"></style></defs><path d="M76.799424 947.192896V76.543426C76.799424 34.354942 109.259981 0 149.195681 0h367.203646c39.9357 0 72.396257 34.303743 72.396257 76.543426v86.988148l268.081189 89.087331a38.399712 38.399712 0 0 1 26.316603 36.402927l0.0512 157.234021a38.399712 38.399712 0 0 1-76.799424 0v-129.535028L591.355565 245.34856V947.192896h86.988147a38.399712 38.399712 0 0 1 0 76.799424H552.955853a39.116507 39.116507 0 0 1-1.535989 0H38.399712a38.399712 38.399712 0 1 1 0-76.799424h38.399712z m294.397792 0h142.846929v-870.393472H151.550863v870.393472h219.646353z" p-id="3589"></path><path d="M1006.430852 706.554701c9.881526 0 17.919866 8.140739 17.561468 18.022265v35.839731a17.919866 17.919866 0 0 1-17.919866 17.919865h-18.943857a17.817466 17.817466 0 0 0-16.742275 11.571114c-1.023992 2.71358-2.150384 5.27356-3.276775 7.884741a17.868666 17.868666 0 0 0 3.583973 19.96785l13.414299 13.414299a17.919866 17.919866 0 0 1 0 25.29261l-25.29261 25.292611a17.919866 17.919866 0 0 1-25.34381 0l-13.414299-13.3119a17.919866 17.919866 0 0 0-20.01905-3.635173c-2.61118 1.126392-5.222361 2.252783-7.884741 3.276775a18.022265 18.022265 0 0 0-11.622313 16.742275v18.892658a17.919866 17.919866 0 0 1-17.919866 17.868666h-35.89093a17.919866 17.919866 0 0 1-17.919866-17.919866v-18.841458a17.766267 17.766267 0 0 0-11.571113-16.742275c-2.71358-1.023992-5.32476-2.150384-7.884741-3.276775a17.919866 17.919866 0 0 0-20.07025 3.583973l-13.363099 13.3631a17.919866 17.919866 0 0 1-25.34381 0l-25.34381-25.292611a17.919866 17.919866 0 0 1 0-25.29261l13.619098-13.465499a17.919866 17.919866 0 0 0 3.583973-20.01905 164.606765 164.606765 0 0 1-3.225576-7.884741 18.022265 18.022265 0 0 0-16.793474-11.571113h-18.943858a17.919866 17.919866 0 0 1-17.868666-17.919865v-35.99333a17.919866 17.919866 0 0 1 17.919866-17.868666h18.943858c7.475144 0 14.131094-4.607965 16.742274-11.571114 1.023992-2.71358 2.150384-5.27356 3.276775-7.88474a17.868666 17.868666 0 0 0-3.583973-19.967851l-13.465499-13.414299a17.919866 17.919866 0 0 1 0-25.29261l25.34381-25.292611a17.919866 17.919866 0 0 1 25.34381 0l13.4143 13.3119a17.919866 17.919866 0 0 0 20.019049 3.635173c2.559981-1.126392 5.171161-2.252783 7.884741-3.276775a18.022265 18.022265 0 0 0 11.622313-16.742275v-18.892658a17.919866 17.919866 0 0 1 17.919866-17.868666h35.839731a17.919866 17.919866 0 0 1 17.919865 17.919866v18.841458c0 7.526344 4.607965 14.182294 11.622313 16.742275 2.71358 1.023992 5.27356 2.150384 7.884741 3.276775a17.919866 17.919866 0 0 0 20.01905-3.583973l13.516699-13.3119a17.919866 17.919866 0 0 1 25.34381 0l25.34381 25.34381a17.919866 17.919866 0 0 1 0 25.29261l-13.4143 13.3631a17.919866 17.919866 0 0 0-3.583973 20.01905c1.126392 2.61118 2.252783 5.171161 3.276775 7.884741a18.022265 18.022265 0 0 0 16.742275 11.571113h18.943858zM844.793664 805.216361a62.821929 62.821929 0 1 0 0-125.643858 62.821929 62.821929 0 0 0 0 125.643858zM395.568233 317.437619H259.786852a35.327735 35.327735 0 0 1-34.508542-35.839731c0-19.711852 15.513484-35.839731 34.508542-35.839731h135.781381a35.327735 35.327735 0 0 1 34.508541 35.839731 35.327735 35.327735 0 0 1-34.508541 35.839731z m0 215.038387H259.786852a35.327735 35.327735 0 0 1-34.508542-35.839731c0-19.711852 15.513484-35.839731 34.508542-35.839731h135.781381a35.327735 35.327735 0 0 1 34.508541 35.839731 35.327735 35.327735 0 0 1-34.508541 35.839731z m0 215.038388H259.786852a35.327735 35.327735 0 0 1-34.508542-35.839732c0-19.711852 15.513484-35.839731 34.508542-35.839731h135.781381a35.327735 35.327735 0 0 1 34.508541 35.839731 35.327735 35.327735 0 0 1-34.508541 35.839732z" p-id="3590"></path></svg>