<?xml version="1.0" standalone="no"?><!DOCTYPE svg PUBLIC "-//W3C//DTD SVG 1.1//EN" "http://www.w3.org/Graphics/SVG/1.1/DTD/svg11.dtd"><svg t="1578540453104" class="icon" viewBox="0 0 1024 1024" version="1.1" xmlns="http://www.w3.org/2000/svg" p-id="3238" xmlns:xlink="http://www.w3.org/1999/xlink" width="16" height="16"><defs><style type="text/css"></style></defs><path d="M419.83979 926.924849C205.516697 884.12167 44.031978 694.937765 44.031978 468.019478c0-48.025576 7.167996-94.361553 20.63359-137.932731 17.049591 17.356791 40.34558 28.518386 66.252767 29.798385a396.185402 396.185402 0 0 0 287.385456 493.004554 99.78875 99.78875 0 0 0 1.535999 74.035163zM157.593521 162.355631A466.943767 466.943767 0 0 1 511.999744 0.000512a466.943767 466.943767 0 0 1 354.406223 162.303919 100.09595 100.09595 0 0 0-60.41597 40.44798A395.007802 395.007802 0 0 0 511.999744 71.936476 395.007802 395.007802 0 0 0 217.958291 202.752411a100.09595 100.09595 0 0 0-60.36477-40.34558z m801.791599 167.731116c13.363193 43.571178 20.63359 89.907155 20.63359 137.932731 0 226.918287-161.535919 416.102192-375.859012 458.905371a99.68635 99.68635 0 0 0 1.535999-74.086363 396.185402 396.185402 0 0 0 287.385456-492.953354 99.68635 99.68635 0 0 0 66.252767-29.798385z" p-id="3239"></path><path d="M888.012356 395.981114a135.987132 135.987132 0 1 1 0-271.974264 135.987132 135.987132 0 0 1 0 271.974264z m0-71.987164a63.999968 63.999968 0 1 0 0-127.999936 63.999968 63.999968 0 0 0 0 127.999936zM135.987132 395.981114a135.987132 135.987132 0 1 1 0-271.974264 135.987132 135.987132 0 0 1 0 271.974264z m0-71.987164a63.999968 63.999968 0 1 0 0-127.999936 63.999968 63.999968 0 0 0 0 127.999936zM511.999744 1024a135.987132 135.987132 0 1 1 0-271.974264A135.987132 135.987132 0 0 1 511.999744 1024z m0-71.987164a63.999968 63.999968 0 1 0 0-127.999936 63.999968 63.999968 0 0 0 0 127.999936z" p-id="3240"></path></svg>