<?xml version="1.0" standalone="no"?><!DOCTYPE svg PUBLIC "-//W3C//DTD SVG 1.1//EN" "http://www.w3.org/Graphics/SVG/1.1/DTD/svg11.dtd"><svg t="1578540444741" class="icon" viewBox="0 0 1024 1024" version="1.1" xmlns="http://www.w3.org/2000/svg" p-id="3063" xmlns:xlink="http://www.w3.org/1999/xlink" width="16" height="16"><defs><style type="text/css"></style></defs><path d="M435.2 952.32a35.84 35.84 0 0 1 0 71.68H220.16a87.04 87.04 0 0 1-87.04-87.04v-716.8a87.04 87.04 0 0 1 87.04-87.04h716.8A87.04 87.04 0 0 1 1024 220.16v217.6a35.84 35.84 0 0 1-71.68 0V220.16a15.36 15.36 0 0 0-15.36-15.36h-716.8a15.36 15.36 0 0 0-15.36 15.36v716.8a15.36 15.36 0 0 0 15.36 15.36h215.04z m-363.52-302.08a35.84 35.84 0 0 1-71.68 0v-563.2A87.04 87.04 0 0 1 87.04 0h563.2a35.84 35.84 0 0 1 0 71.68h-563.2a15.36 15.36 0 0 0-15.36 15.36v563.2z" p-id="3064"></path><path d="M949.248 704c-4.6592-10.0352-25.6512-64.3072-34.1504-79.2064l40.448-40.448c11.0592-11.0592 8.0896-19.456-2.9696-30.464l-21.248-21.248c-11.008-11.0592-19.2512-13.824-30.2592-2.7648l-40.448 40.448c-14.848-8.448-69.0176-31.6416-79.0528-36.3008V482.2016c0-15.616-7.0656-21.4016-22.6304-21.4016h-31.8464c-15.5648 0-23.552 5.7856-23.552 21.4016v51.8144c-10.0864 4.6592-63.8976 27.1872-78.7968 35.6352l-39.6288-39.6288c-11.0592-11.0592-20.48-8.0896-31.488 2.9184l-20.1728 20.1728c-11.008 11.008-14.1312 20.5824-3.072 31.6416l39.6288 39.6288c-8.448 14.8992-31.3344 69.5808-35.9936 79.616H482.7136c-15.616 0-21.9136 7.2704-21.9136 22.8864v30.4128c0 15.5648 6.2976 24.6784 21.9136 24.6784h51.3024c4.6592 10.0352 27.8528 63.744 36.3008 78.6432l-39.936 39.936c-11.008 11.008-8.5504 19.5072 2.4576 30.5664l21.248 21.248c11.0592 11.008 19.7632 13.6704 30.8224 2.6624l39.936-39.936c14.848 8.448 68.608 29.3376 78.6432 33.9968v51.712c0 15.5648 8.0384 23.1936 23.6032 23.1936h31.8464c15.5648 0 22.6304-7.6288 22.6304-23.2448v-51.712c10.0352-4.608 63.8976-25.856 78.848-34.304l40.192 40.2432c11.0592 11.0592 20.0704 7.3728 31.0784-3.6352l20.1728-20.1728c11.008-11.008 14.5408-19.8656 3.4816-30.9248l-40.2432-40.2432c8.448-14.8992 29.4912-67.9936 34.1504-78.0288h54.784c15.616 0 19.968-9.1136 19.968-24.6784v-30.4128c0-15.616-4.352-22.8864-19.968-22.8864h-54.784z m-206.848 174.08a135.68 135.68 0 1 1 0-271.36 135.68 135.68 0 0 1 0 271.36z" p-id="3065"></path></svg>