<?xml version="1.0" standalone="no"?><!DOCTYPE svg PUBLIC "-//W3C//DTD SVG 1.1//EN" "http://www.w3.org/Graphics/SVG/1.1/DTD/svg11.dtd"><svg t="1578540478610" class="icon" viewBox="0 0 1024 1024" version="1.1" xmlns="http://www.w3.org/2000/svg" p-id="3763" xmlns:xlink="http://www.w3.org/1999/xlink" width="16" height="16"><defs><style type="text/css"></style></defs><path d="M1006.476983 808.968494c9.88121 0 17.919292 8.140478 17.560907 18.021688v35.838584a17.919292 17.919292 0 0 1-17.919293 17.919292h-18.943251a17.816896 17.816896 0 0 0-16.741739 11.570743c-1.02396 2.713493-2.150315 5.273392-3.276671 7.884489a17.868094 17.868094 0 0 0 3.583859 19.967211l13.41387 13.41387a17.919292 17.919292 0 0 1 0 25.291801l-25.291801 25.291801a17.919292 17.919292 0 0 1-25.342999 0l-13.41387-13.311474a17.919292 17.919292 0 0 0-20.018409-3.635056c-2.611097 1.126356-5.222194 2.252711-7.884489 3.27667a18.021688 18.021688 0 0 0-11.621941 16.741739v18.892054a17.919292 17.919292 0 0 1-17.919292 17.868094h-35.889782a17.919292 17.919292 0 0 1-17.919293-17.919292v-18.840856a17.765698 17.765698 0 0 0-11.570743-16.741739c-2.713493-1.02396-5.32459-2.150315-7.884488-3.27667a17.919292 17.919292 0 0 0-20.069607 3.583858l-13.362673 13.362672a17.919292 17.919292 0 0 1-25.342998 0l-25.342999-25.291801a17.919292 17.919292 0 0 1 0-25.291801l13.618662-13.465068a17.919292 17.919292 0 0 0 3.583858-20.018409 164.601498 164.601498 0 0 1-3.225473-7.884489 18.021688 18.021688 0 0 0-16.792936-11.570743h-18.943252a17.919292 17.919292 0 0 1-17.868094-17.919292v-35.992178a17.919292 17.919292 0 0 1 17.919292-17.868094h18.943252c7.474905 0 14.130642-4.607818 16.741738-11.570743 1.02396-2.713493 2.150315-5.273392 3.276671-7.884489a17.868094 17.868094 0 0 0-3.583858-19.967211l-13.465069-13.41387a17.919292 17.919292 0 0 1 0-25.291801l25.342999-25.291801a17.919292 17.919292 0 0 1 25.342999 0l13.413871 13.311474a17.919292 17.919292 0 0 0 20.018409 3.635056c2.559899-1.126356 5.170996-2.252711 7.884488-3.27667a18.021688 18.021688 0 0 0 11.621941-16.741739v-18.892054a17.919292 17.919292 0 0 1 17.919292-17.868094h35.838585a17.919292 17.919292 0 0 1 17.919292 17.919292v18.840856c0 7.526103 4.607818 14.18184 11.621941 16.741739 2.713493 1.02396 5.273392 2.150315 7.884489 3.27667a17.919292 17.919292 0 0 0 20.018409-3.583858l13.516266-13.311474a17.919292 17.919292 0 0 1 25.342999 0l25.342999 25.342999a17.919292 17.919292 0 0 1 0 25.291801l-13.41387 13.362672a17.919292 17.919292 0 0 0-3.583859 20.018409c1.126356 2.611097 2.252711 5.170996 3.276671 7.884489a18.021688 18.021688 0 0 0 16.741739 11.570743h18.943251zM844.844968 907.626997a62.819919 62.819919 0 1 0 0-125.639837 62.819919 62.819919 0 0 0 0 125.639837z" p-id="3764"></path><path d="M460.860135 77.861372L100.426372 307.330708 460.860135 536.441659l360.433763-229.059753L460.860135 77.861372zM481.49292 6.03061l422.485712 268.994175a38.398483 38.398483 0 0 1-0.051198 64.765441l-422.485712 268.533393a38.398483 38.398483 0 0 1-41.163174 0L17.895232 339.790226A38.398483 38.398483 0 0 1 17.792836 274.973587L440.22735 6.03061a38.398483 38.398483 0 0 1 41.26557 0z m385.008792 475.987598a35.838584 35.838584 0 0 1 38.552077 60.413614l-424.943214 270.990896a35.838584 35.838584 0 0 1-38.500879 0l-424.943215-270.990896a35.838584 35.838584 0 0 1 38.552077-60.413614L460.860135 740.721589l405.641577-258.703381z m-299.252179 395.657972a35.838584 35.838584 0 1 1 38.552077 60.413613l-125.691035 80.124836a35.838584 35.838584 0 0 1-38.500879 0l-424.943215-270.990896a35.838584 35.838584 0 0 1 38.552077-60.413614L460.860135 945.5135l106.389398-67.83732z" p-id="3765"></path></svg>