<?xml version="1.0" standalone="no"?><!DOCTYPE svg PUBLIC "-//W3C//DTD SVG 1.1//EN" "http://www.w3.org/Graphics/SVG/1.1/DTD/svg11.dtd"><svg t="1566524862371" class="icon" viewBox="0 0 1024 1024" version="1.1" xmlns="http://www.w3.org/2000/svg" p-id="3722" xmlns:xlink="http://www.w3.org/1999/xlink" width="200" height="200"><defs><style type="text/css"></style></defs><path d="M950.792 845H73.208C32.789 844.968 0.031 812.047 0 771.426V110.574C0 70.005 32.841 37 73.208 37h877.584C991.159 37 1024 70.005 1024 110.574v660.852c0 40.569-32.841 73.574-73.208 73.574zM72.114 773h879.772l0.114-0.115v-663.77l-0.114-0.115H72.114l-0.114 0.115 0.114 663.827c-0.114 0-0.114 0 0 0V773zM36.583 986.945C16.379 986.945 0 971.013 0 951.36c0-19.652 16.379-35.584 36.583-35.584L987.389 915c20.22 0 36.611 15.944 36.611 35.612s-16.391 35.612-36.611 35.612L36.583 987c0.114 0 0 0 0 0v-0.055z m167.724-444.703c-12.283 15.633-34.915 18.35-50.549 6.065-15.633-12.283-18.35-34.915-6.065-50.549l88-112c15.829-20.146 47.04-17.776 59.647 4.528l72.105 127.57 112.998-207.099c12.042-22.069 42.421-25.313 58.851-6.283l123.53 143.076 156.97-197.92c12.355-15.578 34.999-18.19 50.576-5.836 15.578 12.355 18.19 34.999 5.836 50.576l-184 232c-14.032 17.692-40.698 18.248-55.455 1.156L518.757 390.861 399.602 609.243c-13.53 24.797-49.043 25.062-62.942 0.471L259.104 472.5l-54.797 69.742z" p-id="3723"></path></svg>