<?xml version="1.0" standalone="no"?><!DOCTYPE svg PUBLIC "-//W3C//DTD SVG 1.1//EN" "http://www.w3.org/Graphics/SVG/1.1/DTD/svg11.dtd"><svg class="icon" width="48px" height="48.00px" viewBox="0 0 1024 1024" version="1.1" xmlns="http://www.w3.org/2000/svg"><path d="M512 12.636315m49.936369 49.936368l399.490948 399.490948q49.936369 49.936369 0 99.872738l-399.490948 399.490948q-49.936369 49.936369-99.872738 0l-399.490948-399.490948q-49.936369-49.936369 0-99.872738l399.490948-399.490948q49.936369-49.936369 99.872738 0Z" fill="#5292FF" /><path d="M679.318069 455.574069l-132.660966 72.651034c-12.25269 6.638345-19.720828 19.897379-19.720827 34.674759v140.482207c0 15.077517 14.653793 25.017379 26.888827 18.078897l132.660966-72.651035C698.438621 642.171586 706.206897 628.912552 706.206897 614.135172v-140.182069c0-15.36-14.653793-25.017379-26.888828-18.379034z m-201.975172 72.350897l-132.660966-72.350897c-12.25269-6.638345-26.888828 3.001379-26.888828 18.078897v141.100137c0 14.759724 7.468138 28.036414 19.720828 34.657104l132.660966 72.350896c12.25269 6.638345 26.888828-3.301517 26.888827-18.379034v-140.8c0-14.759724-7.468138-28.036414-19.720827-34.657103z m189.722482-105.224828c6.267586-3.301517 9.268966-9.039448 8.651035-14.477241 0.617931-5.720276-2.383448-11.140414-8.651035-14.459587l-135.062069-71.150344a42.142897 42.142897 0 0 0-20.303448-4.819863c-7.168 0-14.336 1.50069-20.303448 4.819863l-135.062069 70.850206c-6.267586 3.319172-8.968828 9.039448-8.651035 14.477242a15.448276 15.448276 0 0 0 8.651035 14.759724l135.062069 70.850207c5.967448 3.319172 13.135448 4.819862 20.303448 4.819862 7.168 0 14.336-1.50069 20.303448-4.819862l135.062069-70.850207z" fill="#FFFFFF" /></svg>