<?xml version="1.0" standalone="no"?><!DOCTYPE svg PUBLIC "-//W3C//DTD SVG 1.1//EN" "http://www.w3.org/Graphics/SVG/1.1/DTD/svg11.dtd"><svg t="1566524870428" class="icon" viewBox="0 0 1024 1024" version="1.1" xmlns="http://www.w3.org/2000/svg" p-id="3972" xmlns:xlink="http://www.w3.org/1999/xlink" width="200" height="200"><defs><style type="text/css"></style></defs><path d="M176.889 72C169.77 72 164 77.373 164 84v856c0 6.627 5.77 12 12.889 12H847.11c7.118 0 12.889-5.373 12.889-12V84c0-6.627-5.77-12-12.889-12H176.89z m4.202-72h661.818C892.113 0 932 37.608 932 84v856c0 46.392-39.887 84-89.09 84H181.09C131.888 1024 92 986.392 92 940V84c0-46.392 39.887-84 89.09-84zM278 188v648h468V188H278z m-24.592-72h517.184C796.775 116 818 135.502 818 159.56v704.88c0 24.058-21.225 43.56-47.408 43.56H253.408C227.225 908 206 888.498 206 864.44V159.56c0-24.058 21.225-43.56 47.408-43.56zM668 440c19.882 0 36 16.118 36 36v72c0 19.882-16.118 36-36 36s-36-16.118-36-36v-72c0-19.882 16.118-36 36-36z" p-id="3973"></path></svg>