<?xml version="1.0" standalone="no"?><!DOCTYPE svg PUBLIC "-//W3C//DTD SVG 1.1//EN" "http://www.w3.org/Graphics/SVG/1.1/DTD/svg11.dtd"><svg t="1566524958333" class="icon" viewBox="0 0 1024 1024" version="1.1" xmlns="http://www.w3.org/2000/svg" p-id="5847" xmlns:xlink="http://www.w3.org/1999/xlink" width="200" height="200"><defs><style type="text/css"></style></defs><path d="M512 1024C229.23 1024 0 794.77 0 512S229.23 0 512 0s512 229.23 512 512-229.23 512-512 512z m0-72c243.005 0 440-196.995 440-440S755.005 72 512 72 72 268.995 72 512s196.995 440 440 440z m-12.167-675.582c-22.497 30.49-48.779 69.775-73.08 109.743C366.42 485.384 328 572.318 328 616.11c0 64.142 36 117.194 95.305 144.827 18.022 8.397 25.824 29.814 17.427 47.836-8.398 18.022-29.815 25.824-47.837 17.427C308.918 787.07 256 709.086 256 616.11c0-34.17 12.487-77.114 35.194-128.492 18.767-42.462 44.34-90.02 74.038-138.863 25.4-41.774 52.874-82.842 76.666-115.087 11.12-15.07 21.013-27.624 28.937-36.695 4.42-5.06 8.329-9.161 11.907-12.397C492.043 176.164 498.514 172 512 172c13.486 0 19.957 4.164 29.258 12.576 3.578 3.236 7.486 7.338 11.907 12.397 7.924 9.071 17.817 21.626 28.937 36.695 23.792 32.245 51.266 73.313 76.666 115.087 29.699 48.843 55.27 96.4 74.038 138.863C755.513 538.996 768 581.941 768 616.11c0 92.903-52.834 170.84-136.707 210.002-18.015 8.412-39.438 0.626-47.85-17.389-8.411-18.015-0.626-39.438 17.39-47.85C660.058 733.219 696 680.201 696 616.11c0-43.792-38.421-130.726-98.752-229.949-24.302-39.968-50.584-79.253-73.081-109.743A783.658 783.658 0 0 0 512 260.337a783.658 783.658 0 0 0-12.167 16.081zM448 664c-25.469 0-42.884-25.723-33.425-49.37l72-180c7.384-18.46 28.335-27.44 46.795-20.055 18.46 7.384 27.44 28.335 20.055 46.795L501.173 592H576c25.469 0 42.884 25.723 33.425 49.37l-72 180c-7.384 18.46-28.335 27.44-46.795 20.055-18.46-7.384-27.44-28.335-20.055-46.795L522.827 664H448z" p-id="5848"></path></svg>