<?xml version="1.0" standalone="no"?><!DOCTYPE svg PUBLIC "-//W3C//DTD SVG 1.1//EN" "http://www.w3.org/Graphics/SVG/1.1/DTD/svg11.dtd"><svg t="1612593993080" class="icon" viewBox="0 0 1024 1024" version="1.1" xmlns="http://www.w3.org/2000/svg" p-id="10220" xmlns:xlink="http://www.w3.org/1999/xlink" width="48" height="48"><defs><style type="text/css"></style></defs><path d="M512 12.636315m49.936369 49.936368l399.490948 399.490948q49.936369 49.936369 0 99.872738l-399.490948 399.490948q-49.936369 49.936369-99.872738 0l-399.490948-399.490948q-49.936369-49.936369 0-99.872738l399.490948-399.490948q49.936369-49.936369 99.872738 0Z" fill="#5292FF" p-id="10221"></path><path d="M381.810759 336.331034v52.912552a49.911172 49.911172 0 0 0 50.105379 50.123035h130.824828a49.911172 49.911172 0 0 0 50.105379-50.123035V336.331034h8.350896a49.911172 49.911172 0 0 1 50.10538 50.14069v155.912828c-16.701793-11.122759-36.193103-19.49131-58.438621-19.491311-5.579034 0-13.947586 0-22.280828 2.789518H401.302069c-8.350897 0-13.912276 5.579034-13.912276 13.929931 0 8.350897 5.561379 13.912276 13.912276 13.912276h141.947586c-11.122759 11.140414-19.473655 27.859862-25.035034 44.561655H401.302069c-8.350897 0-13.912276 5.561379-13.912276 13.912276 0 8.368552 5.561379 13.929931 13.912276 13.929931h114.123034c2.789517 44.561655 33.403586 80.754759 72.386207 89.105655H367.880828A49.911172 49.911172 0 0 1 317.793103 664.911448V386.471724a49.911172 49.911172 0 0 1 50.10538-50.123034h13.912276zM613.517241 547.398621A75.034483 75.034483 0 0 1 688.551724 622.450759a75.034483 75.034483 0 1 1-75.034483-75.052138z m28.689656 43.731862l-1.518345 1.377103-36.193104 36.193104-5.561379-5.56138-13.912276-13.912276c-5.579034-5.579034-11.140414-5.579034-16.701793 0-5.067034 5.049379-5.526069 10.116414-1.394759 15.183449l1.394759 1.518345 27.824552 27.842206c5.067034 5.067034 10.134069 5.526069 15.183448 1.377104l1.518345-1.377104 44.544-44.544c5.561379-5.579034 5.561379-11.140414 0-16.719448-5.067034-5.049379-10.134069-5.508414-15.183448-1.377103zM495.933793 300.137931c22.280828 0 38.982621 16.701793 41.754483 36.193103h50.105379v52.912552c0 13.929931-11.122759 25.070345-25.052689 25.070345h-130.824828c-13.912276 0-25.05269-11.140414-25.05269-25.070345V336.331034h50.10538c2.789517-19.49131 19.49131-36.193103 38.964965-36.193103z" fill="#FFFFFF" p-id="10222"></path></svg>