<?xml version="1.0" standalone="no"?><!DOCTYPE svg PUBLIC "-//W3C//DTD SVG 1.1//EN" "http://www.w3.org/Graphics/SVG/1.1/DTD/svg11.dtd"><svg t="1583286877496" class="icon" viewBox="0 0 1024 1024" version="1.1" xmlns="http://www.w3.org/2000/svg" p-id="2855" xmlns:xlink="http://www.w3.org/1999/xlink" width="16" height="16"><defs><style type="text/css"></style></defs><path d="M512 1024C229.2224 1024 0 794.7776 0 512S229.2224 0 512 0s512 229.2224 512 512-229.2224 512-512 512z m0-71.9872a440.0128 440.0128 0 1 0 0-880.0256 440.0128 440.0128 0 0 0 0 880.0256z"  p-id="2856"></path><path d="M547.84 217.4464a1511.4752 1511.4752 0 0 1 103.8336 122.7264c31.0784 41.1136 56.9344 80.5376 75.9296 117.1456 22.8352 44.032 35.2768 82.944 35.2768 116.0704 0 141.1072-112.4352 256.0512-250.88 256.0512s-250.88-114.944-250.88-256c0-33.1776 12.4416-72.0896 35.328-116.1216 18.944-36.608 44.8-76.032 75.8784-117.1456a1511.5264 1511.5264 0 0 1 116.224-135.7312 32.7168 32.7168 0 0 1 46.848 0c2.816 2.816 7.0656 7.2704 12.4416 13.0048zM399.7184 415.232c-46.2848 66.56-72.704 122.0096-72.704 158.1056 0 104.5504 83.0976 189.44 184.9856 189.44s184.9856-84.9408 184.9856-189.44c0-36.096-26.4192-91.5968-72.704-158.1056A1394.6368 1394.6368 0 0 0 512 276.1216 1394.176 1394.176 0 0 0 399.7184 415.232z m276.5824 159.3344c-8.704 77.9776-61.952 142.7968-135.7824 165.0688a32.8192 32.8192 0 0 1-41.0112-22.528 33.3824 33.3824 0 0 1 22.1696-41.3184 127.3344 127.3344 0 0 0 89.088-108.6464 32.9728 32.9728 0 0 1 36.5568-29.3376 33.2288 33.2288 0 0 1 28.9792 36.7616z"  p-id="2857"></path></svg>