<?xml version="1.0" standalone="no"?><!DOCTYPE svg PUBLIC "-//W3C//DTD SVG 1.1//EN" "http://www.w3.org/Graphics/SVG/1.1/DTD/svg11.dtd"><svg t="1612593981959" class="icon" viewBox="0 0 1024 1024" version="1.1" xmlns="http://www.w3.org/2000/svg" p-id="10079" xmlns:xlink="http://www.w3.org/1999/xlink" width="48" height="48"><defs><style type="text/css"></style></defs><path d="M512 12.636315m49.936369 49.936368l399.490948 399.490948q49.936369 49.936369 0 99.872738l-399.490948 399.490948q-49.936369 49.936369-99.872738 0l-399.490948-399.490948q-49.936369-49.936369 0-99.872738l399.490948-399.490948q49.936369-49.936369 99.872738 0Z" fill="#5292FF" p-id="10080"></path><path d="M343.622621 317.793103h175.616c6.055724 0.264828 12.023172 2.577655 16.595862 6.567725a26.482759 26.482759 0 0 1 9.180689 20.00331v117.971862h132.237242c2.789517-0.052966 5.59669 0.017655 8.297931 0.670897 7.062069 1.588966 13.364966 6.17931 17.037241 12.35862 2.259862 3.707586 3.495724 7.962483 3.760552 12.270345v193.041655a26.800552 26.800552 0 0 1-23.569655 25.140966l-5.12 0.388414h-68.290207c-0.123586-19.067586 0-38.117517-0.052966-57.167449 12.340966 0 24.681931-0.03531 37.022897 0.035311a16.295724 16.295724 0 0 0 14.441931-10.575449 15.995586 15.995586 0 0 0-0.918069-13.011862c-15.607172-26.694621-31.232-53.371586-46.786207-80.083862a16.34869 16.34869 0 0 0-28.70731-1.677241c-15.642483 26.800552-31.249655 53.618759-46.892138 80.401655a16.119172 16.119172 0 0 0-1.765517 14.177103c2.048 6.002759 7.944828 10.504828 14.37131 10.769656 12.358621-0.070621 24.752552-0.017655 37.128827-0.035311-0.052966 19.067586 0.105931 38.117517-0.07062 57.167449H347.806897c-4.007724-0.176552-8.121379-0.282483-11.952552-1.712552a26.800552 26.800552 0 0 1-16.948966-18.096552c-1.412414-4.802207-0.847448-9.851586-0.971034-14.777379V344.858483c-0.123586-7.062069 2.701241-14.124138 7.732965-19.120552 4.696276-4.766897 11.246345-7.609379 17.937656-7.944828m33.809655 73.886897a11.158069 11.158069 0 0 0-8.704 11.246345 11.122759 11.122759 0 0 0 7.097379 9.869241c1.995034 0.829793 4.184276 0.794483 6.302897 0.776828h109.744551a11.052138 11.052138 0 1 0 0-22.157242c-37.181793-0.03531-74.345931 0-111.527724-0.017655a13.647448 13.647448 0 0 0-2.913103 0.282483m0 69.172966a11.016828 11.016828 0 1 0-5.420138 18.643862c2.171586 2.171586 5.278897 3.336828 8.350896 3.248551h111.510069a11.175724 11.175724 0 0 0 11.175724-11.087448c0.176552-5.932138-5.208276-11.22869-11.193379-11.087448h-111.474759a14.053517 14.053517 0 0 0-2.948413 0.282483m0 75.369931a11.193379 11.193379 0 0 0-8.050759 7.062069 10.999172 10.999172 0 0 0 0.247172 8.121379c1.518345 3.54869 5.014069 6.17931 8.880552 6.603034 1.641931 0.176552 3.301517 0.088276 4.961104 0.105931h105.701517c1.942069 0 3.919448 0.123586 5.790896-0.441379a11.052138 11.052138 0 0 0-3.089655-21.715862h-111.545379a13.559172 13.559172 0 0 0-2.895448 0.264828m0 71.397517a11.016828 11.016828 0 1 0-5.649655 18.414345 11.405241 11.405241 0 0 0 8.580413 3.478069l111.510069-0.017656a11.052138 11.052138 0 1 0-0.017655-22.157241h-111.492414a13.34731 13.34731 0 0 0-2.948413 0.282483z" fill="#FFFFFF" p-id="10081"></path></svg>