<?xml version="1.0" standalone="no"?><!DOCTYPE svg PUBLIC "-//W3C//DTD SVG 1.1//EN" "http://www.w3.org/Graphics/SVG/1.1/DTD/svg11.dtd"><svg t="1583286868526" class="icon" viewBox="0 0 1024 1024" version="1.1" xmlns="http://www.w3.org/2000/svg" p-id="2660" xmlns:xlink="http://www.w3.org/1999/xlink" width="16" height="16"><defs><style type="text/css"></style></defs><path d="M512 77.568L135.9872 294.8096v434.3808L512 946.432l376.0128-217.2416V294.8096L512 77.568z m17.9712-72.704L942.08 242.7904a35.9936 35.9936 0 0 1 17.9712 31.1808v475.9552a35.9936 35.9936 0 0 1-17.9712 31.232L529.92 1019.136a35.9424 35.9424 0 0 1-35.9424 0L81.92 781.1584a35.9936 35.9936 0 0 1-17.9712-31.1808V274.0224c0-12.9024 6.8608-24.7808 17.9712-31.232L494.08 4.864a35.9424 35.9424 0 0 1 35.9424 0z" p-id="2661"></path><path d="M737.792 462.08c12.8512 12.6464 13.0048 33.28 0.256 46.0288l-289.792 291.2256a32.7168 32.7168 0 0 1-54.9888-30.3104 32.4096 32.4096 0 0 1 0.768-4.9664l45.7216-190.3104H309.248a32.6144 32.6144 0 0 1-32.7168-33.792 32.4096 32.4096 0 0 1 9.472-24.064l289.792-291.2256a32.768 32.768 0 0 1 55.808 20.2752c0.6144 4.096 0.512 8.2944-0.512 12.3904l-44.7488 193.7408h126.0032c6.912 0 13.5168 2.0992 18.944 5.9904 2.4064 1.3824 4.608 3.072 6.5536 5.0176z m-254.3616 209.408l154.624-155.392H548.2496a32.6656 32.6656 0 0 1-24.2176-10.7008 32.4608 32.4608 0 0 1-10.0352-31.5392l28.5184-123.2896-157.3376 158.1056H481.28a32.6144 32.6144 0 0 1 31.1296 42.496l-28.928 120.32z" p-id="2662"></path></svg>