<?xml version="1.0" encoding="UTF-8"?>
<svg width="58px" height="58px" viewBox="0 0 58 58" version="1.1" xmlns="http://www.w3.org/2000/svg" xmlns:xlink="http://www.w3.org/1999/xlink">
    <title>门户管理</title>
    <g id="样式-12号主字体" stroke="none" stroke-width="1" fill="none" fill-rule="evenodd">
        <g id="04-产品服务展开" transform="translate(-466.000000, -156.000000)">
            <g id="门户管理" transform="translate(466.000000, 156.000000)">
                <rect id="矩形" fill="#5292FF" transform="translate(29.000000, 29.000000) rotate(45.000000) translate(-29.000000, -29.000000) " x="9" y="9" width="40" height="40" rx="4"></rect>
                <path d="M38.9,19 L19.1,19 C18.4924868,19 18,19.4924868 18,20.1 L18,34.4 C18,35.0075132 18.4924868,35.5 19.1,35.5 L38.9,35.5 C39.5075132,35.5 40,35.0075132 40,34.4 L40,20.1 C40,19.4924868 39.5075132,19 38.9,19 Z M23.5,28.625 C22.7406085,28.625 22.125,28.0093915 22.125,27.25 C22.125,26.4906085 22.7406085,25.875 23.5,25.875 C24.2593915,25.875 24.875,26.4906085 24.875,27.25 C24.875,28.0093915 24.2593915,28.625 23.5,28.625 Z M29,28.625 C28.2406085,28.625 27.625,28.0093915 27.625,27.25 C27.625,26.4906085 28.2406085,25.875 29,25.875 C29.7593915,25.875 30.375,26.4906085 30.375,27.25 C30.375,28.0093915 29.7593915,28.625 29,28.625 Z M34.5,28.625 C33.7406085,28.625 33.125,28.0093915 33.125,27.25 C33.125,26.4906085 33.7406085,25.875 34.5,25.875 C35.2593915,25.875 35.875,26.4906085 35.875,27.25 C35.875,28.0093915 35.2593915,28.625 34.5,28.625 Z M34.9125,38.075 L23.0875,38.075 C22.5559259,38.075 22.125,38.5059259 22.125,39.0375 C22.125,39.5690741 22.5559259,40 23.0875,40 L34.9125,40 C35.4440741,40 35.875,39.5690741 35.875,39.0375 C35.875,38.5059259 35.4440741,38.075 34.9125,38.075 Z" id="形状" fill="#FFFFFF" fill-rule="nonzero"></path>
            </g>
        </g>
    </g>
</svg>