<?xml version="1.0" standalone="no"?><!DOCTYPE svg PUBLIC "-//W3C//DTD SVG 1.1//EN" "http://www.w3.org/Graphics/SVG/1.1/DTD/svg11.dtd"><svg t="1566872639870" class="icon" viewBox="0 0 1024 1024" version="1.1" xmlns="http://www.w3.org/2000/svg" p-id="25687" xmlns:xlink="http://www.w3.org/1999/xlink" width="200" height="200"><defs><style type="text/css"></style></defs><path d="M185.6 723.2v89.6h652.8v-89.6H185.6z m-6.4-64h665.6c31.795 0 57.6 25.805 57.6 57.6v102.4c0 31.795-25.805 57.6-57.6 57.6H179.2a57.6 57.6 0 0 1-57.6-57.6V716.8c0-31.795 25.805-57.6 57.6-57.6z m6.4-448v294.4h448V211.2h-448z m-6.4-64H640c31.795 0 57.6 25.805 57.6 57.6V512c0 31.795-25.805 57.6-57.6 57.6H179.2a57.6 57.6 0 0 1-57.6-57.6V204.8c0-31.795 25.805-57.6 57.6-57.6z" p-id="25688"></path><path d="M697.6 415.437l140.8 70.4V230.912l-140.8 70.4v114.074z m121.446-246.323A57.6 57.6 0 0 1 902.4 220.62v275.558a57.6 57.6 0 0 1-83.354 51.507L633.6 455.014V261.786l185.446-92.724z" p-id="25689"></path></svg>