<?xml version="1.0" encoding="utf-8"?>
<!-- Generator: Adobe Illustrator 21.0.0, SVG Export Plug-In . SVG Version: 6.00 Build 0)  -->
<svg version="1.1" id="图层_1" xmlns="http://www.w3.org/2000/svg" xmlns:xlink="http://www.w3.org/1999/xlink" x="0px" y="0px"
	 viewBox="0 0 200 200" style="enable-background:new 0 0 200 200;" xml:space="preserve">
<path d="M150,37V25h-12.5v12.5h-75V25H50v12.5H37c0,0-12-0.1-12,12c0,11.8,0,113.4,0,113.4s-0.2,12,12.2,12c12,0,114.1,0,126,0
	c11.9,0,11.9-12,11.9-12S175,61.7,175,49.7s-12-12.3-12-12.3h-13V37z M162.5,162.5l-125,0v-75h125V162.5z M37.5,75V50H50l0,12.5
	h12.5l0-12.5h75l0,12.5H150V50l12.5,0v25H37.5z M137.5,125h-75v-12.5h75L137.5,125L137.5,125z M75,150v-12.5h50V150H75z"/>
</svg>
