<?xml version="1.0" standalone="no"?><!DOCTYPE svg PUBLIC "-//W3C//DTD SVG 1.1//EN" "http://www.w3.org/Graphics/SVG/1.1/DTD/svg11.dtd"><svg t="1574308281106" class="icon" viewBox="0 0 1024 1024" version="1.1" xmlns="http://www.w3.org/2000/svg" p-id="2033" xmlns:xlink="http://www.w3.org/1999/xlink" width="8" height="8"><defs><style type="text/css"></style></defs><path d="M356.045006 952.012963V623.973976c0-19.864999 16.127999-35.992999 35.993999-35.992999h240.02599c19.864999 0 35.992999 16.127999 35.992999 36.044999v327.986987h175.974993V607.999976a35.993999 35.993999 0 0 1 72.037997 0v380.005985A35.993999 35.993999 0 0 1 880.076986 1023.99996h-735.999972a35.993999 35.993999 0 0 1-36.043998-35.993999V607.999976a35.993999 35.993999 0 0 1 72.037997 0v344.012987h175.973993z m71.987997 0H596.069997V659.967974H428.033003v291.993989z" p-id="2034"></path><path d="M60.621018 506.36798a35.993999 35.993999 0 0 1-49.151998-52.735998L487.476001 9.728a35.993999 35.993999 0 0 1 49.151998 0l475.954981 444.005982a35.993999 35.993999 0 0 1-49.099998 52.633998L512.051 85.247997 60.622018 506.31698z" p-id="2035"></path></svg>