<?xml version="1.0" standalone="no"?><!DOCTYPE svg PUBLIC "-//W3C//DTD SVG 1.1//EN" "http://www.w3.org/Graphics/SVG/1.1/DTD/svg11.dtd"><svg t="1612594005330" class="icon" viewBox="0 0 1024 1024" version="1.1" xmlns="http://www.w3.org/2000/svg" p-id="10502" xmlns:xlink="http://www.w3.org/1999/xlink" width="48" height="48"><defs><style type="text/css"></style></defs><path d="M512 12.636315m49.936369 49.936368l399.490948 399.490948q49.936369 49.936369 0 99.872738l-399.490948 399.490948q-49.936369 49.936369-99.872738 0l-399.490948-399.490948q-49.936369-49.936369 0-99.872738l399.490948-399.490948q49.936369-49.936369 99.872738 0Z" fill="#5292FF" p-id="10503"></path><path d="M489.719172 517.243586a144.595862 144.595862 0 0 1 25.953104 11.634759 108.685241 108.685241 0 0 0-24.858483 69.437793c-0.017655 38.205793 19.809103 73.569103 52.135724 92.954483C463.042207 720.772414 300.137931 706.56 300.137931 648.651034c0-60.89269 40.324414-112.64 96.432552-131.407448 14.230069 8.121379 30.260966 12.358621 46.574345 12.305655 16.613517 0 32.203034-4.272552 45.656275-11.758344l0.918069-0.547311zM617.931034 490.407724c58.509241 0 105.931034 48.322207 105.931035 107.908414S676.440276 706.206897 617.931034 706.206897s-105.931034-48.304552-105.931034-107.890759c0-59.586207 47.421793-107.890759 105.931034-107.890759z m-174.574344 43.166897H443.144828c-4.678621 0.300138-7.450483 7.909517-4.678621 13.38262l1.694896 3.954759c1.05931 1.818483 1.271172 4.237241 1.059311 6.355862l-13.841655 102.43531a11.475862 11.475862 0 0 0 1.500689 7.591725l9.798621 14.600827c2.330483 3.654621 6.391172 3.654621 8.721655 0l9.798621-14.600827a10.910897 10.910897 0 0 0 1.694896-7.891863l-13.824-102.417655a12.976552 12.976552 0 0 1 1.059311-6.391172l1.906758-3.654621c2.771862-5.473103 0-13.364966-4.67862-13.364965z m159.885241 3.990069c-13.841655 4.237241-29.66069 7.20331-47.315862 8.615724l2.966069 13.276689a630.289655 630.289655 0 0 0 17.090207-1.977379v16.384h-20.621242v13.982897h19.067587c-4.943448 14.124138-12.711724 26.694621-23.163587 37.852689l6.214621 15.395311a146.361379 146.361379 0 0 0 18.502621-31.638069v58.050207h14.689103v-59.180138c3.10731 4.237241 6.920828 9.463172 11.440552 15.960276l8.192-12.429242a289.456552 289.456552 0 0 0-19.632552-18.361379v-5.649655h17.937655v-13.982897h-17.937655v-18.643862c6.214621-1.271172 12.005517-2.683586 17.655173-4.096l-5.08469-13.559172z m69.349517 4.096h-58.050207v107.484689h-11.864275v14.124138h80.507586v-14.124138h-10.593104V541.66069z m-14.689103 85.02731v22.457379h-29.095724v-22.457379h29.095724z m0-36.157793v22.316138h-29.095724v-22.316138h29.095724z m0-35.027862v21.186207h-29.095724v-21.186207h29.095724zM443.144828 317.793103c50.776276 0 91.930483 42.301793 91.930482 94.490483 0 52.171034-41.154207 94.472828-91.930482 94.472828s-91.930483-42.301793-91.930483-94.472828c0-52.18869 41.154207-94.490483 91.930483-94.490483z" fill="#FFFFFF" p-id="10504"></path></svg>