<?xml version="1.0" standalone="no"?><!DOCTYPE svg PUBLIC "-//W3C//DTD SVG 1.1//EN" "http://www.w3.org/Graphics/SVG/1.1/DTD/svg11.dtd"><svg t="1566524866564" class="icon" viewBox="0 0 1024 1024" version="1.1" xmlns="http://www.w3.org/2000/svg" p-id="3847" xmlns:xlink="http://www.w3.org/1999/xlink" width="200" height="200"><defs><style type="text/css"></style></defs><path d="M512 1024C229.23 1024 0 794.77 0 512S229.23 0 512 0s512 229.23 512 512-229.23 512-512 512z m0-72c243.005 0 440-196.995 440-440S755.005 72 512 72 72 268.995 72 512s196.995 440 440 440z m-88-156.09c0 18.592-17.198 36.09-35.833 36.09C369.53 832 352 814.502 352 795.91V284.09c0-18.592 17.531-36.09 36.167-36.09h179.472C658.063 248 732 321.798 732 412.045 732 502.293 658.424 576 568 576l-144 0.09v219.82zM568 504c50.59 0 92.022-41.452 92.022-91.955C660.022 361.543 618.589 320 568 320H424v184h144z" p-id="3848"></path></svg>