<?xml version="1.0" standalone="no"?><!DOCTYPE svg PUBLIC "-//W3C//DTD SVG 1.1//EN" "http://www.w3.org/Graphics/SVG/1.1/DTD/svg11.dtd"><svg t="1566871665963" class="icon" viewBox="0 0 1024 1024" version="1.1" xmlns="http://www.w3.org/2000/svg" p-id="10912" xmlns:xlink="http://www.w3.org/1999/xlink" width="200" height="200"><defs><style type="text/css"></style></defs><path d="M958.161455 964.561455a175.569455 175.569455 0 0 1-248.273455-0.256l-174.475636-174.475637-4.561455 1.466182A388.794182 388.794182 0 0 1 68.770909 238.638545a33.349818 33.349818 0 0 1 24.506182-17.384727c10.472727-1.466182 21.015273 2.001455 28.555636 9.378909l176.011637 175.988364 102.981818-102.958546-176.128-173.893818a33.419636 33.419636 0 0 1 8.075636-52.968727 388.770909 388.770909 0 0 1 552.634182 459.962182l-1.419636 4.514909 174.405818 174.964364c68.305455 68.445091 68.258909 179.758545-0.116364 248.133818l-0.116363 0.186182zM107.194182 325.050182a321.931636 321.931636 0 0 0 424.494545 394.635636 33.442909 33.442909 0 0 1 35.607273 7.586909l190.510545 189.905455a111.197091 111.197091 0 0 0 153.25091 0l0.162909-0.162909a109.195636 109.195636 0 0 0-0.581819-154.065455l-189.742545-189.765818a33.419636 33.419636 0 0 1-7.586909-35.653818 321.931636 321.931636 0 0 0-394.635636-424.494546l-12.404364 3.816728 165.376 165.957818a33.466182 33.466182 0 0 1 0 47.243636l-147.409455 147.409455a33.466182 33.466182 0 0 1-47.243636 0l-165.957818-164.817455-3.84 12.404364z m0 0" p-id="10913"></path></svg>