<?xml version="1.0" standalone="no"?><!DOCTYPE svg PUBLIC "-//W3C//DTD SVG 1.1//EN" "http://www.w3.org/Graphics/SVG/1.1/DTD/svg11.dtd"><svg t="1566524925855" class="icon" viewBox="0 0 1024 1024" version="1.1" xmlns="http://www.w3.org/2000/svg" p-id="5097" xmlns:xlink="http://www.w3.org/1999/xlink" width="200" height="200"><defs><style type="text/css"></style></defs><path d="M512.086 805.715L93.77 614.031c-17.867-5.123-40.106-17.781-68.45-33.906a37.672 37.672 0 0 1-20.313-32.74A37.67 37.67 0 0 1 24.1 513.921a37.709 37.709 0 0 1 38.534 0.802c12.514 7.083 27.516 14.618 39.202 20.193l410.25 187.993 391.028-179.102 34.225-17.104 26.158-12.96a37.709 37.709 0 0 1 38.326 1.599 37.668 37.668 0 0 1 17.078 34.33 37.674 37.674 0 0 1-21.856 31.507l-26.083 12.96a1490.695 1490.695 0 0 1-37.467 18.385v0.075L512.086 805.715z m0 218.285L92.94 831.938c-13.646-4.521-34.074-14.391-67.622-33.53-18.111-10.3-24.44-33.324-14.135-51.426 10.305-18.101 33.34-24.426 51.451-14.127 12.966 7.384 28.648 15.144 40.558 20.796l408.894 187.467L903.114 761.94l34.225-17.104 26.158-12.96a37.709 37.709 0 0 1 38.317 1.61 37.667 37.667 0 0 1 17.074 34.321 37.674 37.674 0 0 1-21.843 31.506l-26.083 13.035a1490.696 1490.696 0 0 1-37.467 18.385v0.075L512.086 1024z m-0.753-448.473c-22.013 0-41.388-7.684-59.028-15.973L55.774 382.41c-27.306-14.169-44.684-42.117-45.307-72.861-1.357-33.153 14.097-64.197 40.332-80.999L450.797 18.403c50.81-25.317 82.623-24.035 124.915 0.904l395.626 207.584c27.515 15.07 43.573 46.037 42.443 81.301-1.131 33.53-18.017 61.936-44.102 73.992l-397.737 177.67c-21.861 9.495-40.256 15.672-60.61 15.672v0.001z m3.166-499.482c-7.012 0-16.359 3.014-29.401 9.494L88.643 293.726a24.027 24.027 0 0 0-2.865 12.809c0.15 4.446 1.66 7.535 3.015 8.213l394.872 176.39c28.797 13.412 28.949 12.357 57.897-0.226l396.832-177.294c1.206-2.787 0.679-16.953-3.09-20.495l-396.23-207.96c-14.021-8.214-20.43-9.117-24.575-9.117v-0.001z" p-id="5098"></path></svg>