<?xml version="1.0" standalone="no"?><!DOCTYPE svg PUBLIC "-//W3C//DTD SVG 1.1//EN" "http://www.w3.org/Graphics/SVG/1.1/DTD/svg11.dtd"><svg t="1566524886316" class="icon" viewBox="0 0 1024 1024" version="1.1" xmlns="http://www.w3.org/2000/svg" p-id="4347" xmlns:xlink="http://www.w3.org/1999/xlink" width="200" height="200"><defs><style type="text/css"></style></defs><path d="M512 1024C229.23 1024 0 794.77 0 512S229.23 0 512 0s512 229.23 512 512-229.23 512-512 512z m0-72c243.005 0 440-196.995 440-440S755.005 72 512 72 72 268.995 72 512s196.995 440 440 440z m90.724-558.116c16.997-27.61 44.782-48.668 82.598-60.507l23.377-7.318v24.496c0 21.749 2.546 41.102 7.435 59.864 3.862 14.824 8.585 27.73 16.804 47.242 0.974 2.313 4.336 10.238 4.475 10.566a876.648 876.648 0 0 1 4.452 10.678c12.44 30.5 18.135 53.214 18.135 81.062 0 65.041-28.455 127.098-76.936 173.62-47.311 45.4-109.722 72.027-172.043 72.027-62.34 0-124.304-26.544-171.13-71.939C292.011 687.258 264 625.212 264 559.967c0-29.51 6.175-60.804 17.768-87.885 13.168-30.757 32.692-54.969 57.734-68.944l23.82-13.292 2.853 27.127c0.016 0.15 0.061 0.546 0.14 1.17 0.137 1.106 0.313 2.408 0.531 3.889a270.506 270.506 0 0 0 2.518 14.314c2.767 13.65 6.509 27.28 11.324 40.013 0.308-10.006 0.78-18.533 1.56-28.483 2.066-26.336 5.931-50.728 12.25-73.987 9.48-34.894 24.167-65.846 45.196-92.381 24.192-30.527 56.189-54.368 96.657-70.6L561.052 201v26.614c0 57.03 3.201 97.16 11.118 131.545 4.697 20.397 11.162 39.004 19.863 56.732a123.182 123.182 0 0 1 10.691-22.007zM330 549.762c0 97.746 92.192 187.852 190.732 187.852 35.48 0 79.062-20.257 113.865-53.417 37.25-35.492 59.43-80.458 59.403-125.137 0-14.154-2.134-27.34-6.306-40.996-3.3-10.797-7.027-19.905-14.79-37.074-0.262-0.58-1.489-3.29-1.826-4.038-0.712-1.574-1.286-2.847-1.837-4.078-3.21-7.156-5.984-13.66-8.363-19.752-3.181 18.655-3.787 40.953-1.79 59.124l2.64 24.034-23.782-4.364c-53.67-9.848-93.632-47.3-117.826-103.535-14.53-33.77-22.828-73.474-24.686-113.548-17.656 27.426-29.913 64.746-37.087 110.069-7.916 50.009-9.01 103.948-5.882 157.585l1.02 17.492-17.458 1.491c-22.913 1.957-43.645-2.727-61.738-13.173-15.365-8.871-28.269-21.553-38.748-36.94a144.863 144.863 0 0 1-5.516-8.778c-0.018 2.178-0.025 4.56-0.025 7.183z" p-id="4348"></path></svg>