<?xml version="1.0" standalone="no"?><!DOCTYPE svg PUBLIC "-//W3C//DTD SVG 1.1//EN" "http://www.w3.org/Graphics/SVG/1.1/DTD/svg11.dtd"><svg t="1566524471844" class="icon" viewBox="0 0 1024 1024" version="1.1" xmlns="http://www.w3.org/2000/svg" p-id="3242" xmlns:xlink="http://www.w3.org/1999/xlink" width="200" height="200"><defs><style type="text/css"></style></defs><path d="M430.838872 938.048923c0 47.313492-38.323588 85.739079-85.583081 85.939077l-0.063999 0.001H195.314402c-28.254696 0-51.148451-22.881754-51.148451-51.129451V676.612732C104.729375 668.892815 75.004694 634.119188 75.004694 592.585634V408.108616c0.156998-73.095215 45.173515-137.492523 110.572812-164.426234-26.02572-26.364717-41.246557-62.162332-41.246556-100.49492C144.33095 64.179311 208.601259 0 287.585411 0c79.039151 0 143.253461 64.23731 143.253461 143.187462 0 38.235589-15.356835 74.135204-41.392556 100.49592 65.409297 26.914711 110.396814 91.19802 110.553813 164.293235v184.444019c0 41.533554-29.724681 76.30618-69.161257 84.029097v261.59919zM345.286791 951.989774c7.372921 0 13.438856-6.098934 13.438856-13.531855V662.044888c0-30.67467 25.027731-55.571403 55.672401-55.571403 7.42992 0 13.602854-6.156934 13.602854-13.531854v-184.34802C427.855904 350.596234 380.193416 303.141744 321.975041 302.996745h-69.073258c-58.180375 0.143998-105.752864 47.688488-105.897862 105.724864v184.055023c0 7.374921 6.171934 13.531855 13.602854 13.531855 30.71467 0 55.672402 24.966732 55.672402 55.571403V951.989774h129.008614zM288.002406 71.999227c-39.163579 0-70.999237 31.835658-70.999237 70.999237s31.835658 70.999237 70.999237 70.999237c38.999581 0 70.999237-31.999656 70.999238-70.999237 0-39.163579-31.835658-70.999237-70.999238-70.999237z m488.668751 951.989773h-94.133989c-52.541436 0-95.261977-42.683541-95.261977-95.191977V747.440971h-26.121719c-30.513672 0-59.338363-14.799841-77.25717-39.589575-17.862808-24.906732-22.721756-57.025387-12.935861-85.772078l98.244944-293.655846c9.579897-28.995689 27.834701-53.652424 51.883443-71.034237-35.191622-26.641714-56.934388-68.545264-56.934388-114.180773C564.15444 64.18931 628.455749 0 707.4739 0c79.075151 0 143.31846 64.24531 143.318461 143.208462 0 45.542511-21.661767 87.395061-56.767391 114.005775a143.012464 143.012464 0 0 1 52.19944 71.333234l97.941948 293.571846c9.609897 28.999688 4.701949 61.085344-13.146859 85.778079-17.853808 24.698735-46.820497 39.543575-77.225171 39.543575h-26.121719V972.959548c0.197998 28.133698-22.739756 51.028452-51.001452 51.028452z m-215.347687-348.850252h33.009646c35.963614 0 65.1743 29.284685 65.174299 65.186299v188.529975c0 12.681864 10.449888 23.134751 23.126752 23.134752h73.136214V740.325047c0-35.968614 29.277685-65.1863 65.1753-65.186299h33.009646c7.369921 0 14.385845-3.603961 18.670799-9.584898 4.312954-6.017935 5.526941-13.910851 3.245965-20.853775l-98.066946-293.939843A70.674241 70.674241 0 0 0 710.527867 301.996756h-5.776938c-30.67567 0-57.615381 19.469791-67.308277 48.690477L539.239707 644.543076l-0.036999 0.109999c-2.352975 6.863926-1.203987 14.634843 3.049967 20.637778 4.751949 6.346932 11.634875 9.849894 19.070795 9.849895zM706.997905 71.999227c-39.163579 0-70.999237 31.835658-70.999237 70.999237s31.835658 70.999237 70.999237 70.999237c39.10258 0 70.999237-31.939657 70.999238-70.999237 0-39.163579-31.835658-70.999237-70.999238-70.999237z" p-id="3243"></path></svg>