<?xml version="1.0" standalone="no"?><!DOCTYPE svg PUBLIC "-//W3C//DTD SVG 1.1//EN" "http://www.w3.org/Graphics/SVG/1.1/DTD/svg11.dtd"><svg t="1566524936246" class="icon" viewBox="0 0 1024 1024" version="1.1" xmlns="http://www.w3.org/2000/svg" p-id="5347" xmlns:xlink="http://www.w3.org/1999/xlink" width="200" height="200"><defs><style type="text/css"></style></defs><path d="M115.798 95.618c-21.317 0-38.6 17.319-38.6 38.683v232.095c0 21.364 17.283 38.683 38.6 38.683h231.597c21.318 0 38.6-17.32 38.6-38.683V134.3c0-21.363-17.282-38.682-38.6-38.682H115.798z m0-77.365h231.597c63.954 0 115.799 51.956 115.799 116.047v232.096c0 64.091-51.845 116.048-115.799 116.048H115.798C51.845 482.444 0 430.487 0 366.396V134.3C0 70.21 51.845 18.254 115.798 18.254z m0 618.921c-21.317 0-38.6 17.319-38.6 38.683v232.095c0 21.364 17.283 38.683 38.6 38.683h231.597c21.318 0 38.6-17.319 38.6-38.683V675.857c0-21.364-17.282-38.683-38.6-38.683H115.798z m0-77.365h231.597c63.954 0 115.799 51.956 115.799 116.048v232.095c0 64.092-51.845 116.048-115.799 116.048H115.798C51.845 1024 0 972.044 0 907.952V675.857c0-64.092 51.845-116.048 115.798-116.048z m540.393 77.365c-21.318 0-38.6 17.319-38.6 38.683v232.095c0 21.364 17.282 38.683 38.6 38.683h231.597c21.318 0 38.6-17.319 38.6-38.683V675.857c0-21.364-17.282-38.683-38.6-38.683H656.19z m0-77.365h231.597c63.954 0 115.798 51.956 115.798 116.048v232.095c0 64.092-51.844 116.048-115.798 116.048H656.19c-63.954 0-115.798-51.956-115.798-116.048V675.857c0-64.092 51.844-116.048 115.798-116.048z m-45.509-335.726a38.725 38.725 0 0 0-11.32 27.368 38.725 38.725 0 0 0 11.32 27.368L745.78 414.208a38.558 38.558 0 0 0 27.31 11.345 38.558 38.558 0 0 0 27.309-11.345l135.098-135.39a38.725 38.725 0 0 0 11.32-27.367 38.725 38.725 0 0 0-11.32-27.368L800.399 88.693a38.558 38.558 0 0 0-27.31-11.344 38.558 38.558 0 0 0-27.309 11.345L610.682 224.083z m-54.58-54.697l135.099-135.39A115.672 115.672 0 0 1 773.09 0c30.715 0 60.171 12.23 81.888 33.997l135.098 135.389C1011.797 191.149 1024 220.67 1024 251.45c0 30.78-12.203 60.301-33.924 82.065L854.978 468.905A115.672 115.672 0 0 1 773.09 502.9a115.672 115.672 0 0 1-81.89-33.996l-135.097-135.39c-21.721-21.763-33.924-51.283-33.924-82.064 0-30.781 12.203-60.302 33.924-82.065z" p-id="5348"></path></svg>