<?xml version="1.0" standalone="no"?><!DOCTYPE svg PUBLIC "-//W3C//DTD SVG 1.1//EN" "http://www.w3.org/Graphics/SVG/1.1/DTD/svg11.dtd"><svg t="1566524913316" class="icon" viewBox="0 0 1024 1024" version="1.1" xmlns="http://www.w3.org/2000/svg" p-id="4847" xmlns:xlink="http://www.w3.org/1999/xlink" width="200" height="200"><defs><style type="text/css"></style></defs><path d="M512 1024C229.23 1024 0 794.77 0 512S229.23 0 512 0s512 229.23 512 512-229.23 512-512 512z m0-72c243.005 0 440-196.995 440-440S755.005 72 512 72 72 268.995 72 512s196.995 440 440 440zM402.444 519.598C364.303 488.05 340 440.362 340 386.998 340 292.006 417.007 215 512 215s172 77.006 172 171.998c0 53.364-24.303 101.052-62.444 132.6C719.484 561.994 788 659.496 788 773c0 19.882-16.118 36-36 36s-36-16.118-36-36c0-112.666-91.334-204-204-204s-204 91.334-204 204c0 19.882-16.118 36-36 36s-36-16.118-36-36c0-113.504 68.516-211.006 166.444-253.402zM512 486.996c55.229 0 100-44.77 100-99.998C612 331.771 567.229 287 512 287s-100 44.77-100 99.998 44.771 99.998 100 99.998z" p-id="4848"></path></svg>