<?xml version="1.0" standalone="no"?><!DOCTYPE svg PUBLIC "-//W3C//DTD SVG 1.1//EN" "http://www.w3.org/Graphics/SVG/1.1/DTD/svg11.dtd"><svg class="icon" width="48px" height="48.00px" viewBox="0 0 1024 1024" version="1.1" xmlns="http://www.w3.org/2000/svg"><path d="M512 12.636315m49.936369 49.936368l399.490948 399.490948q49.936369 49.936369 0 99.872738l-399.490948 399.490948q-49.936369 49.936369-99.872738 0l-399.490948-399.490948q-49.936369-49.936369 0-99.872738l399.490948-399.490948q49.936369-49.936369 99.872738 0Z" fill="#5292FF" /><path d="M704.935724 517.12l2.065655 0.03531a17.655172 17.655172 0 0 1 16.295724 18.90869C715.458207 641.641931 627.288276 723.862069 520.827586 723.862069a17.655172 17.655172 0 0 1 0-35.310345c87.922759 0 160.785655-67.919448 167.265104-155.10069a17.655172 17.655172 0 0 1 14.830344-16.136827l2.01269-0.176552z m-335.448276-104.818759a17.655172 17.655172 0 0 1 6.355862 24.152276A166.841379 166.841379 0 0 0 353.103448 520.827586a167.371034 167.371034 0 0 0 73.533793 138.804966 17.655172 17.655172 0 0 1-19.844413 29.201655A202.681379 202.681379 0 0 1 317.793103 520.827586c-0.017655-36.369655 9.586759-71.415172 27.542069-102.170483a17.655172 17.655172 0 0 1 24.134621-6.355862zM520.827586 317.793103c74.752 0 142.37131 40.765793 177.858207 105.030621a17.655172 17.655172 0 0 1-30.914207 17.054897A167.653517 167.653517 0 0 0 520.827586 353.103448a167.000276 167.000276 0 0 0-71.821241 16.101518 17.655172 17.655172 0 0 1-15.148138-31.885242A202.292966 202.292966 0 0 1 520.827586 317.793103z" fill="#FFFFFF" /><path d="M529.655172 688.551724m-70.620689 0a70.62069 70.62069 0 1 0 141.241379 0 70.62069 70.62069 0 1 0-141.241379 0Z" fill="#FFFFFF" /><path d="M353.103448 423.724138m-70.620689 0a70.62069 70.62069 0 1 0 141.241379 0 70.62069 70.62069 0 1 0-141.241379 0Z" fill="#FFFFFF" /><path d="M688.551724 423.724138m-70.62069 0a70.62069 70.62069 0 1 0 141.24138 0 70.62069 70.62069 0 1 0-141.24138 0Z" fill="#FFFFFF" /></svg>