<?xml version="1.0" standalone="no"?><!DOCTYPE svg PUBLIC "-//W3C//DTD SVG 1.1//EN" "http://www.w3.org/Graphics/SVG/1.1/DTD/svg11.dtd"><svg t="1578540460068" class="icon" viewBox="0 0 1024 1024" version="1.1" xmlns="http://www.w3.org/2000/svg" p-id="3413" xmlns:xlink="http://www.w3.org/1999/xlink" width="16" height="16"><defs><style type="text/css"></style></defs><path d="M670.8224 293.4784a35.584 35.584 0 0 1 0-71.168h95.232c19.712 0 35.6352 15.9232 35.6352 35.584v95.2832a35.584 35.584 0 1 1-71.168 0v-9.3696L568.9344 505.344a35.584 35.584 0 0 1-50.3296 0L385.024 371.712l-101.888 101.888a35.584 35.584 0 1 1-50.3296-50.3296l127.0272-127.0272a35.584 35.584 0 0 1 50.3296 0l133.632 133.632 136.448-136.448h-9.3696z" p-id="3414"></path><path d="M547.584 769.8944v182.9376h123.2384a35.584 35.584 0 0 1 0 71.168H353.1776a35.584 35.584 0 0 1 0-71.168h123.2384v-182.9376H162.6112a99.072 99.072 0 0 1-99.072-99.072V71.168H35.584a35.584 35.584 0 1 1 0-71.168h952.832a35.584 35.584 0 0 1 0 71.168h-27.9552v599.6544a99.072 99.072 0 0 1-99.072 99.072h-313.856zM134.656 71.168v599.6544c0 15.4112 12.544 27.9552 27.9552 27.9552h698.7776a27.9552 27.9552 0 0 0 27.9552-27.9552V71.168H134.656z" p-id="3415"></path></svg>