<?xml version="1.0" standalone="no"?><!DOCTYPE svg PUBLIC "-//W3C//DTD SVG 1.1//EN" "http://www.w3.org/Graphics/SVG/1.1/DTD/svg11.dtd"><svg class="icon" width="32px" height="32.00px" viewBox="0 0 1024 1024" version="1.1" xmlns="http://www.w3.org/2000/svg"><path  d="M199.111111 967.111111a28.444444 28.444444 0 1 1 0-56.888889h284.444445v-170.666666H170.666667a113.777778 113.777778 0 0 1-113.777778-113.777778V170.666667a113.777778 113.777778 0 0 1 113.777778-113.777778h682.666666a113.777778 113.777778 0 0 1 113.777778 113.777778v455.111111a113.777778 113.777778 0 0 1-113.777778 113.777778H540.444444v170.666666h284.444445a28.444444 28.444444 0 1 1 0 56.888889h-625.777778zM853.333333 113.777778H170.666667a56.888889 56.888889 0 0 0-56.490667 50.232889L113.777778 170.666667v455.111111a56.888889 56.888889 0 0 0 50.232889 56.490666L170.666667 682.666667h682.666666a56.888889 56.888889 0 0 0 56.490667-50.232889L910.222222 625.777778V170.666667a56.888889 56.888889 0 0 0-50.232889-56.490667L853.333333 113.777778zM241.777778 199.111111a42.666667 42.666667 0 1 1 0 85.333333 42.666667 42.666667 0 0 1 0-85.333333z m142.222222 0a42.666667 42.666667 0 1 1 0 85.333333 42.666667 42.666667 0 0 1 0-85.333333z m142.222222 0a42.666667 42.666667 0 1 1 0 85.333333 42.666667 42.666667 0 0 1 0-85.333333z" /></svg>
