<?xml version="1.0" standalone="no"?><!DOCTYPE svg PUBLIC "-//W3C//DTD SVG 1.1//EN" "http://www.w3.org/Graphics/SVG/1.1/DTD/svg11.dtd"><svg class="icon" width="32px" height="32.00px" viewBox="0 0 1024 1024" version="1.1" xmlns="http://www.w3.org/2000/svg"><path  d="M530.261333 4.835556l418.588445 237.966222a35.896889 35.896889 0 0 1 18.261333 31.175111v476.046222a35.896889 35.896889 0 0 1-18.261333 31.175111L530.204444 1019.164444a37.034667 37.034667 0 0 1-36.522666 0L75.093333 781.198222A35.896889 35.896889 0 0 1 56.888889 750.023111V273.976889c0-12.856889 6.940444-24.746667 18.261333-31.175111L493.795556 4.835556a37.034667 37.034667 0 0 1 36.522666 0zM512 77.596444L129.991111 294.798222v434.403556L512 946.403556l382.008889-217.201778V294.798222L512 77.596444z m111.672889 146.830223c5.688889 5.518222 9.102222 12.856889 9.728 20.48a31.857778 31.857778 0 0 1-0.455111 12.401777l-45.511111 193.763556h128.056889a33.564444 33.564444 0 0 1 19.285333 6.030222 32.085333 32.085333 0 0 1 6.883555 51.029334L447.260444 799.288889a33.450667 33.450667 0 0 1-46.933333 0.227555 32.085333 32.085333 0 0 1-8.988444-30.549333 31.914667 31.914667 0 0 1 0.853333-4.949333l46.421333-190.350222H305.948444a32.881778 32.881778 0 0 1-33.223111-32.540445v-1.251555a32.142222 32.142222 0 0 1 9.671111-24.064L576.682667 224.711111a33.678222 33.678222 0 0 1 46.933333-0.227555zM542.947556 350.549333l-159.857778 158.151111h97.678222a32.881778 32.881778 0 0 1 31.630222 42.439112l-29.411555 120.376888 157.127111-155.420444H548.807111a33.450667 33.450667 0 0 1-24.632889-10.695111 32.142222 32.142222 0 0 1-10.24-31.516445l29.013334-123.335111z" /></svg>
