<?xml version="1.0" standalone="no"?><!DOCTYPE svg PUBLIC "-//W3C//DTD SVG 1.1//EN" "http://www.w3.org/Graphics/SVG/1.1/DTD/svg11.dtd"><svg class="icon" width="32px" height="32.00px" viewBox="0 0 1024 1024" version="1.1" xmlns="http://www.w3.org/2000/svg"><path  d="M799.963429 0.219429H226.304C142.189714 0.219429 73.362286 64.292571 73.362286 142.774857v702.025143c0 19.675429 5.705143 39.277714 17.188571 55.296 32.548571 49.883429 103.131429 65.974857 156.745143 35.620571l248.685714-140.726857a40.301714 40.301714 0 0 1 40.155429 0l240.932571 138.971429c17.188571 10.752 38.180571 16.091429 59.245715 16.091428 63.122286 0 114.688-48.128 114.688-106.934857V142.774857c1.901714-78.482286-66.998857-142.628571-151.04-142.628571z m76.434285 842.898285c0 19.602286-17.188571 35.620571-38.253714 35.620572a34.157714 34.157714 0 0 1-19.163429-5.339429L578.121143 734.354286a117.76 117.76 0 0 0-118.564572 0l-248.612571 140.8c-17.188571 10.752-42.057143 5.339429-51.565714-12.434286a32.475429 32.475429 0 0 1-5.705143-17.92V142.774857c0-39.204571 34.377143-71.314286 76.434286-71.314286H803.84c42.057143 0 76.507429 32.109714 76.507429 71.314286v700.342857h-3.876572zM292.571429 219.428571m36.571428 0l365.714286 0q36.571429 0 36.571428 36.571429l0 0q0 36.571429-36.571428 36.571429l-365.714286 0q-36.571429 0-36.571428-36.571429l0 0q0-36.571429 36.571428-36.571429ZM292.571429 438.857143m36.571428 0l365.714286 0q36.571429 0 36.571428 36.571428l0 0q0 36.571429-36.571428 36.571429l-365.714286 0q-36.571429 0-36.571428-36.571429l0 0q0-36.571429 36.571428-36.571428Z" /></svg>
