<?xml version="1.0" standalone="no"?><!DOCTYPE svg PUBLIC "-//W3C//DTD SVG 1.1//EN" "http://www.w3.org/Graphics/SVG/1.1/DTD/svg11.dtd"><svg class="icon" width="32px" height="32.00px" viewBox="0 0 1024 1024" version="1.1" xmlns="http://www.w3.org/2000/svg"><path  d="M512 0c282.4704 0 512 230.0928 512 512s-230.0928 512-512 512C229.5296 1024 0 793.9072 0 512 0 229.5296 230.0928 0 512 0z m31.7952 73.5232V157.184c0 17.664-14.7456 31.744-31.7952 31.744a32 32 0 0 1-31.744-31.744l-0.0512-83.6096a439.7568 439.7568 0 0 0-341.504 207.2576l68.4544 39.3728c15.3088 8.8064 20.5824 27.648 11.1616 42.9568a30.5152 30.5152 0 0 1-42.9568 11.1616l-65.9456-37.888a436.0192 436.0192 0 0 0-36.4544 175.0528c0 62.3616 13.1072 121.7536 36.7616 175.616l81.5616-47.9232a30.5152 30.5152 0 0 1 42.9568 11.1616 31.3344 31.3344 0 0 1-11.2128 43.008l-83.968 49.3056A439.3472 439.3472 0 0 0 512 950.4768a439.3984 439.3984 0 0 0 374.4256-210.2272l-83.712-47.0016a30.5152 30.5152 0 0 1-11.1616-42.9568 30.5152 30.5152 0 0 1 42.9568-11.1616l80.896 45.3632a436.0704 436.0704 0 0 0 35.6352-173.056c0-61.952-12.9024-120.832-36.1984-174.336l-76.2368 44.2368a31.232 31.232 0 0 1-42.9568-11.1616 31.3344 31.3344 0 0 1 11.2128-43.008l78.848-45.7728a439.7568 439.7568 0 0 0-341.9136-207.872zM261.5808 363.264a35.4816 35.4816 0 0 1 47.616-13.568L453.12 430.848c11.776-11.1616 27.0336-18.8416 42.9056-23.552a103.936 103.936 0 0 1 128.1536 74.6496 105.1648 105.1648 0 0 1-74.0864 128.768 105.1648 105.1648 0 0 1-128.7168-74.0864 114.5344 114.5344 0 0 1-1.7408-44.6464L275.0976 410.8288a35.4816 35.4816 0 0 1-13.5168-47.616z m296.8064 136.3456a35.6864 35.6864 0 1 0-65.8432-7.68 35.6864 35.6864 0 0 0 40.5504 51.2 37.2224 37.2224 0 0 0 25.2928-43.52z" /></svg>
