<?xml version="1.0" standalone="no"?><!DOCTYPE svg PUBLIC "-//W3C//DTD SVG 1.1//EN" "http://www.w3.org/Graphics/SVG/1.1/DTD/svg11.dtd"><svg class="icon" width="32px" height="32.00px" viewBox="0 0 1024 1024" version="1.1" xmlns="http://www.w3.org/2000/svg"><path  d="M512 36.571429a475.428571 475.428571 0 1 1 0 950.857142 475.428571 475.428571 0 0 1 0-950.857142z m0 73.142857a402.285714 402.285714 0 1 0 0 804.571428 402.285714 402.285714 0 0 0 0-804.571428z m73.142857 146.285714a146.285714 146.285714 0 1 1 0 292.571429H402.285714v204.8a14.628571 14.628571 0 0 1-14.628571 14.628571h-43.885714a14.628571 14.628571 0 0 1-14.628572-14.628571V270.628571c0-8.045714 6.582857-14.628571 14.628572-14.628571H585.142857z m0 73.142857H402.285714v146.285714H585.142857a73.142857 73.142857 0 0 0 8.557714-145.773714L585.142857 329.142857z" /></svg>
