<?xml version="1.0" standalone="no"?><!DOCTYPE svg PUBLIC "-//W3C//DTD SVG 1.1//EN" "http://www.w3.org/Graphics/SVG/1.1/DTD/svg11.dtd"><svg class="icon" width="32px" height="32.00px" viewBox="0 0 1024 1024" version="1.1" xmlns="http://www.w3.org/2000/svg"><path  d="M520.265143 75.410286l386.194286 230.546285c4.827429 2.925714 7.826286 8.045714 7.826285 13.677715v615.204571a16.091429 16.091429 0 0 1-16.091428 16.018286H125.805714a16.091429 16.091429 0 0 1-16.091428-16.018286v-615.131428c0-5.705143 2.925714-10.898286 7.826285-13.750858l386.194286-230.546285a16.164571 16.164571 0 0 1 16.530286 0zM512 146.285714L182.857143 345.014857V877.714286h658.285714V345.014857L512 146.285714z m130.267429 272.969143a182.857143 182.857143 0 0 1 23.259428 230.180572l88.137143 88.064a14.628571 14.628571 0 0 1 0 20.699428l-31.012571 31.085714a14.628571 14.628571 0 0 1-20.699429 0L613.814857 701.147429a182.857143 182.857143 0 1 1 28.452572-281.892572z m-206.848 51.712a109.714286 109.714286 0 1 0 155.062857 155.209143 109.714286 109.714286 0 0 0-155.062857-155.209143z" /></svg>
