<?xml version="1.0" standalone="no"?><!DOCTYPE svg PUBLIC "-//W3C//DTD SVG 1.1//EN" "http://www.w3.org/Graphics/SVG/1.1/DTD/svg11.dtd"><svg class="icon" width="32px" height="32.00px" viewBox="0 0 1024 1024" version="1.1" xmlns="http://www.w3.org/2000/svg"><path  d="M512 0c282.7776 0 512 229.2224 512 512s-229.2224 512-512 512S0 794.7776 0 512 229.2224 0 512 0z m0 71.9872a440.0128 440.0128 0 1 0 0 880.0256 440.0128 440.0128 0 0 0 0-880.0256z m23.3984 132.4544a1521.408 1521.408 0 0 1 39.2192 42.2912c26.5216 29.696 52.736 61.2864 77.056 93.44 31.0784 41.1136 56.9344 80.5376 75.9296 117.1456 22.8352 44.032 35.2768 82.944 35.2768 116.0704 0 141.1072-112.4352 256.0512-250.88 256.0512s-250.88-114.944-250.88-256c0-33.1776 12.4416-72.0896 35.328-116.1216 18.944-36.608 44.8-76.032 75.8784-117.1456a1511.5264 1511.5264 0 0 1 116.224-135.7312 32.7168 32.7168 0 0 1 46.848 0zM512 276.1216A1394.176 1394.176 0 0 0 399.7184 415.232c-46.2848 66.56-72.704 122.0096-72.704 158.1056 0 104.5504 83.0976 189.44 184.9856 189.44s184.9856-84.9408 184.9856-189.44c0-36.096-26.4192-91.5968-72.704-158.1056A1394.6368 1394.6368 0 0 0 512 276.1216z m135.3216 261.7344a33.2288 33.2288 0 0 1 28.9792 36.7616c-8.704 77.9776-61.952 142.7968-135.7824 165.0688a32.8192 32.8192 0 0 1-41.0112-22.528 33.3824 33.3824 0 0 1 22.1696-41.3184 127.3344 127.3344 0 0 0 89.088-108.6464 32.9728 32.9728 0 0 1 36.5568-29.3376z" /></svg>
