<?xml version="1.0" standalone="no"?><!DOCTYPE svg PUBLIC "-//W3C//DTD SVG 1.1//EN" "http://www.w3.org/Graphics/SVG/1.1/DTD/svg11.dtd"><svg class="icon" width="32px" height="32.00px" viewBox="0 0 1024 1024" version="1.1" xmlns="http://www.w3.org/2000/svg"><path  d="M947.290624 51.2512c34.2528 0.512 66.7136 23.1936 74.5472 56.1152 1.6896 7.68 2.2016 15.1552 2.2016 22.784v571.1872c-0.512 39.7824-33.1776 72.192-74.3936 73.9328-0.7168 0.1024-1.4336 0.1024-2.2016 0.1024h-401.3056v131.584h239.3088c19.1488 0 33.1776 15.0528 34.048 32.8704 0.768 17.664-16.2304 32.768-34.048 32.768h-0.9216c-22.1184 0.4096-44.1856 0-66.304 0h-479.232a33.9968 33.9968 0 0 1-34.048-32.8192c-0.768-17.7152 16.2304-32.768 34.048-32.768h0.9216c22.1184-0.4608 44.1856 0 66.304 0h171.9808v-131.6864H76.993024c-34.0992-0.256-64-21.9136-73.8304-53.3504-4.096-13.2096-3.0208-27.904-3.0208-41.5744V151.4496c0-8.8064-0.0512-17.408 0-26.1632 0.3584-18.944 7.6288-36.1984 20.6336-50.2784 13.568-14.7456 33.1776-22.272 53.0944-23.6544 2.5088-0.2048 4.9664-0.1024 7.424-0.1024zM87.642624 116.6336l-11.4176 0.1536c-0.9728 0.2048-1.8432 0.512-2.6624 0.7168l-1.9456 1.1264c-0.512 0.4608-0.9216 0.9728-1.536 1.4848-0.3584 0.6144-0.8192 1.2288-1.1264 1.8432l-0.6656 2.2528c-0.1024 0.512-0.1024 1.1264-0.1024 1.6384V687.104c0 4.864-0.1536 10.0352 0 15.104 0.1024 0.8192 0.512 1.5872 0.6656 2.4064l1.1264 1.8432 1.536 1.536c0.6656 0.3584 1.28 0.768 1.9456 1.0752l2.304 0.6144h872.6016l2.3552-0.6656 1.8944-1.1264 1.536-1.4336 1.1264-1.8432 0.6656-2.304c0.1024-0.512 0.1024-1.1264 0.1024-1.6384V139.4176c0-4.9152 0.2048-10.0352 0-15.104-0.1024-0.8192-0.4096-1.6384-0.6656-2.4576l-1.1264-1.8432c-0.4608-0.512-1.024-0.9216-1.536-1.4336a19.968 19.968 0 0 0-1.8944-1.1776l-2.3552-0.6144H99.162624c-7.5776 0-15.36-0.3584-22.9376 0z m424.5504 132.864c16.6912-0.6656 31.1296 12.8 33.6384 28.16l0.3584 4.608v328.8576c0 18.432-15.5648 32-34.048 32.768-16.64 0.7168-31.1296-12.8-33.6384-28.16l-0.3584-4.608V282.3168c0-18.432 15.616-32 34.048-32.8192zM716.839424 380.5696c16.6912-0.7168 31.0784 12.8 33.5872 28.16l0.4096 4.7104v197.5808c0 18.432-15.5648 32-33.9968 32.768-16.6912 0.6656-31.1808-12.8-33.6384-28.16l-0.4096-4.608v-197.632c0-18.432 15.5648-31.9488 34.048-32.768zM307.546624 314.88c16.64-0.6144 31.1296 12.8 33.6384 28.16l0.3584 4.7104v263.168c0 18.432-15.5648 32.0512-33.9968 32.8192-16.6912 0.6656-31.1808-12.8-33.6384-28.16l-0.4096-4.608V347.648c0-18.432 15.5648-32 34.048-32.768z" /></svg>
