<?xml version="1.0" standalone="no"?><!DOCTYPE svg PUBLIC "-//W3C//DTD SVG 1.1//EN" "http://www.w3.org/Graphics/SVG/1.1/DTD/svg11.dtd"><svg class="icon" width="32px" height="32.00px" viewBox="0 0 1024 1024" version="1.1" xmlns="http://www.w3.org/2000/svg"><path  d="M36 1024c-19.882 0-36-16.118-36-36s16.118-36 36-36h58V72c0-39.765 32.235-72 72-72h404c39.765 0 72 32.235 72 72v124h216c39.765 0 72 32.235 72 72v684h58c19.882 0 36 16.118 36 36s-16.118 36-36 36H36z m822-756H642v684h216V268zM570 72H166v880h404V72z m180 568c19.882 0 36 16.118 36 36v72c0 19.882-16.118 36-36 36s-36-16.118-36-36v-72c0-19.882 16.118-36 36-36z m-282 70c19.882 0 36 16.118 36 36s-16.118 36-36 36H260c-19.882 0-36-16.118-36-36s16.118-36 36-36h208z m0-234c19.882 0 36 16.118 36 36s-16.118 36-36 36H260c-19.882 0-36-16.118-36-36s16.118-36 36-36h208z m282-76c19.882 0 36 16.118 36 36v72c0 19.882-16.118 36-36 36s-36-16.118-36-36v-72c0-19.882 16.118-36 36-36zM468 242c19.882 0 36 16.118 36 36s-16.118 36-36 36H260c-19.882 0-36-16.118-36-36s16.118-36 36-36h208z" /></svg>
