<?xml version="1.0" standalone="no"?><!DOCTYPE svg PUBLIC "-//W3C//DTD SVG 1.1//EN" "http://www.w3.org/Graphics/SVG/1.1/DTD/svg11.dtd"><svg class="icon" width="32px" height="32.00px" viewBox="0 0 1024 1024" version="1.1" xmlns="http://www.w3.org/2000/svg"><path  d="M932.010667 113.777778H91.932444C41.244444 113.777778 0 159.402667 0 215.495111v372.451556c0 56.035556 41.244444 101.717333 91.932444 101.717333h840.078223c50.744889 0 91.989333-45.681778 91.989333-101.774222V215.665778C1024 159.516444 982.755556 113.777778 932.010667 113.777778z m27.932444 448v26.168889c0 20.48-12.8 37.774222-27.932444 37.774222H91.932444c-15.246222 0-27.989333-17.408-27.989333-37.831111V215.495111c0-20.48 12.743111-37.717333 27.989333-37.717333h840.078223c15.189333 0 27.989333 17.351111 27.989333 37.888V497.777778H64.170667v64h895.772444zM704.056889 241.777778h191.886222v63.943111h-191.886222V241.834667zM150.755556 795.079111a31.971556 31.971556 0 1 0-45.283556 45.226667l64 64a31.857778 31.857778 0 0 0 45.226667 0 31.971556 31.971556 0 0 0 0-45.283556L150.755556 795.079111z m255.886222 0a31.971556 31.971556 0 1 0-45.226667 45.226667l64 64a31.857778 31.857778 0 0 0 45.226667 0 31.971556 31.971556 0 0 0 0-45.283556L406.755556 795.079111z m256 0a31.971556 31.971556 0 1 0-45.283556 45.226667l64 64a31.857778 31.857778 0 0 0 45.226667 0 31.971556 31.971556 0 0 0 0-45.283556l-63.943111-63.943111z m255.886222 0a31.971556 31.971556 0 1 0-45.226667 45.226667l64 64a31.857778 31.857778 0 0 0 45.226667 0 31.971556 31.971556 0 0 0 0-45.283556l-64-63.943111z" /></svg>
