<?xml version="1.0" standalone="no"?><!DOCTYPE svg PUBLIC "-//W3C//DTD SVG 1.1//EN" "http://www.w3.org/Graphics/SVG/1.1/DTD/svg11.dtd"><svg class="icon" width="32px" height="32.00px" viewBox="0 0 1024 1024" version="1.1" xmlns="http://www.w3.org/2000/svg"><path  d="M443.164444 59.335111a30.321778 30.321778 0 0 1 23.893334 0l424.789333 182.044445a30.321778 30.321778 0 0 1 18.375111 27.875555v485.489778a30.321778 30.321778 0 0 1-18.375111 27.875555l-424.789333 182.044445a30.321778 30.321778 0 0 1-23.893334 0l-424.789333-182.044445a30.321778 30.321778 0 0 1-18.375111-27.875555V269.255111c0-12.117333 7.224889-23.096889 18.375111-27.875555z m406.357334 255.886222l-364.088889 156.103111v419.441778l364.088889-156.046222V315.164444z m-788.878222 0v419.498667l364.088888 155.989333V471.324444l-364.088888-156.103111zM455.111111 120.206222l-347.818667 149.048889L455.111111 418.304l347.761778-149.048889L455.111111 120.206222z" /></svg>
