<?xml version="1.0" standalone="no"?><!DOCTYPE svg PUBLIC "-//W3C//DTD SVG 1.1//EN" "http://www.w3.org/Graphics/SVG/1.1/DTD/svg11.dtd"><svg class="icon" width="32px" height="32.00px" viewBox="0 0 1024 1024" version="1.1" xmlns="http://www.w3.org/2000/svg"><path  d="M608.256 718.848H492.032c-20.992 0-38.4-17.408-38.4-38.4s17.408-38.4 38.4-38.4h116.224c5.12 0 9.728-4.096 9.728-9.728V155.648c0-5.12-4.096-9.728-9.728-9.728H131.584c-5.12 0-9.728 4.096-9.728 9.728v477.184c0 5.12 4.096 9.728 9.728 9.728h116.224c20.992 0 38.4 17.408 38.4 38.4s-17.408 38.4-38.4 38.4H131.584c-47.616 0-86.528-38.912-86.528-86.528V155.648c0-47.616 38.912-86.528 86.528-86.528h477.184c47.616 0 86.528 38.912 86.528 86.528v477.184c-0.512 47.104-39.424 86.016-87.04 86.016z"  /><path  d="M894.464 949.248H417.792c-47.616 0-86.528-38.912-86.528-86.528V386.048c0-47.616 38.912-86.528 86.528-86.528h116.224c20.992 0 38.4 17.408 38.4 38.4s-17.408 38.4-38.4 38.4H417.792c-5.12 0-9.728 4.096-9.728 9.728v477.184c0 5.12 4.096 9.728 9.728 9.728h477.184c5.12 0 9.728-4.096 9.728-9.728V386.048c0-5.12-4.096-9.728-9.728-9.728H778.24c-20.992 0-38.4-17.408-38.4-38.4s17.408-38.4 38.4-38.4h116.224c47.616 0 86.528 38.912 86.528 86.528v477.184c0 47.616-38.912 86.016-86.528 86.016z"  /></svg>
