<?xml version="1.0" standalone="no"?><!DOCTYPE svg PUBLIC "-//W3C//DTD SVG 1.1//EN" "http://www.w3.org/Graphics/SVG/1.1/DTD/svg11.dtd"><svg class="icon" width="32px" height="32.00px" viewBox="0 0 1024 1024" version="1.1" xmlns="http://www.w3.org/2000/svg"><path  d="M87.771429 950.857143a14.628571 14.628571 0 0 1-14.628572-14.628572V87.771429c0-8.045714 6.582857-14.628571 14.628572-14.628572h555.885714c8.045714 0 14.628571 6.582857 14.628571 14.628572V365.714286h277.942857c8.045714 0 14.628571 6.582857 14.628572 14.628571v555.885714a14.628571 14.628571 0 0 1-14.628572 14.628572H87.771429zM585.142857 146.285714H146.285714v731.428572h438.857143V146.285714z m292.571429 292.571429H658.285714v438.857143h219.428572V438.857143zM497.371429 512c8.045714 0 14.628571 6.582857 14.628571 14.628571v43.885715a14.628571 14.628571 0 0 1-14.628571 14.628571H234.057143a14.628571 14.628571 0 0 1-14.628572-14.628571v-43.885715c0-8.045714 6.582857-14.628571 14.628572-14.628571h263.314286z m0-219.428571c8.045714 0 14.628571 6.582857 14.628571 14.628571v43.885714a14.628571 14.628571 0 0 1-14.628571 14.628572H234.057143a14.628571 14.628571 0 0 1-14.628572-14.628572v-43.885714c0-8.045714 6.582857-14.628571 14.628572-14.628571h263.314286z" /></svg>
