<?xml version="1.0" standalone="no"?><!DOCTYPE svg PUBLIC "-//W3C//DTD SVG 1.1//EN" "http://www.w3.org/Graphics/SVG/1.1/DTD/svg11.dtd"><svg class="icon" width="32px" height="32.00px" viewBox="0 0 1024 1024" version="1.1" xmlns="http://www.w3.org/2000/svg"><path  d="M279.284 616c19.901 0 36.034 16.118 36.034 36s-16.133 36-36.034 36H169.5L85.35 952h853.3L854.5 688H742.714c-19.901 0-36.034-16.118-36.034-36s16.133-36 36.034-36h138.128c15.688 0 29.574 10.141 34.334 25.076l107.1 336c7.4 23.22-9.944 46.924-34.335 46.924H36.059c-24.391 0-41.735-23.704-34.334-46.924l107.099-336C113.584 626.141 127.47 616 143.158 616h136.126z m352.36 168c19.882 0 36 16.118 36 36s-16.118 36-36 36H387.351c-19.882 0-36-16.118-36-36s16.118-36 36-36h244.293zM511.5 0c174.683 0 316.292 141.478 316.292 316 0 87.799-36.068 169.93-98.542 229.192L536.979 729.947c-13.92 13.374-35.917 13.408-49.877 0.077L294.524 546.12c-62.976-59.248-99.317-141.782-99.317-230.12 0-174.522 141.609-316 316.293-316z m0 72c-134.883 0-244.227 109.243-244.227 244 0 68.353 28.048 132.014 76.74 177.78l0.206 0.196 167.704 160.15 167.456-160.91 0.178-0.17c48.332-45.81 76.169-109.164 76.169-177.046 0-134.757-109.344-244-244.226-244z m0 104c77.391 0 140.13 62.68 140.13 140S588.89 456 511.5 456c-77.392 0-140.13-62.68-140.13-140s62.738-140 140.13-140z m0 72c-37.59 0-68.063 30.445-68.063 68s30.472 68 68.063 68c37.59 0 68.063-30.445 68.063-68s-30.473-68-68.063-68z" /></svg>
