<?xml version="1.0" standalone="no"?><!DOCTYPE svg PUBLIC "-//W3C//DTD SVG 1.1//EN" "http://www.w3.org/Graphics/SVG/1.1/DTD/svg11.dtd"><svg class="icon" width="32px" height="32.00px" viewBox="0 0 1024 1024" version="1.1" xmlns="http://www.w3.org/2000/svg"><path  d="M814.153143 587.776l8.484571 4.315429C902.582857 634.148571 950.857143 692.662857 950.857143 759.954286c0 137.069714-199.314286 234.788571-438.857143 234.788571s-438.857143-97.718857-438.857143-234.788571c0-68.754286 50.468571-128.585143 133.851429-170.788572l2.925714-1.462857a7.314286 7.314286 0 0 1 8.923429 2.048l40.740571 51.2a7.314286 7.314286 0 0 1-1.170286 10.459429l-0.731428 0.512-0.877715 0.438857c-67.876571 31.012571-103.862857 70.802286-103.862857 107.593143 0 79.067429 157.988571 156.525714 359.058286 156.525714 201.142857 0 359.131429-77.458286 359.131429-156.525714 0-36.205714-34.962286-75.337143-101.010286-106.276572a9.874286 9.874286 0 0 1-3.657143-15.140571l38.765714-48.786286a7.314286 7.314286 0 0 1 8.923429-1.974857zM512 0a329.142857 329.142857 0 0 1 329.142857 329.142857c0 119.369143-106.422857 274.944-319.341714 466.651429a14.628571 14.628571 0 0 1-15.945143 2.413714l-3.657143-2.413714C289.353143 604.086857 182.857143 448.512 182.857143 329.142857A329.142857 329.142857 0 0 1 512 0z m0 73.142857a256 256 0 0 0-256 256c0 82.797714 77.604571 204.8 236.763429 358.034286L512 705.389714l36.864-35.474285c141.604571-139.556571 213.357714-251.830857 218.843429-331.044572L768 329.142857A256 256 0 0 0 512 73.142857z m0 73.142857a146.285714 146.285714 0 1 1 0 292.571429 146.285714 146.285714 0 0 1 0-292.571429z m0 73.142857a73.142857 73.142857 0 1 0 0 146.285715 73.142857 73.142857 0 0 0 0-146.285715z" /></svg>
