<?xml version="1.0" standalone="no"?><!DOCTYPE svg PUBLIC "-//W3C//DTD SVG 1.1//EN" "http://www.w3.org/Graphics/SVG/1.1/DTD/svg11.dtd"><svg class="icon" width="32px" height="32.00px" viewBox="0 0 1024 1024" version="1.1" xmlns="http://www.w3.org/2000/svg"><path  d="M512 73.142857c241.371429 0 438.857143 197.485714 438.857143 438.857143 0 241.810286-197.485714 438.857143-438.857143 438.857143s-438.857143-197.046857-438.857143-438.857143c0-76.653714 21.796571-153.453714 58.514286-219.428571 10.971429-18.066286 36.571429-25.307429 51.2-14.555429 14.628571 11.117714 21.942857 33.060571 10.971428 51.419429C164.571429 384.292571 146.285714 446.390857 146.285714 512c0 201.508571 164.571429 366.08 365.714286 366.08 201.289143 0 365.860571-164.571429 365.860571-366.08 0-200.923429-164.571429-365.568-365.860571-365.568-65.755429 0-127.926857 18.358857-182.710857 47.542857-18.432 11.190857-40.301714 7.314286-51.273143-11.117714-7.314286-18.066286-3.657143-39.862857 14.555429-51.126857C358.4 95.378286 435.273143 73.142857 512 73.142857z m0 219.428572c21.796571 0 36.571429 14.921143 36.571429 36.864C548.571429 351.085714 533.869714 365.714286 512 365.714286a147.017143 147.017143 0 0 0-146.285714 146.139428 147.017143 147.017143 0 0 0 146.285714 146.651429 147.017143 147.017143 0 0 0 146.432-146.651429c0-21.869714 14.409143-36.425143 36.425143-36.425143 22.089143 0 36.571429 14.628571 36.571428 36.425143a220.013714 220.013714 0 0 1-219.428571 219.428572 220.16 220.16 0 0 1-219.428571-219.428572A220.233143 220.233143 0 0 1 512 292.571429z m146.432 0a73.289143 73.289143 0 1 1 0 146.578285 73.289143 73.289143 0 0 1 0-146.578285z" /></svg>
