<?xml version="1.0" standalone="no"?><!DOCTYPE svg PUBLIC "-//W3C//DTD SVG 1.1//EN" "http://www.w3.org/Graphics/SVG/1.1/DTD/svg11.dtd"><svg class="icon" width="32px" height="32.00px" viewBox="0 0 1024 1024" version="1.1" xmlns="http://www.w3.org/2000/svg"><path  d="M988 912c19.882 0 36 16.118 36 36s-16.118 36-36 36H36c-19.882 0-36-16.118-36-36s16.118-36 36-36h952z m0-176c19.882 0 36 16.118 36 36s-16.118 36-36 36H36c-19.882 0-36-16.118-36-36s16.118-36 36-36h952zM948 40c41.974 0 76 34.026 76 76v440c0 41.974-34.026 76-76 76H76c-41.974 0-76-34.026-76-76V116c0-41.974 34.026-76 76-76h872z m0 72H76a4 4 0 0 0-4 4v440a4 4 0 0 0 4 4h872a4 4 0 0 0 4-4V116a4 4 0 0 0-4-4zM468 220c19.882 0 36 16.118 36 36s-16.118 36-36 36H206c-19.882 0-36-16.118-36-36s16.118-36 36-36h262z" /></svg>
