<?xml version="1.0" standalone="no"?><!DOCTYPE svg PUBLIC "-//W3C//DTD SVG 1.1//EN" "http://www.w3.org/Graphics/SVG/1.1/DTD/svg11.dtd"><svg class="icon" width="32px" height="32.00px" viewBox="0 0 1024 1024" version="1.1" xmlns="http://www.w3.org/2000/svg"><path  d="M744.594286 146.285714a73.142857 73.142857 0 0 1 71.68 58.806857l34.523428 172.324572 26.916572-26.843429 5.12-4.242285a36.571429 36.571429 0 0 1 46.592 55.954285l-37.888 37.888A73.142857 73.142857 0 0 1 950.857143 512v219.428571a73.142857 73.142857 0 0 1-73.142857 73.142858h-73.142857v58.514285a14.628571 14.628571 0 0 1-14.628572 14.628572h-43.885714a14.628571 14.628571 0 0 1-14.628572-14.628572V804.571429H292.571429v58.514285a14.628571 14.628571 0 0 1-14.628572 14.628572h-43.885714a14.628571 14.628571 0 0 1-14.628572-14.628572V804.571429H146.285714a73.142857 73.142857 0 0 1-73.142857-73.142858V512a73.142857 73.142857 0 0 1 59.318857-71.826286L94.573714 402.285714a36.571429 36.571429 0 0 1 46.665143-55.954285L146.285714 350.573714l26.916572 26.843429 34.450285-172.324572A73.142857 73.142857 0 0 1 279.405714 146.285714h465.261715zM877.714286 512H146.285714v219.428571h731.428572V512z m-548.571429 54.857143a54.857143 54.857143 0 1 1 0 109.714286 54.857143 54.857143 0 0 1 0-109.714286z m365.714286 0a54.857143 54.857143 0 1 1 0 109.714286 54.857143 54.857143 0 0 1 0-109.714286zM744.594286 219.428571H279.405714l-43.958857 219.428572h553.033143l-43.885714-219.428572zM654.701714 293.888a36.571429 36.571429 0 0 1 6.582857 72.557714l-6.582857 0.585143h-292.571428a36.571429 36.571429 0 0 1-6.582857-72.557714l6.582857-0.585143h292.571428z" /></svg>
