<?xml version="1.0" standalone="no"?><!DOCTYPE svg PUBLIC "-//W3C//DTD SVG 1.1//EN" "http://www.w3.org/Graphics/SVG/1.1/DTD/svg11.dtd"><svg class="icon" width="32px" height="32.00px" viewBox="0 0 1024 1024" version="1.1" xmlns="http://www.w3.org/2000/svg"><path  d="M512 0c282.77 0 512 229.23 512 512s-229.23 512-512 512S0 794.77 0 512 229.23 0 512 0z m0 72C268.995 72 72 268.995 72 512s196.995 440 440 440 440-196.995 440-440S755.005 72 512 72z m55.639 176C658.063 248 732 321.798 732 412.045 732 502.293 658.424 576 568 576l-144 0.09v219.82c0 18.592-17.198 36.09-35.833 36.09C369.53 832 352 814.502 352 795.91V284.09c0-18.592 17.531-36.09 36.167-36.09h179.472z m0.361 72H424v184h144c50.59 0 92.022-41.452 92.022-91.955C660.022 361.543 618.589 320 568 320z" /></svg>
