<?xml version="1.0" standalone="no"?><!DOCTYPE svg PUBLIC "-//W3C//DTD SVG 1.1//EN" "http://www.w3.org/Graphics/SVG/1.1/DTD/svg11.dtd"><svg class="icon" width="32px" height="32.00px" viewBox="0 0 1024 1024" version="1.1" xmlns="http://www.w3.org/2000/svg"><path  d="M863.085714 0c8.045714 0 14.628571 6.582857 14.628572 14.628571v775.314286a14.628571 14.628571 0 0 1-14.628572 14.628572H731.428571v131.657142a14.628571 14.628571 0 0 1-14.628571 14.628572H87.771429a14.628571 14.628571 0 0 1-14.628572-14.628572V160.914286c0-8.045714 6.582857-14.628571 14.628572-14.628572H219.428571V14.628571c0-8.045714 6.582857-14.628571 14.628572-14.628571h629.028571zM658.285714 219.428571H146.285714v658.285715h512V219.428571z m146.285715-146.285714H292.571429v73.142857h424.228571c8.045714 0 14.628571 6.582857 14.628571 14.628572V731.428571h73.142858V73.142857zM570.514286 585.142857c8.045714 0 14.628571 6.582857 14.628571 14.628572v43.885714a14.628571 14.628571 0 0 1-14.628571 14.628571H234.057143a14.628571 14.628571 0 0 1-14.628572-14.628571v-43.885714c0-8.045714 6.582857-14.628571 14.628572-14.628572h336.457143z m0-219.428571c8.045714 0 14.628571 6.582857 14.628571 14.628571v43.885714a14.628571 14.628571 0 0 1-14.628571 14.628572H234.057143a14.628571 14.628571 0 0 1-14.628572-14.628572v-43.885714c0-8.045714 6.582857-14.628571 14.628572-14.628571h336.457143z" /></svg>
