<?xml version="1.0" standalone="no"?><!DOCTYPE svg PUBLIC "-//W3C//DTD SVG 1.1//EN" "http://www.w3.org/Graphics/SVG/1.1/DTD/svg11.dtd"><svg class="icon" width="32px" height="32.00px" viewBox="0 0 1024 1024" version="1.1" xmlns="http://www.w3.org/2000/svg"><path  d="M580.900571 822.857143c0 70.582857 57.417143 128 128.073143 128h113.810286A128.219429 128.219429 0 0 0 950.857143 822.857143V709.12c0-70.509714-57.417143-127.853714-128.073143-127.853714h-27.940571a128 128 0 0 0-48.859429-76.653715c-13.531429-12.873143-43.52-25.526857-76.434286-25.526857H563.931429c22.966857-10.166857 41.910857-26.331429 55.149714-46.445714l64.365714-60.635429c23.113143-22.966857 37.449143-54.857143 37.449143-90.038857a127.122286 127.122286 0 0 0-37.522286-90.843428l-80.457143-80.310857A126.902857 126.902857 0 0 0 512.731429 73.142857a127.268571 127.268571 0 0 0-90.916572 37.449143l-80.384 80.457143c-23.113143 22.966857-37.376 54.857143-37.376 90.112v0.365714c0 34.157714 13.165714 66.267429 37.449143 90.404572l80.457143 80.457142c16.822857 16.896 38.619429 29.110857 62.902857 34.377143H354.304c-65.097143 0-119.954286 29.769143-127.268571 94.500572l-25.819429-0.219429A128.219429 128.219429 0 0 0 73.142857 709.046857v113.664c0 70.582857 57.417143 128 128.073143 128h113.810286a128.219429 128.219429 0 0 0 128-128V709.046857c0-70.582857-57.344-128-128-128h-19.968a64.731429 64.731429 0 0 1 59.245714-38.765714h315.392a64.365714 64.365714 0 0 1 58.953143 38.473143l-19.675429 0.512a128.219429 128.219429 0 0 0-128 127.853714v113.737143z m306.468572-113.810286v113.664a64.804571 64.804571 0 0 1-64.585143 64.804572H708.973714a64.731429 64.731429 0 0 1-64.585143-64.804572V709.046857c0-35.693714 28.964571-64.658286 64.585143-64.658286h113.810286c35.620571 0 64.658286 29.110857 64.658286 64.658286zM367.177143 281.6c0-17.334857 6.729143-33.499429 19.017143-45.714286l80.384-80.457143A63.853714 63.853714 0 0 1 512 136.411429h0.219429c17.334857 0 33.499429 6.729143 45.714285 19.017142l80.457143 80.384c11.702857 11.702857 19.017143 27.794286 19.017143 45.568v0.365715c0 17.846857-7.314286 33.938286-19.017143 45.568L558.153143 407.698286a64.877714 64.877714 0 0 1-91.501714 0l-80.457143-80.384a63.926857 63.926857 0 0 1-18.944-45.568v-0.219429h-0.146286z m12.507428 427.52v113.664a64.877714 64.877714 0 0 1-64.731428 64.804571H201.069714a64.877714 64.877714 0 0 1-64.731428-64.804571V709.046857c0-35.693714 29.110857-64.658286 64.731428-64.658286h113.810286c35.766857 0 64.731429 29.110857 64.731429 64.658286z" /></svg>
