<?xml version="1.0" standalone="no"?><!DOCTYPE svg PUBLIC "-//W3C//DTD SVG 1.1//EN" "http://www.w3.org/Graphics/SVG/1.1/DTD/svg11.dtd"><svg class="icon" width="32px" height="32.00px" viewBox="0 0 1024 1024" version="1.1" xmlns="http://www.w3.org/2000/svg"><path  d="M568.100571 73.142857c32.182857 0 58.514286 26.038857 58.514286 57.782857v71.168c35.401143 12.8 70.070857 32.914286 101.595429 58.148572l61.220571-34.157715c26.550857-17.481143 61.659429-8.484571 79.140572 20.260572l55.003428 95.085714c17.627429 26.331429 8.557714 61.001143-20.48 78.262857l-61.366857 34.230857c3.510857 24.356571 5.266286 42.057143 5.266286 58.075429 0 17.846857-1.316571 30.939429-5.266286 58.075429l61.366857 34.230857c29.037714 17.261714 38.107429 51.931429 20.48 78.262857l-55.003428 95.085714a57.197714 57.197714 0 0 1-79.067429 20.333714l-61.147429-34.157714c-28.233143 24.868571-62.025143 43.885714-101.668571 58.075429v71.094857c0 31.817143-26.331429 57.856-58.514286 57.856H457.874286c-32.182857 0-58.514286-26.038857-58.514286-57.782857v-71.168a362.861714 362.861714 0 0 1-101.522286-58.148572l-61.220571 34.157715c-26.550857 17.481143-61.659429 8.484571-79.140572-20.260572l-55.003428-95.085714c-17.627429-26.331429-8.630857-61.001143 20.48-78.262857l61.293714-34.230857A412.525714 412.525714 0 0 1 179.2 512c0-8.045714 0.365714-14.774857 1.389714-30.134857 0.950857-13.897143 1.316571-20.699429 1.389715-27.794286l-61.586286-34.377143a55.808 55.808 0 0 1-20.626286-78.116571l55.149714-95.305143a62.025143 62.025143 0 0 1 81.627429-23.113143l0.073143 0.073143 61.293714 36.864a309.833143 309.833143 0 0 1 101.668572-58.002286V130.925714c0-31.817143 26.331429-57.856 58.514285-57.856h110.08z m-3.437714 61.220572H461.385143v110.884571l-2.633143 0.658286c-60.050286 13.458286-111.689143 43.154286-149.650286 86.016l-1.901714 2.121143-98.596571-56.905143-51.638858 89.380571 98.523429 56.832-0.731429 2.56A299.154286 299.154286 0 0 0 241.005714 512c0 28.233143 4.973714 57.782857 13.604572 83.309714l0.877714 2.633143-98.596571 56.832 51.638857 89.307429L307.2 687.250286l1.901714 2.194285A262.582857 262.582857 0 0 0 458.605714 775.314286l2.779429 0.512v113.737143H564.662857v-113.664l2.706286-0.585143c60.050286-13.458286 111.689143-43.154286 149.650286-86.016l1.828571-2.121143 98.742857 56.905143 51.492572-83.968-98.450286-56.758857 0.731428-2.56a299.154286 299.154286 0 0 0 13.677715-86.162286c0-27.794286-4.827429-57.051429-13.677715-86.089143l-0.731428-2.56 98.523428-56.832-51.712-89.307429-98.596571 56.832-1.828571-2.194285A262.582857 262.582857 0 0 0 567.515429 248.685714l-2.852572-0.512V134.363429z m-51.638857 210.944C605.842286 345.234286 681.764571 420.278857 681.764571 512S605.842286 678.765714 513.024 678.765714C420.278857 678.765714 344.356571 603.648 344.356571 512c0-91.721143 75.922286-166.765714 168.667429-166.765714z m0 61.220571c-58.660571 0-106.715429 47.542857-106.715429 105.472 0 58.002286 48.054857 105.472 106.788572 105.472 58.660571 0 106.642286-47.542857 106.642286-105.472 0-58.002286-47.981714-105.472-106.715429-105.472z" /></svg>
