<?xml version="1.0" standalone="no"?><!DOCTYPE svg PUBLIC "-//W3C//DTD SVG 1.1//EN" "http://www.w3.org/Graphics/SVG/1.1/DTD/svg11.dtd"><svg class="icon" width="32px" height="32.00px" viewBox="0 0 1024 1024" version="1.1" xmlns="http://www.w3.org/2000/svg"><path  d="M370.907429 552.96c54.857143 0 99.254857 44.617143 99.254857 99.474286v198.948571c0 54.930286-44.470857 99.474286-99.254857 99.474286H172.397714C117.540571 950.857143 73.142857 906.313143 73.142857 851.382857V652.434286c0-54.857143 44.470857-99.474286 99.254857-99.474286h198.509715z m463.213714 0c54.857143 0 99.254857 44.617143 99.254857 99.474286v198.948571c0 54.930286-44.470857 99.474286-99.254857 99.474286H635.611429c-54.857143 0-99.254857-44.544-99.254858-99.474286V652.434286c0-54.857143 44.397714-99.474286 99.254858-99.474286h198.509714z m-463.213714 66.340571H172.397714a33.133714 33.133714 0 0 0-33.060571 33.133715v198.948571c0 18.285714 14.774857 33.133714 33.060571 33.133714h198.509715c18.285714 0 33.060571-14.848 33.060571-33.133714V652.434286a33.133714 33.133714 0 0 0-33.060571-33.133715z m463.213714 0H635.611429a33.133714 33.133714 0 0 0-33.133715 33.133715v198.948571c0 18.285714 14.848 33.133714 33.133715 33.133714h198.509714c18.285714 0 33.060571-14.848 33.060571-33.133714V652.434286a33.133714 33.133714 0 0 0-33.060571-33.133715zM735.817143 73.142857c26.331429 0 51.565714 10.459429 70.217143 29.110857l115.712 116.077715a99.547429 99.547429 0 0 1 0 140.653714L806.034286 475.062857a99.181714 99.181714 0 0 1-140.361143 0L549.814857 358.985143a99.547429 99.547429 0 0 1 0-140.653714L665.6 102.253714c18.651429-18.651429 43.885714-29.110857 70.217143-29.110857z m-364.909714 15.652572c54.857143 0 99.254857 44.544 99.254857 99.474285v198.948572c0 54.857143-44.470857 99.474286-99.254857 99.474285H172.397714c-54.857143 0-99.254857-44.617143-99.254857-99.474285v-198.948572c0-54.930286 44.470857-99.474286 99.254857-99.474285h198.509715z m364.909714 50.614857a33.060571 33.060571 0 0 0-23.405714 9.728L596.553143 265.216a33.206857 33.206857 0 0 0 0 46.884571L712.411429 428.178286a33.060571 33.060571 0 0 0 46.811428 0l115.785143-116.077715a33.206857 33.206857 0 0 0 0-46.884571L759.222857 149.138286a33.060571 33.060571 0 0 0-23.405714-9.728z m-364.909714 15.725714H172.397714a33.133714 33.133714 0 0 0-33.060571 33.133714v198.948572c0 18.285714 14.774857 33.133714 33.060571 33.133714h198.509715c18.285714 0 33.060571-14.848 33.060571-33.133714v-198.948572a33.133714 33.133714 0 0 0-33.060571-33.133714z" /></svg>
