<?xml version="1.0" standalone="no"?><!DOCTYPE svg PUBLIC "-//W3C//DTD SVG 1.1//EN" "http://www.w3.org/Graphics/SVG/1.1/DTD/svg11.dtd"><svg class="icon" width="32px" height="32.00px" viewBox="0 0 1024 1024" version="1.1" xmlns="http://www.w3.org/2000/svg"><path  d="M755.785143 513.755429l10.898286 54.418285 39.131428 16.457143 50.029714-32.548571 44.544 43.666285-33.206857 49.005715 16.822857 38.326857 66.852572 16.457143v60.196571l-55.954286 11.117714-16.822857 38.326858 33.206857 49.005714-44.617143 43.666286-49.956571-32.548572-44.617143 27.209143-10.898286 54.345143h-61.44l-10.825143-54.345143-39.131428-16.530286-50.029714 32.548572-44.617143-43.666286 33.28-49.005714-27.794286-43.666286-55.442286-10.678857v-60.123429l55.442286-11.629714 16.822857-38.326857-27.721143-54.345143 44.617143-43.666286 49.956572 32.548572 39.131428-21.796572 10.971429-54.418285h61.366857zM457.362286 73.142857c144.676571 0 256.073143 114.468571 256.073143 250.88 0 136.265143-116.882286 245.467429-256 245.467429-178.249143 0-317.44 136.338286-317.44 311.003428H73.142857c0-163.547429 100.059429-299.885714 250.587429-349.330285-72.338286-37.888-122.368-119.881143-122.368-207.213715C201.362286 187.611429 312.32 73.142857 457.362286 73.142857z m270.628571 548.425143c-62.756571 0-113.225143 49.517714-113.225143 110.957714 0 61.44 50.468571 110.957714 113.225143 110.957715 62.756571 0 113.298286-49.444571 113.298286-110.957715 0-61.44-50.468571-110.957714-113.298286-110.957714z m-270.628571-488.301714c-105.472 0-189.147429 81.554286-189.147429 185.344 0 103.862857 77.824 191.195429 189.220572 191.195428 111.396571 0 189.147429-81.993143 189.147428-185.344 0-103.862857-83.163429-191.195429-189.147428-191.195428z" /></svg>
