<?xml version="1.0" standalone="no"?><!DOCTYPE svg PUBLIC "-//W3C//DTD SVG 1.1//EN" "http://www.w3.org/Graphics/SVG/1.1/DTD/svg11.dtd"><svg class="icon" width="32px" height="32.00px" viewBox="0 0 1024 1024" version="1.1" xmlns="http://www.w3.org/2000/svg"><path  d="M512 73.142857a438.857143 438.857143 0 0 1 380.635429 657.408 116.589714 116.589714 0 0 1-162.157715 162.084572 438.857143 438.857143 0 0 1-599.113143-599.113143 116.589714 116.589714 0 0 1 162.157715-162.084572A435.931429 435.931429 0 0 1 512 73.142857z m0 61.732572c-64.512 0-125.220571 16.164571-178.395429 44.763428a116.589714 116.589714 0 0 1-153.965714 154.185143 377.124571 377.124571 0 0 0 510.683429 510.537143 116.589714 116.589714 0 0 1 153.965714-154.185143A377.124571 377.124571 0 0 0 512 134.875429z m284.525714 606.866285a54.857143 54.857143 0 1 0 0 109.714286 54.857143 54.857143 0 0 0 0-109.714286zM462.409143 290.596571a180.882286 180.882286 0 0 1 179.126857-45.348571h0.219429c13.312 4.388571 22.528 13.677714 26.916571 26.697143l0.731429 2.194286v2.194285c0 8.045714-0.292571 11.702857-1.609143 16.749715a31.817143 31.817143 0 0 1-12.361143 17.773714l-40.813714 40.594286c-11.776 14.482286-15.067429 33.792-8.411429 42.057142l0.365714 0.438858c4.900571 7.314286 13.312 12.434286 22.016 12.434285h1.682286l1.609143 0.365715c6.436571 1.609143 16.822857-2.048 23.113143-8.411429l45.202285-44.909714a37.156571 37.156571 0 0 1 38.034286-9.289143c13.165714 4.388571 22.381714 13.531429 26.770286 26.624v0.146286c19.456 61.220571 0.804571 132.534857-45.494857 178.614857-47.542857 47.323429-115.419429 65.901714-177.444572 47.835428L421.522286 717.165714c-17.700571 17.627429-42.276571 28.013714-66.852572 28.013715-20.845714 0-37.741714-5.266286-51.346285-18.578286-21.504-17.92-34.157714-39.058286-37.449143-65.170286a87.771429 87.771429 0 0 1 24.941714-71.460571l123.757714-123.099429a184.32 184.32 0 0 1 47.762286-176.274286z m126.464 5.851429a137.289143 137.289143 0 0 0-86.089143 34.596571 128.731429 128.731429 0 0 0-29.549714 127.049143c4.242286 16.822857 0.146286 32.914286-11.264 48.054857l-0.585143 0.731429L331.337143 636.342857c-5.558857 5.485714-8.045714 13.385143-8.045714 26.258286 0 7.753143 4.096 15.506286 12.288 21.650286 12.8 8.265143 32.475429 5.558857 45.568-7.460572l126.390857-125.805714a40.96 40.96 0 0 1 30.72-12.946286h11.410285l2.194286 0.804572c44.690286 15.652571 93.622857 3.657143 127.268572-29.696a128 128 0 0 0 37.522285-85.577143l-18.212571 18.139428a98.011429 98.011429 0 0 1-69.851429 28.013715h-0.877714L626.834286 469.577143c-27.940571-3.437714-52.516571-17.554286-66.779429-38.765714-24.722286-35.254857-18.285714-87.552 13.677714-119.296zM227.474286 172.617143a54.857143 54.857143 0 1 0 0 109.714286 54.857143 54.857143 0 0 0 0-109.714286z" /></svg>
