<?xml version="1.0" standalone="no"?><!DOCTYPE svg PUBLIC "-//W3C//DTD SVG 1.1//EN" "http://www.w3.org/Graphics/SVG/1.1/DTD/svg11.dtd"><svg class="icon" width="32px" height="32.00px" viewBox="0 0 1024 1024" version="1.1" xmlns="http://www.w3.org/2000/svg"><path  d="M512 73.142857a438.857143 438.857143 0 1 1 0 877.714286A438.857143 438.857143 0 0 1 512 73.142857z m0 61.732572a377.124571 377.124571 0 1 0 0 754.249142A377.124571 377.124571 0 0 0 512 134.875429zM512 257.462857a147.456 147.456 0 0 1 93.769143 261.12 236.251429 236.251429 0 0 1 142.774857 217.161143 30.866286 30.866286 0 0 1-61.659429 0 174.811429 174.811429 0 1 0-349.769142 0 30.866286 30.866286 0 0 1-61.659429 0c0-97.353143 58.733714-180.955429 142.774857-217.234286A147.456 147.456 0 0 1 512 257.462857z m0 61.659429a85.723429 85.723429 0 1 0 0 171.446857 85.723429 85.723429 0 0 0 0-171.446857z" /></svg>
