<?xml version="1.0" standalone="no"?><!DOCTYPE svg PUBLIC "-//W3C//DTD SVG 1.1//EN" "http://www.w3.org/Graphics/SVG/1.1/DTD/svg11.dtd"><svg class="icon" width="32px" height="32.00px" viewBox="0 0 1024 1024" version="1.1" xmlns="http://www.w3.org/2000/svg"><path  d="M706.340571 579.072a11.776 11.776 0 0 1 13.165715 9.069714l4.900571 20.845715V595.382857c0-6.509714 5.339429-11.849143 11.922286-11.849143h170.422857c6.582857 0 11.922286 5.339429 11.922286 11.849143v289.645714h20.114285c6.582857 0 11.849143 5.193143 12.068572 11.922286v26.477714c0 6.509714-5.339429 11.849143-11.849143 11.849143h-247.222857a11.922286 11.922286 0 0 1-11.776-11.849143v-26.477714c0-6.582857 5.339429-11.849143 11.849143-11.849143h32.768v-72.045714l-15.067429 13.019429a11.995429 11.995429 0 0 1-8.923428 2.779428 11.702857 11.702857 0 0 1-8.192-4.608 615.131429 615.131429 0 0 0-21.577143-26.550857v141.385143c0 6.509714-5.339429 11.849143-11.849143 11.849143h-27.501714a11.922286 11.922286 0 0 1-11.922286-11.849143V829.44c-8.265143 16.091429-17.627429 31.597714-27.940572 46.445714a11.849143 11.849143 0 0 1-20.845714-2.56 884.589714 884.589714 0 0 0-12.8-31.670857 11.849143 11.849143 0 0 1 1.170286-11.556571c20.041143-28.16 37.302857-63.780571 51.492571-106.203429h-40.009143a11.922286 11.922286 0 0 1-11.849142-11.849143v-26.550857c0-6.582857 5.266286-11.922286 11.849142-11.922286h48.786286v-34.157714c-13.165714 1.097143-25.892571 1.974857-38.765714 2.779429a11.849143 11.849143 0 0 1-12.434286-10.093715 289.645714 289.645714 0 0 0-5.339428-26.038857 11.995429 11.995429 0 0 1 1.901714-10.020571 11.702857 11.702857 0 0 1 8.850286-4.827429 1681.554286 1681.554286 0 0 0 132.681142-12.214857zM514.706286 73.142857c62.464 0 121.197714 24.137143 165.376 68.534857 44.178286 44.324571 68.461714 103.131429 68.461714 165.741715 0 62.683429-24.283429 121.563429-68.461714 165.814857a232.082286 232.082286 0 0 1-165.302857 68.608h-2.194286c-196.754286 0-358.838857 152.356571-374.930286 345.526857h377.051429a31.744 31.744 0 0 1 0 63.488H104.740571A31.597714 31.597714 0 0 1 73.142857 919.186286a438.930286 438.930286 0 0 1 128.731429-311.588572 437.686857 437.686857 0 0 1 177.883428-108.544A233.325714 233.325714 0 0 1 280.868571 307.492571c0-62.610286 24.356571-121.417143 68.461715-165.741714A232.082286 232.082286 0 0 1 514.706286 73.142857z m351.085714 760.466286h-88.722286v51.273143h88.722286v-51.273143z m0-100.059429h-88.722286v50.176h88.722286v-50.176z m-141.238857-11.849143a11.702857 11.702857 0 0 1-6.802286 2.194286H670.72v13.019429a11.995429 11.995429 0 0 1 12.8 2.486857c14.043429 13.824 27.794286 28.233143 40.96 43.008z m141.238857-88.064h-88.722286v50.102858h88.722286v-50.102858z m-141.385143-7.826285v0.219428a11.629714 11.629714 0 0 1-8.630857 4.827429c-13.531429 1.462857-28.672 2.779429-45.202286 4.315428v38.4h47.030857c2.56 0 4.973714 0.731429 6.802286 2.194286z m-209.700571-489.325715a171.008 171.008 0 0 0 0 342.016 171.008 171.008 0 0 0 0-342.089142z" /></svg>
