<?xml version="1.0" standalone="no"?><!DOCTYPE svg PUBLIC "-//W3C//DTD SVG 1.1//EN" "http://www.w3.org/Graphics/SVG/1.1/DTD/svg11.dtd"><svg class="icon" width="32px" height="32.00px" viewBox="0 0 1024 1024" version="1.1" xmlns="http://www.w3.org/2000/svg"><path  d="M512 73.142857a192 192 0 0 1 30.866286 381.513143V526.628571h257.170285c16.969143 0 30.793143 13.897143 30.793143 30.866286v94.866286a150.893714 150.893714 0 1 1-61.732571 0v-64h-514.194286v64a150.893714 150.893714 0 1 1-61.805714 0V557.421714c0-15.140571 10.971429-27.794286 25.380571-30.354285l5.485715-0.512h257.170285v-71.899429A192.073143 192.073143 0 0 1 512 73.142857zM223.963429 710.875429a89.161143 89.161143 0 1 0 0 178.249142 89.161143 89.161143 0 0 0 0-178.249142z m576.073142 0a89.161143 89.161143 0 1 0 0 178.249142 89.161143 89.161143 0 0 0 0-178.249142zM512 134.875429a130.267429 130.267429 0 1 0 0 260.534857 130.267429 130.267429 0 0 0 0-260.534857z" /></svg>
